<svg xmlns="http://www.w3.org/2000/svg" fill="none" viewBox="0 0 24 24"><path fill-opacity=".01" fill="#fff" d="M24 0H0v24h24V0z"/><path stroke-linejoin="round" stroke-linecap="round" stroke-width="2" stroke="#3E3E3E" d="M12 22c5.523 0 10-4.477 10-10S17.523 2 12 2 2 6.477 2 12s4.477 10 10 10zM15.5 3.5V12M8.318 3.318l7.071 7.071M3.5 8.5H12M10.182 8.818l-7.071 7.071M8.5 12.5V21M8.818 13.818l7.071 7.071M12 15.5h9M21.182 8.318l-7.071 7.071"/><path stroke-linejoin="round" stroke-linecap="round" stroke-width="2" stroke="#3E3E3E" d="M12 15.5a3.5 3.5 0 1 0 0-7 3.5 3.5 0 0 0 0 7z"/></svg>