<svg  viewBox="0 0 24 24" xmlns="http://www.w3.org/2000/svg" fill="none"><path fill-opacity=".01" fill="#fff" d="M24 0H0v24h24V0z"/><path stroke-linejoin="round" stroke-width="2" stroke="#34313c" d="M10.68 9.57c-2.945-.142-4.992.908-6.14 3.15-1.724 3.362-.3 8.863 5.45 8.863 5.749 0 5.915-5.555 5.915-6.137V8.937c1.23.78 2.267 1.248 3.11 1.407.844.159 1.38.23 1.61.211V7.317c-.78-.094-1.456-.273-2.025-.538-.854-.397-2.548-1.498-2.548-3.113v-1.25h-3.559c-.01 7.909-.01 12.252 0 13.03.016 1.167-.89 2.8-2.725 2.8-1.836 0-2.741-1.632-2.741-2.684a2.8 2.8 0 0 1 1.136-2.27c.542-.409 1.295-.573 2.516-.573V9.57z"/></svg>
