<svg  viewBox="0 0 24 24" xmlns="http://www.w3.org/2000/svg" fill="none"><path fill-opacity=".01" fill="#fff" d="M24 0H0v24h24V0z"/><path stroke-linejoin="round" stroke-width="2" stroke="#34313c" d="M6.28 8.205c-1.671 1.625-5.198 6.368-2.599 9.76 2.6 3.394 9.96 2.085 12.998-.305 3.039-2.39 2.739-3.868 2.08-4.518-.659-.651-2.581.007-3.12-.879-.537-.886.959-3.098-.316-3.797-1.276-.7-3.478 1.825-4.472 1.168-.995-.656 1.094-2.798 0-3.415-1.095-.617-2.898.361-4.57 1.986z"/><path stroke-linecap="round" stroke-width="2" stroke="#34313c" d="M21.69 8.258a6.477 6.477 0 0 0-1.821-4.037 6.482 6.482 0 0 0-3.862-1.92m2.639 6.165a3.324 3.324 0 0 0-1-2.114 3.624 3.624 0 0 0-2.12-1.006"/><path fill="#34313c" d="M12.5 15c0 1.105-1.343 2-3 2s-3-.895-3-2 1.343-2 3-2 3 .895 3 2z"/></svg>
