<svg  viewBox="0 0 24 24" width="1em" height="1em" fill="none" xmlns="http://www.w3.org/2000/svg"><path fill-rule="evenodd" clip-rule="evenodd" d="M3 3a2 2 0 0 1 2-2h10.5a1 1 0 0 1 .743.331l4.5 5A1 1 0 0 1 21 7v14a2 2 0 0 1-2 2H5a2 2 0 0 1-2-2V3Zm12.055 0H5v18h14V7.384L15.055 3Z" fill="#34313c"/><path d="M12.144 6.85c-1 0-1.802.299-2.4.91-.61.613-.894 1.452-.894 2.495v.15h1.793v-.15c0-.562.103-.98.3-1.26l.004-.004c.213-.33.562-.495 1.105-.495.417 0 .726.115.939.337.205.228.326.547.326.97 0 .305-.104.603-.32.88l-.15.184c-.425.397-.767.742-1.025 1.036-.257.292-.439.541-.534.747-.196.398-.276.876-.276 1.41v.343h1.806v-.343c0-.308.061-.574.182-.828.11-.23.267-.446.487-.638l.003-.003c.627-.575 1.015-.952 1.14-1.097l.007-.011c.336-.47.513-1.065.513-1.777 0-.871-.274-1.574-.834-2.088-.558-.526-1.292-.768-2.172-.768ZM11.908 14.776a1.134 1.134 0 0 0-1.158 1.18c0 .335.103.624.333.849.221.217.494.345.825.345.327 0 .6-.11.826-.331.228-.223.346-.524.346-.863 0-.34-.12-.625-.33-.845l-.003-.004a1.164 1.164 0 0 0-.839-.331Z" fill="#34313c"/></svg>
