<svg width="220" height="50" viewBox="0 0 220 50" fill="none" xmlns="http://www.w3.org/2000/svg">
<g clip-path="url(#clip0_7289_6786)">
<ellipse cx="24.2647" cy="25" rx="24.2647" ry="25" fill="#35313C"/>
<path d="M14.1298 10.8416L23.0906 5.47119C23.6292 5.14715 24.3049 5.5522 24.3049 6.19832V30.7368C24.3049 30.9522 24.0803 31.0885 23.8995 30.9798L14.1298 25.1233C13.751 24.8961 13.5188 24.4792 13.5188 24.0267V11.9383C13.5188 11.4858 13.751 11.0669 14.1298 10.8416Z" fill="white"/>
<path d="M35.6451 24.4494L26.4692 18.9506C25.9305 18.6265 25.2548 19.0316 25.2548 19.6777V30.7486V31.1833C25.232 31.5271 25.0988 31.7898 24.8342 31.9855L24.3108 32.2996C24.2937 32.3056 24.2784 32.3115 24.2613 32.3154L24.3013 32.3036L15.2072 37.755C14.6686 38.0791 14.6686 38.8872 15.2072 39.2093L24.3793 44.7062C24.6305 44.8564 24.9389 44.8564 25.1882 44.7062L34.5659 39.0868C35.4833 38.5375 36.0505 37.5199 36.0505 36.4193V25.1766C36.0505 24.8762 35.8944 24.5996 35.6451 24.4494Z" fill="white"/>
<g clip-path="url(#clip1_7289_6786)">
<path d="M107.785 9.90875C106.739 9.90875 105.89 10.7838 105.89 11.8615V38.2669C105.89 39.3447 106.739 40.2197 107.785 40.2197C108.831 40.2197 109.681 39.3447 109.681 38.2669V11.8615C109.681 10.7838 108.831 9.90875 107.785 9.90875Z" fill="#35313C"/>
<path d="M122.425 13.8195H128.593C129.639 13.8195 130.488 12.9445 130.488 11.8667C130.488 10.789 129.639 9.91394 128.593 9.91394H122.425C118.572 9.91394 115.439 13.2753 115.439 17.405V32.5578C115.439 36.6928 118.572 40.0488 122.425 40.0488H128.593C129.639 40.0488 130.488 39.1738 130.488 38.096C130.488 37.0183 129.639 36.1432 128.593 36.1432H122.425C120.664 36.1432 119.235 34.5373 119.235 32.5578V17.405C119.235 15.4255 120.664 13.8195 122.425 13.8195Z" fill="#35313C"/>
<path d="M216.458 36.138H210.29C208.529 36.138 207.1 34.5321 207.1 32.5526V17.3998C207.1 15.4257 208.529 13.8143 210.29 13.8143H216.458C217.504 13.8143 218.353 12.9393 218.353 11.8615C218.353 10.7838 217.504 9.90875 216.458 9.90875H210.29C206.437 9.90875 203.304 13.2701 203.304 17.3998V32.5526C203.304 36.6876 206.437 40.0436 210.29 40.0436H216.458C217.504 40.0436 218.353 39.1686 218.353 38.0908C218.358 37.0131 217.509 36.138 216.458 36.138Z" fill="#35313C"/>
<path d="M189.715 9.375C184.868 9.375 180.922 13.4406 180.922 18.4347V31.56C180.922 36.554 184.868 40.6197 189.715 40.6197C194.562 40.6197 198.509 36.554 198.509 31.56V18.4347C198.509 13.4406 194.562 9.375 189.715 9.375ZM194.713 31.5653C194.713 34.4038 192.47 36.7141 189.71 36.7141C186.955 36.7141 184.713 34.4038 184.713 31.5653V18.44C184.713 15.6015 186.955 13.2913 189.71 13.2913C192.465 13.2913 194.713 15.6015 194.713 18.44V31.5653Z" fill="#35313C"/>
<path d="M146.982 22.7351L144.18 25.9204L149.633 38.9817C149.944 39.7233 150.643 40.1662 151.378 40.1662C151.627 40.1662 151.881 40.1182 152.129 40.0061C153.092 39.5793 153.538 38.4321 153.124 37.4397L146.982 22.7351Z" fill="#35313C"/>
<path d="M152.663 10.4316C151.891 9.69533 150.695 9.74335 149.98 10.5383L139.111 22.6446V11.8615C139.111 10.7838 138.261 9.90875 137.215 9.90875C136.169 9.90875 135.32 10.7838 135.32 11.8615V38.2669C135.32 39.3447 136.169 40.2197 137.215 40.2197C138.261 40.2197 139.111 39.3447 139.111 38.2669V28.3962L152.766 13.1901C153.476 12.4004 153.429 11.1626 152.663 10.4316Z" fill="#35313C"/>
<path d="M167.095 9.90875H159.939C158.892 9.90875 158.043 10.7838 158.043 11.8615V38.2669C158.043 39.3447 158.892 40.2197 159.939 40.2197H167.095C172.087 40.2197 176.153 36.0367 176.153 30.8879V19.2405C176.147 14.0918 172.087 9.90875 167.095 9.90875ZM172.357 30.8933C172.357 33.8811 169.995 36.3141 167.095 36.3141H161.834V13.8197H167.095C169.995 13.8197 172.357 16.2527 172.357 19.2405V30.8933Z" fill="#35313C"/>
<path d="M73.8035 23.3862C75.269 21.9616 76.1908 19.9502 76.1908 17.7146C76.1908 13.4088 72.7937 9.90875 68.6197 9.90875H61.3438C60.2978 9.90875 59.4485 10.7838 59.4485 11.8615V23.5623V38.3096C59.4485 39.3874 60.2978 40.2624 61.3438 40.2624H68.5006C73.4928 40.2624 77.5579 36.0794 77.5579 30.9306C77.5579 27.8307 76.0717 25.0829 73.8035 23.3862ZM63.2444 13.8197H68.6197C70.7067 13.8197 72.4001 15.5697 72.4001 17.7146C72.4001 19.8595 70.7067 21.6095 68.6197 21.6095H68.5058H63.2444V13.8197ZM68.5058 36.3568H63.2444V25.5204H68.5058C71.4058 25.5204 73.7672 27.9534 73.7672 30.9413C73.7621 33.9238 71.4058 36.3568 68.5058 36.3568Z" fill="#35313C"/>
<path d="M100.478 19.2405C100.478 14.0918 96.4132 9.90875 91.421 9.90875H84.2643C83.2182 9.90875 82.3689 10.7838 82.3689 11.8615V26.6142C82.3689 26.7209 82.4 38.2669 82.4 38.2669C82.4 39.3447 83.2493 40.2197 84.2953 40.2197C85.3414 40.2197 86.1907 39.3447 86.1907 38.2669V28.567H91.421C91.5453 28.567 91.6644 28.551 91.7835 28.5456L96.8378 39.3767C97.1641 40.0756 97.8425 40.4865 98.5468 40.4865C98.8212 40.4865 99.1009 40.4224 99.3701 40.2944C100.313 39.8249 100.711 38.6564 100.256 37.6853L95.5225 27.5426C98.4587 26.0006 100.478 22.8633 100.478 19.2405ZM91.421 24.6614H86.1907V13.8197H91.421C94.321 13.8197 96.6825 16.2527 96.6825 19.2405C96.6825 22.2284 94.321 24.6614 91.421 24.6614Z" fill="#35313C"/>
</g>
</g>
<defs>
<clipPath id="clip0_7289_6786">
<rect width="220" height="50" fill="white"/>
</clipPath>
<clipPath id="clip1_7289_6786">
<rect width="158.91" height="31.25" fill="white" transform="translate(59.4485 9.375)"/>
</clipPath>
</defs>
</svg>
