<svg width="946" height="220" viewBox="0 0 946 220" fill="none" xmlns="http://www.w3.org/2000/svg">
<path d="M2.70874 88.0001H19.8687V46V32.2001H20.2287L26.5887 45.4001L42.5487 74.9201L58.8687 45.2801L64.9887 33.0401H65.3487V46V88.0001H82.5088V4.24005H63.0687L52.0287 25.6L42.7887 43.48H42.5487L33.1887 25.6L22.0287 4.24005H2.70874V88.0001Z" fill="black"/>
<path d="M171.589 88.0001L144.349 4.24005H121.789L94.189 88.0001H112.669L118.669 68.0801H146.629L152.629 88.0001H171.589ZM142.189 52.6001H122.989L128.149 35.2001L132.229 20.8001H132.829L137.029 35.2001L142.189 52.6001Z" fill="black"/>
<path d="M183.177 88.0001H214.737C220.257 88.0001 225.298 87.1201 229.858 85.3601C234.418 83.6001 238.297 81.0001 241.497 77.5601C244.697 74.0401 247.178 69.68 248.938 64.48C250.698 59.2 251.578 53.0801 251.578 46.1201C251.578 39.1601 250.698 33.08 248.938 27.88C247.178 22.6 244.697 18.2401 241.497 14.8001C238.297 11.2801 234.418 8.64005 229.858 6.88005C225.298 5.12005 220.257 4.24005 214.737 4.24005H183.177V88.0001ZM201.418 71.8001V20.4401H214.737C217.457 20.4401 219.897 20.84 222.057 21.64C224.217 22.36 226.058 23.5201 227.578 25.12C229.098 26.6401 230.257 28.6001 231.057 31C231.857 33.4 232.258 36.28 232.258 39.64V52.6001C232.258 55.9601 231.857 58.84 231.057 61.2401C230.257 63.6401 229.098 65.6401 227.578 67.2401C226.058 68.7601 224.217 69.9201 222.057 70.7201C219.897 71.4401 217.457 71.8001 214.737 71.8001H201.418Z" fill="black"/>
<path d="M323.849 88.0001V71.8001H285.089V53.6801H318.329V37.6001H285.089V20.4401H323.849V4.24005H266.849V88.0001H323.849Z" fill="black"/>
<path d="M401.699 89.4401C407.219 89.4401 412.259 88.5201 416.819 86.6801C421.379 84.8401 425.259 82.1201 428.459 78.5201C431.659 74.8401 434.139 70.3201 435.899 64.9601C437.659 59.5201 438.539 53.2401 438.539 46.1201C438.539 39.0001 437.659 32.7601 435.899 27.4001C434.139 21.9601 431.659 17.4401 428.459 13.84C425.259 10.16 421.379 7.40005 416.819 5.56005C412.259 3.72005 407.219 2.80005 401.699 2.80005C396.179 2.80005 391.139 3.72005 386.579 5.56005C382.019 7.40005 378.139 10.16 374.939 13.84C371.739 17.4401 369.259 21.9601 367.499 27.4001C365.739 32.7601 364.859 39.0001 364.859 46.1201C364.859 53.2401 365.739 59.5201 367.499 64.9601C369.259 70.3201 371.739 74.8401 374.939 78.5201C378.139 82.1201 382.019 84.8401 386.579 86.6801C391.139 88.5201 396.179 89.4401 401.699 89.4401ZM401.699 73.2401C398.979 73.2401 396.539 72.8001 394.379 71.9201C392.219 70.9601 390.379 69.6 388.859 67.84C387.339 66 386.179 63.8001 385.379 61.2401C384.579 58.68 384.179 55.72 384.179 52.3601V39.8801C384.179 36.5201 384.579 33.5601 385.379 31C386.179 28.44 387.339 26.2801 388.859 24.5201C390.379 22.68 392.219 21.32 394.379 20.4401C396.539 19.48 398.979 19 401.699 19C404.419 19 406.859 19.48 409.019 20.4401C411.179 21.32 413.019 22.68 414.539 24.5201C416.059 26.2801 417.219 28.44 418.019 31C418.819 33.5601 419.219 36.5201 419.219 39.8801V52.3601C419.219 55.72 418.819 58.68 418.019 61.2401C417.219 63.8001 416.059 66 414.539 67.84C413.019 69.6 411.179 70.9601 409.019 71.9201C406.859 72.8001 404.419 73.2401 401.699 73.2401Z" fill="black"/>
<path d="M502.243 88.0001H522.163V4.24005H505.003V43.1201V60.6401H504.643L496.603 43.84L473.683 4.24005H453.763V88.0001H470.923V49.1201V31.6001H471.283L479.323 48.4001L502.243 88.0001Z" fill="black"/>
<path d="M625.959 88.0001V71.8001H587.199V53.6801H620.439V37.6001H587.199V20.4401H625.959V4.24005H568.959V88.0001H625.959Z" fill="black"/>
<path d="M712.409 88.0001L685.169 4.24005H662.609L635.009 88.0001H653.489L659.489 68.0801H687.449L693.449 88.0001H712.409ZM683.009 52.6001H663.809L668.969 35.2001L673.049 20.8001H673.649L677.849 35.2001L683.009 52.6001Z" fill="black"/>
<path d="M742.238 57.2801H755.318L769.958 88.0001H790.238L773.798 55.12C778.918 53.2 782.718 50.1201 785.198 45.8801C787.758 41.6401 789.038 36.6801 789.038 31C789.038 27 788.438 23.36 787.238 20.08C786.038 16.8 784.318 14 782.078 11.68C779.918 9.28005 777.278 7.44005 774.158 6.16005C771.038 4.88005 767.558 4.24005 763.718 4.24005H723.998V88.0001H742.238V57.2801ZM742.238 41.9201V20.08H761.438C762.798 20.08 763.998 20.28 765.038 20.68C766.158 21 767.078 21.52 767.798 22.24C768.598 22.88 769.198 23.7201 769.598 24.7601C769.998 25.8001 770.198 27.0001 770.198 28.3601V33.6401C770.198 35.0001 769.998 36.2001 769.598 37.2401C769.198 38.28 768.598 39.1601 767.798 39.8801C767.078 40.5201 766.158 41.0401 765.038 41.4401C763.998 41.7601 762.798 41.9201 761.438 41.9201H742.238Z" fill="black"/>
<path d="M862.457 20.4401V4.24005H798.857V20.4401H821.537V88.0001H839.777V20.4401H862.457Z" fill="black"/>
<path d="M925.095 88.0001H943.335V4.24005H925.095V37.6001H893.175V4.24005H874.935V88.0001H893.175V53.6801H925.095V88.0001Z" fill="black"/>
<path d="M132.904 216H177.304C180.424 216 183.304 215.4 185.944 214.2C188.584 212.92 190.864 211.2 192.784 209.04C194.704 206.88 196.184 204.36 197.224 201.48C198.344 198.52 198.904 195.4 198.904 192.12C198.904 188.52 198.304 185.48 197.104 183C195.904 180.44 194.344 178.4 192.424 176.88C190.584 175.28 188.544 174.16 186.304 173.52C184.144 172.8 182.064 172.44 180.064 172.44V171.72C182.224 171.64 184.224 171.28 186.064 170.64C187.984 169.92 189.624 168.84 190.984 167.4C192.424 165.96 193.544 164.12 194.344 161.88C195.224 159.64 195.664 156.92 195.664 153.72C195.664 147.24 193.704 142.04 189.784 138.12C185.944 134.2 180.544 132.24 173.584 132.24H132.904V216ZM151.144 181.44H172.144C173.344 181.44 174.424 181.6 175.384 181.92C176.344 182.24 177.144 182.76 177.784 183.48C178.504 184.12 179.024 184.92 179.344 185.88C179.744 186.76 179.944 187.8 179.944 189V193.08C179.944 194.28 179.744 195.36 179.344 196.32C179.024 197.2 178.504 198 177.784 198.72C177.144 199.36 176.344 199.84 175.384 200.16C174.424 200.48 173.344 200.64 172.144 200.64H151.144V181.44ZM151.144 147.6H169.264C170.464 147.6 171.544 147.8 172.504 148.2C173.464 148.52 174.264 149 174.904 149.64C175.544 150.28 176.024 151.08 176.344 152.04C176.744 153 176.944 154.08 176.944 155.28V158.88C176.944 160.08 176.744 161.16 176.344 162.12C176.024 163.08 175.544 163.88 174.904 164.52C174.264 165.16 173.464 165.68 172.504 166.08C171.544 166.4 170.464 166.56 169.264 166.56H151.144V147.6Z" fill="black"/>
<path d="M251.823 216V183.12L280.503 132.24H260.703L243.423 165.6H243.183L225.183 132.24H204.783L233.463 183.24V216H251.823Z" fill="black"/>
<path d="M369.392 216H387.632V132.24H369.392V165.6H337.472V132.24H319.232V216H337.472V181.68H369.392V216Z" fill="black"/>
<path d="M405.588 132.24V181.68C405.588 187.84 406.148 193.2 407.268 197.76C408.468 202.24 410.388 205.96 413.028 208.92C415.668 211.8 419.068 213.96 423.228 215.4C427.388 216.76 432.468 217.44 438.468 217.44C444.468 217.44 449.548 216.76 453.708 215.4C457.868 213.96 461.268 211.8 463.908 208.92C466.548 205.96 468.428 202.24 469.548 197.76C470.748 193.2 471.348 187.84 471.348 181.68V132.24H453.588V183.6C453.588 186.56 453.308 189.16 452.748 191.4C452.188 193.56 451.308 195.4 450.108 196.92C448.908 198.36 447.348 199.44 445.428 200.16C443.508 200.88 441.188 201.24 438.468 201.24C435.748 201.24 433.428 200.88 431.508 200.16C429.588 199.44 428.028 198.36 426.828 196.92C425.628 195.4 424.748 193.56 424.188 191.4C423.628 189.16 423.348 186.56 423.348 183.6V132.24H405.588Z" fill="black"/>
<path d="M489.388 216H506.548V174V160.2H506.908L513.268 173.4L529.228 202.92L545.548 173.28L551.668 161.04H552.028V174V216H569.188V132.24H549.748L538.708 153.6L529.468 171.48H529.228L519.868 153.6L508.708 132.24H489.388V216Z" fill="black"/>
<path d="M658.269 216L631.029 132.24H608.469L580.869 216H599.349L605.349 196.08H633.309L639.309 216H658.269ZM628.869 180.6H609.669L614.829 163.2L618.909 148.8H619.509L623.709 163.2L628.869 180.6Z" fill="black"/>
<path d="M718.337 216H738.257V132.24H721.097V171.12V188.64H720.737L712.697 171.84L689.777 132.24H669.857V216H687.017V177.12V159.6H687.377L695.417 176.4L718.337 216Z" fill="black"/>
<path d="M783.813 217.44C789.013 217.44 793.653 216.8 797.733 215.52C801.813 214.16 805.213 212.28 807.933 209.88C810.733 207.48 812.853 204.6 814.293 201.24C815.733 197.88 816.453 194.2 816.453 190.2C816.453 186.6 815.933 183.44 814.893 180.72C813.853 177.92 812.253 175.52 810.093 173.52C808.013 171.44 805.373 169.76 802.173 168.48C799.053 167.12 795.333 166.08 791.013 165.36L782.733 164.04C780.973 163.8 779.453 163.48 778.173 163.08C776.973 162.6 775.973 162 775.173 161.28C774.373 160.56 773.773 159.72 773.373 158.76C772.973 157.72 772.773 156.48 772.773 155.04C772.773 152.48 773.773 150.48 775.773 149.04C777.773 147.6 780.813 146.88 784.893 146.88C789.213 146.88 792.773 147.64 795.573 149.16C798.453 150.6 800.893 152.48 802.893 154.8L815.013 142.56C811.573 138.72 807.453 135.8 802.653 133.8C797.853 131.8 792.293 130.8 785.973 130.8C781.093 130.8 776.693 131.44 772.773 132.72C768.853 133.92 765.533 135.64 762.813 137.88C760.173 140.12 758.133 142.8 756.693 145.92C755.253 149.04 754.533 152.48 754.533 156.24C754.533 159.76 755.053 162.92 756.093 165.72C757.133 168.52 758.693 171 760.773 173.16C762.853 175.24 765.493 176.96 768.693 178.32C771.973 179.68 775.813 180.64 780.213 181.2L788.493 182.28C790.413 182.52 792.013 182.92 793.293 183.48C794.573 184.04 795.573 184.72 796.293 185.52C797.013 186.24 797.493 187.12 797.733 188.16C798.053 189.12 798.213 190.16 798.213 191.28C798.213 194.32 797.133 196.76 794.973 198.6C792.813 200.44 789.493 201.36 785.013 201.36C780.933 201.36 777.093 200.56 773.493 198.96C769.973 197.36 766.813 194.96 764.013 191.76L752.013 203.88C755.613 207.8 759.973 211.04 765.093 213.6C770.293 216.16 776.533 217.44 783.813 217.44Z" fill="black"/>
<path fill-rule="evenodd" clip-rule="evenodd" d="M0.70874 90.0001V2.24005H23.2403L34.9614 24.6739L42.6581 39.3765L50.252 24.6819L61.8511 2.24005H84.5087V90.0001H63.3487V40.7922L60.6399 46.21L42.5327 79.0957L24.8072 46.3102L21.8687 40.2115V90.0001H0.70874ZM19.8687 32.2001H20.2287L26.5887 45.4001L42.5487 74.9201L58.8687 45.2801L64.9887 33.0401H65.3487V88.0001H82.5087V4.24005H63.0687L42.7887 43.48H42.5487L22.0287 4.24005H2.70874V88.0001H19.8687V32.2001ZM174.343 90.0001H151.143L145.143 70.0801H120.155L114.155 90.0001H91.4242L120.342 2.24005H145.802L174.343 90.0001ZM118.669 68.0801H146.629L152.629 88.0001H171.589L144.349 4.24005H121.789L94.189 88.0001H112.669L118.669 68.0801ZM128.149 35.2001L122.989 52.6001H142.189L137.029 35.2001L132.829 20.8001H132.229L128.149 35.2001ZM132.553 26.9949L130.07 35.757L125.668 50.6001H139.51L135.109 35.7601L132.553 26.9949ZM181.177 90.0001V2.24005H214.737C220.472 2.24005 225.76 3.15482 230.578 5.0142C235.416 6.88162 239.556 9.69361 242.969 13.446C246.392 17.128 249 21.7466 250.833 27.242C252.678 32.6947 253.577 38.999 253.577 46.1201C253.577 53.2435 252.677 59.5849 250.835 65.1125L250.832 65.1213C248.997 70.5421 246.389 75.1527 242.977 78.9054L242.97 78.9139L242.962 78.9223C239.547 82.5935 235.409 85.3612 230.578 87.2259C225.76 89.0853 220.472 90.0001 214.737 90.0001H181.177ZM248.937 27.88C247.177 22.6 244.697 18.24 241.497 14.8001C238.298 11.28 234.417 8.64005 229.857 6.88005C225.298 5.12005 220.257 4.24005 214.737 4.24005H183.177V88.0001H214.737C220.257 88.0001 225.298 87.1201 229.857 85.3601C234.417 83.6001 238.298 81.0001 241.497 77.5601C244.697 74.0401 247.177 69.6801 248.937 64.48C250.697 59.2001 251.577 53.0801 251.577 46.1201C251.577 39.1601 250.697 33.0801 248.937 27.88ZM222.057 21.64C219.897 20.84 217.457 20.4401 214.737 20.4401H201.417V71.8001H214.737C217.457 71.8001 219.897 71.4401 222.057 70.7201C224.217 69.9201 226.057 68.7601 227.577 67.2401C229.097 65.6401 230.257 63.6401 231.057 61.2401C231.857 58.84 232.257 55.9601 232.257 52.6001V39.64C232.257 36.2801 231.857 33.4001 231.057 31C230.257 28.6001 229.097 26.6401 227.577 25.12C226.057 23.5201 224.217 22.3601 222.057 21.64ZM226.145 65.8441C227.427 64.4884 228.443 62.7603 229.16 60.6076C229.874 58.466 230.257 55.8112 230.257 52.6001V39.64C230.257 36.4289 229.874 33.7741 229.16 31.6325C228.441 29.4752 227.428 27.7991 226.163 26.5343L226.145 26.5161L226.127 26.4975C224.841 25.1429 223.284 24.1572 221.425 23.5374L221.394 23.527L221.363 23.5155C219.461 22.8113 217.262 22.4401 214.737 22.4401H203.417V69.8001H214.737C217.269 69.8001 219.48 69.4666 221.394 68.8331C223.28 68.1298 224.854 67.1301 226.145 65.8441ZM325.849 90.0001H264.849V2.24005H325.849V22.4401H287.089V35.6001H320.329V55.6801H287.089V69.8001H325.849V90.0001ZM323.849 71.8001V88.0001H266.849V4.24005H323.849V20.4401H285.089V37.6001H318.329V53.6801H285.089V71.8001H323.849ZM429.961 79.8406L429.954 79.8488C426.545 83.6842 422.408 86.5818 417.568 88.5348C412.742 90.4818 407.445 91.4401 401.699 91.4401C395.954 91.4401 390.656 90.4818 385.831 88.5348C380.991 86.5818 376.854 83.6842 373.445 79.8488L373.437 79.8406L373.43 79.8324C370.03 75.9222 367.429 71.1579 365.599 65.584L365.596 65.5757C363.759 59.895 362.859 53.4 362.859 46.1201C362.859 38.841 363.758 32.3823 365.599 26.7761C367.427 21.1284 370.028 16.3572 373.438 12.5185C376.846 8.60271 380.984 5.66097 385.831 3.70535C390.656 1.75831 395.954 0.800049 401.699 0.800049C407.445 0.800049 412.742 1.75831 417.568 3.70535C422.415 5.66126 426.554 8.60349 429.962 12.5201C433.373 16.3601 435.974 21.1328 437.802 26.7825C439.641 32.3872 440.539 38.8438 440.539 46.1201C440.539 53.4 439.64 59.895 437.802 65.5757L437.8 65.584C435.969 71.1579 433.369 75.9222 429.969 79.8324L429.961 79.8406ZM435.899 27.4001C434.139 21.9601 431.659 17.4401 428.459 13.84C425.259 10.16 421.379 7.40005 416.819 5.56005C412.259 3.72005 407.219 2.80005 401.699 2.80005C396.179 2.80005 391.139 3.72005 386.579 5.56005C382.019 7.40005 378.139 10.16 374.939 13.84C371.739 17.4401 369.259 21.9601 367.499 27.4001C365.739 32.7601 364.859 39 364.859 46.1201C364.859 53.2401 365.739 59.5201 367.499 64.9601C369.259 70.3201 371.739 74.84 374.939 78.5201C378.139 82.1201 382.019 84.84 386.579 86.6801C391.139 88.5201 396.179 89.4401 401.699 89.4401C407.219 89.4401 412.259 88.5201 416.819 86.6801C421.379 84.84 425.259 82.1201 428.459 78.5201C431.659 74.84 434.139 70.3201 435.899 64.9601C437.659 59.5201 438.539 53.2401 438.539 46.1201C438.539 39 437.659 32.7601 435.899 27.4001ZM394.379 20.4401C392.219 21.32 390.379 22.68 388.859 24.5201C387.339 26.28 386.179 28.44 385.379 31C384.579 33.5601 384.179 36.5201 384.179 39.8801V52.3601C384.179 55.72 384.579 58.6801 385.379 61.2401C386.179 63.8 387.339 66.0001 388.859 67.84C390.379 69.6001 392.219 70.9601 394.379 71.9201C396.539 72.8001 398.979 73.2401 401.699 73.2401C404.419 73.2401 406.859 72.8001 409.019 71.9201C411.179 70.9601 413.019 69.6001 414.539 67.84C416.059 66.0001 417.219 63.8 418.019 61.2401C418.819 58.6801 419.219 55.72 419.219 52.3601V39.8801C419.219 36.5201 418.819 33.5601 418.019 31C417.219 28.44 416.059 26.28 414.539 24.5201C413.019 22.68 411.179 21.32 409.019 20.4401C406.859 19.48 404.419 19 401.699 19C398.979 19 396.539 19.48 394.379 20.4401ZM395.163 70.0797C393.287 69.2412 391.702 68.067 390.388 66.5497C389.058 64.9359 388.018 62.9786 387.288 60.6435C386.562 58.3182 386.179 55.5665 386.179 52.3601V39.8801C386.179 36.6736 386.562 33.9219 387.288 31.5966C388.019 29.2583 389.057 27.3506 390.373 25.8273L390.387 25.8107L390.401 25.7938C391.716 24.2026 393.288 23.0445 395.134 22.2922L395.163 22.2804L395.192 22.2677C397.06 21.4372 399.217 21 401.699 21C404.181 21 406.339 21.4372 408.207 22.2677L408.236 22.2804L408.265 22.2922C410.111 23.0445 411.683 24.2026 412.997 25.7938L413.011 25.8107L413.026 25.8273C414.341 27.3506 415.38 29.2583 416.11 31.5966C416.837 33.9219 417.219 36.6736 417.219 39.8801V52.3601C417.219 55.5665 416.837 58.3182 416.11 60.6435C415.381 62.9782 414.341 64.9353 413.012 66.5489C411.697 68.0666 410.112 69.2411 408.236 70.0796C406.358 70.8395 404.19 71.2401 401.699 71.2401C399.209 71.2401 397.04 70.8396 395.163 70.0797ZM501.09 90.0001L477.553 49.3341L472.923 39.66V90.0001H451.763V2.24005H474.837L498.374 42.906L503.003 52.5801V2.24005H524.163V90.0001H501.09ZM505.003 60.6401H504.643L496.603 43.84L473.683 4.24005H453.763V88.0001H470.923V31.6001H471.283L479.323 48.4001L502.243 88.0001H522.163V4.24005H505.003V60.6401ZM627.959 90.0001H566.959V2.24005H627.959V22.4401H589.199V35.6001H622.439V55.6801H589.199V69.8001H627.959V90.0001ZM625.959 71.8001V88.0001H568.959V4.24005H625.959V20.4401H587.199V37.6001H620.439V53.6801H587.199V71.8001H625.959ZM715.163 90.0001H691.963L685.963 70.0801H660.976L654.976 90.0001H632.245L661.163 2.24005H686.622L715.163 90.0001ZM659.489 68.0801H687.449L693.449 88.0001H712.409L685.169 4.24005H662.609L635.009 88.0001H653.489L659.489 68.0801ZM668.969 35.2001L663.809 52.6001H683.009L677.849 35.2001L673.649 20.8001H673.049L668.969 35.2001ZM673.373 26.9949L670.894 35.7453L670.89 35.757L670.887 35.7687L666.489 50.6001H680.33L675.932 35.7687L675.929 35.7601L673.373 26.9949ZM769.958 88.0001L755.318 57.2801H742.238V88.0001H723.998V4.24005H763.718C767.558 4.24005 771.038 4.88005 774.158 6.16005C777.278 7.44005 779.918 9.28005 782.078 11.68C784.318 14 786.038 16.8 787.238 20.08C788.438 23.3601 789.038 27 789.038 31C789.038 36.68 787.758 41.6401 785.198 45.8801C783.027 49.5923 779.843 52.4153 775.648 54.3491C775.052 54.6241 774.435 54.8811 773.798 55.12L790.238 88.0001H769.958ZM776.543 56.1387L793.474 90.0001H768.695L754.055 59.2801H744.238V90.0001H721.998V2.24005H763.718C767.782 2.24005 771.525 2.91813 774.917 4.30971C778.291 5.69396 781.175 7.6956 783.541 10.3161C785.978 12.848 787.833 15.8845 789.116 19.3929C790.407 22.9225 791.038 26.7992 791.038 31C791.038 36.9854 789.687 42.3103 786.916 46.9034C784.528 50.9804 781.04 54.0531 776.543 56.1387ZM765.038 20.68C763.998 20.28 762.798 20.08 761.438 20.08H742.238V41.9201H761.438C762.798 41.9201 763.998 41.7601 765.038 41.4401C766.158 41.0401 767.078 40.5201 767.798 39.8801C768.598 39.16 769.198 38.2801 769.598 37.2401C769.998 36.2001 770.198 35.0001 770.198 33.6401V28.3601C770.198 27.0001 769.998 25.8001 769.598 24.7601C769.198 23.7201 768.598 22.8801 767.798 22.24C767.078 21.52 766.158 21 765.038 20.68ZM766.464 38.3901C767.019 37.8892 767.441 37.2768 767.731 36.5221C768.026 35.7556 768.198 34.8071 768.198 33.6401V28.3601C768.198 27.193 768.026 26.2445 767.731 25.478C767.447 24.7391 767.047 24.201 766.548 23.8018L766.462 23.7326L766.384 23.6543C765.937 23.2073 765.329 22.8433 764.488 22.6031L764.403 22.5787L764.32 22.5467C763.553 22.2519 762.605 22.08 761.438 22.08H744.238V39.9201H761.438C762.625 39.9201 763.607 39.7822 764.408 39.5412C765.316 39.2122 765.982 38.8162 766.464 38.3901ZM864.457 22.4401H841.777V90.0001H819.537V22.4401H796.857V2.24005H864.457V22.4401ZM798.857 20.4401V4.24005H862.457V20.4401H839.777V88.0001H821.537V20.4401H798.857ZM923.095 90.0001V55.6801H895.175V90.0001H872.935V2.24005H895.175V35.6001H923.095V2.24005H945.335V90.0001H923.095ZM925.095 4.24005H943.335V88.0001H925.095V53.6801H893.175V88.0001H874.935V4.24005H893.175V37.6001H925.095V4.24005ZM130.904 218V130.24H173.584C180.926 130.24 186.896 132.318 191.206 136.714C195.559 141.071 197.664 146.811 197.664 153.72C197.664 157.08 197.205 160.053 196.217 162.582C195.338 165.032 194.083 167.122 192.418 168.794C191.156 170.125 189.688 171.187 188.028 171.977C190.089 172.726 191.982 173.852 193.702 175.341C195.88 177.075 197.606 179.363 198.91 182.14C200.271 184.959 200.904 188.312 200.904 192.12C200.904 195.628 200.305 198.984 199.1 202.174C197.979 205.273 196.374 208.011 194.279 210.369C192.182 212.728 189.689 214.607 186.817 216L186.794 216.01L186.772 216.021C183.852 217.348 180.688 218 177.304 218H130.904ZM197.224 201.48C198.344 198.52 198.904 195.4 198.904 192.12C198.904 188.52 198.304 185.48 197.104 183C195.904 180.44 194.344 178.4 192.424 176.88C190.584 175.28 188.544 174.16 186.304 173.52C185.811 173.356 185.323 173.21 184.838 173.084C183.209 172.657 181.626 172.443 180.091 172.44M180.064 171.72C181.751 171.658 183.34 171.424 184.831 171.02C185.25 170.907 185.661 170.78 186.064 170.64C187.984 169.92 189.624 168.84 190.984 167.4C192.424 165.96 193.544 164.12 194.344 161.88C195.224 159.64 195.664 156.92 195.664 153.72C195.664 147.24 193.704 142.04 189.784 138.12C185.944 134.2 180.544 132.24 173.584 132.24H132.904V216H177.304C180.424 216 183.304 215.4 185.944 214.2C188.584 212.92 190.864 211.2 192.784 209.04C194.704 206.88 196.184 204.36 197.224 201.48M180.064 172.44V171.72ZM177.784 183.48C177.144 182.76 176.344 182.24 175.384 181.92C174.424 181.6 173.344 181.44 172.144 181.44H151.144V200.64H172.144C173.344 200.64 174.424 200.48 175.384 200.16C176.344 199.84 177.144 199.36 177.784 198.72C178.504 198 179.024 197.2 179.344 196.32C179.744 195.36 179.944 194.28 179.944 193.08V189C179.944 187.8 179.744 186.76 179.344 185.88C179.024 184.92 178.504 184.12 177.784 183.48ZM153.144 198.64H172.144C173.168 198.64 174.029 198.503 174.752 198.263C175.452 198.029 175.974 197.702 176.37 197.306C176.902 196.774 177.253 196.219 177.464 195.637L177.48 195.593L177.498 195.551C177.782 194.869 177.944 194.056 177.944 193.08V189C177.944 188.018 177.78 187.273 177.523 186.708L177.48 186.612L177.447 186.513C177.232 185.867 176.9 185.37 176.455 184.975L176.367 184.897L176.289 184.809C175.894 184.364 175.397 184.032 174.752 183.817C174.029 183.577 173.168 183.44 172.144 183.44H153.144V198.64ZM172.504 148.2C171.544 147.8 170.464 147.6 169.264 147.6H151.144V166.56H169.264C170.464 166.56 171.544 166.4 172.504 166.08C173.464 165.68 174.264 165.16 174.904 164.52C175.544 163.88 176.024 163.08 176.344 162.12C176.744 161.16 176.944 160.08 176.944 158.88V155.28C176.944 154.08 176.744 153 176.344 152.04C176.024 151.08 175.544 150.28 174.904 149.64C174.264 149 173.464 148.52 172.504 148.2ZM171.803 164.205C172.524 163.896 173.073 163.523 173.49 163.106C173.886 162.71 174.213 162.188 174.447 161.488L174.47 161.418L174.498 161.351C174.782 160.669 174.944 159.856 174.944 158.88V155.28C174.944 154.304 174.782 153.491 174.498 152.809L174.47 152.742L174.447 152.673C174.213 151.972 173.886 151.45 173.49 151.054C173.094 150.659 172.572 150.331 171.872 150.097L171.802 150.074L171.735 150.046C171.053 149.762 170.24 149.6 169.264 149.6H153.144V164.56H169.264C170.256 164.56 171.095 164.432 171.803 164.205ZM253.823 218H231.463V183.764L201.364 130.24H226.377L243.269 161.548L259.487 130.24H283.926L253.823 183.645V218ZM260.703 132.24H280.503L251.823 183.12V216H233.463V183.24L204.783 132.24H225.183L243.183 165.6H243.423L260.703 132.24ZM367.392 218V183.68H339.472V218H317.232V130.24H339.472V163.6H367.392V130.24H389.632V218H367.392ZM369.392 132.24H387.632V216H369.392V181.68H337.472V216H319.232V132.24H337.472V165.6H369.392V132.24ZM403.588 130.24H425.348V183.6C425.348 186.436 425.617 188.865 426.127 190.908C426.625 192.825 427.387 194.394 428.381 195.66C429.337 196.799 430.593 197.681 432.21 198.287C433.846 198.901 435.914 199.24 438.468 199.24C441.022 199.24 443.09 198.901 444.726 198.287C446.343 197.681 447.599 196.799 448.555 195.66C449.55 194.393 450.312 192.823 450.81 190.904C451.32 188.862 451.588 186.435 451.588 183.6V130.24H473.348V181.68C473.348 187.959 472.738 193.494 471.485 198.259C470.299 202.996 468.286 207.016 465.401 210.251L465.392 210.261L465.382 210.272C462.491 213.426 458.796 215.755 454.362 217.29L454.346 217.296L454.33 217.301C449.91 218.746 444.607 219.44 438.468 219.44C432.33 219.44 427.026 218.746 422.607 217.301L422.59 217.296L422.574 217.29C418.14 215.755 414.445 213.426 411.554 210.272L411.545 210.261L411.536 210.251C408.655 207.022 406.603 203.008 405.336 198.278L405.331 198.257L405.326 198.237C404.158 193.481 403.588 187.954 403.588 181.68V130.24ZM452.748 191.4C453.308 189.16 453.588 186.56 453.588 183.6V132.24H471.348V181.68C471.348 187.84 470.748 193.2 469.548 197.76C468.428 202.24 466.548 205.96 463.908 208.92C461.268 211.8 457.868 213.96 453.708 215.4C449.548 216.76 444.468 217.44 438.468 217.44C432.468 217.44 427.388 216.76 423.228 215.4C419.068 213.96 415.668 211.8 413.028 208.92C410.388 205.96 408.468 202.24 407.268 197.76C406.148 193.2 405.588 187.84 405.588 181.68V132.24H423.348V183.6C423.348 186.56 423.628 189.16 424.188 191.4C424.748 193.56 425.628 195.4 426.828 196.92C428.028 198.36 429.588 199.44 431.508 200.16C433.428 200.88 435.748 201.24 438.468 201.24C441.188 201.24 443.508 200.88 445.428 200.16C447.348 199.44 448.908 198.36 450.108 196.92C451.308 195.4 452.188 193.56 452.748 191.4ZM487.388 218V130.24H509.92L521.64 152.672L521.641 152.674L529.338 167.377L536.932 152.682L538.708 153.6L529.468 171.48H529.228L508.708 132.24H489.388V216H506.548V160.2H506.908L513.268 173.4L529.228 202.92L545.548 173.28L551.668 161.04H552.028V216H569.188V132.24H549.748L538.708 153.6L536.932 152.682L548.531 130.24H571.188V218H550.028V168.792L547.32 174.21L529.212 207.096L511.487 174.31L508.548 168.211V218H487.388ZM661.022 218H637.822L631.822 198.08H606.835L600.835 218H578.104L607.022 130.24H632.481L661.022 218ZM605.349 196.08H633.309L639.309 216H658.269L631.029 132.24H608.469L580.869 216H599.349L605.349 196.08ZM614.829 163.2L609.669 180.6H628.869L623.709 163.2L619.509 148.8H618.909L614.829 163.2ZM619.232 154.995L616.753 163.745L616.75 163.757L616.746 163.769L612.348 178.6H626.19L621.791 163.769L621.789 163.76L619.232 154.995ZM717.184 218L693.647 177.334L689.017 167.66V218H667.857V130.24H690.93L714.467 170.906L719.097 180.58V130.24H740.257V218H717.184ZM721.097 132.24H738.257V216H718.337L695.417 176.4L687.377 159.6H687.017V216H669.857V132.24H689.777L712.697 171.84L720.737 188.64H721.097V132.24ZM798.349 217.423L798.332 217.428C794.021 218.781 789.174 219.44 783.813 219.44C776.303 219.44 769.746 218.12 764.21 215.394L764.199 215.389C758.877 212.728 754.317 209.345 750.54 205.233L749.25 203.828L764.104 188.826L765.518 190.443C768.147 193.448 771.08 195.664 774.312 197.135C777.645 198.616 781.205 199.36 785.013 199.36C789.278 199.36 792.036 198.475 793.676 197.078C795.355 195.647 796.213 193.782 796.213 191.28C796.213 190.352 796.081 189.528 795.836 188.793L795.806 188.702L795.784 188.61C795.624 187.917 795.321 187.376 794.879 186.934L794.842 186.897L794.807 186.858C794.325 186.323 793.585 185.791 792.492 185.312C791.441 184.853 790.042 184.489 788.245 184.265L788.234 184.263L779.961 183.184C779.96 183.184 779.958 183.184 779.957 183.184C775.424 182.606 771.405 181.61 767.927 180.168L767.919 180.164L767.911 180.161C764.517 178.718 761.65 176.865 759.359 174.574L759.346 174.561L759.332 174.547C757.063 172.19 755.354 169.475 754.218 166.416C753.082 163.358 752.533 159.956 752.533 156.24C752.533 152.218 753.305 148.489 754.877 145.082C756.44 141.696 758.659 138.782 761.519 136.355L761.53 136.346L761.542 136.336C764.49 133.908 768.047 132.077 772.17 130.813C776.319 129.461 780.927 128.8 785.973 128.8C792.502 128.8 798.332 129.833 803.422 131.954C808.495 134.068 812.862 137.161 816.503 141.226L817.76 142.629L802.791 157.745L801.378 156.106C799.56 153.997 797.334 152.277 794.679 150.949L794.649 150.934L794.619 150.918C792.198 149.603 788.993 148.88 784.893 148.88C780.983 148.88 778.443 149.582 776.942 150.663C775.487 151.71 774.773 153.094 774.773 155.04C774.773 156.288 774.945 157.264 775.23 158.016C775.511 158.682 775.931 159.271 776.511 159.793C777.091 160.315 777.855 160.791 778.845 161.194C779.976 161.542 781.357 161.834 783.003 162.058L783.026 162.061L791.342 163.387C795.768 164.125 799.644 165.199 802.944 166.635C806.327 167.991 809.189 169.796 811.479 172.078C813.858 174.288 815.622 176.942 816.766 180.017C817.908 183.009 818.453 186.417 818.453 190.2C818.453 194.445 817.688 198.396 816.131 202.028C814.572 205.668 812.271 208.794 809.246 211.389C806.293 213.992 802.649 215.99 798.366 217.417L798.349 217.423ZM807.933 209.88C810.733 207.48 812.853 204.6 814.293 201.24C815.733 197.88 816.453 194.2 816.453 190.2C816.453 186.6 815.933 183.44 814.893 180.72C813.853 177.92 812.253 175.52 810.093 173.52C808.013 171.44 805.373 169.76 802.173 168.48C799.053 167.12 795.333 166.08 791.013 165.36L782.733 164.04C780.973 163.8 779.453 163.48 778.173 163.08C776.973 162.6 775.973 162 775.173 161.28C774.373 160.56 773.773 159.72 773.373 158.76C772.973 157.72 772.773 156.48 772.773 155.04C772.773 152.48 773.773 150.48 775.773 149.04C777.773 147.6 780.813 146.88 784.893 146.88C789.213 146.88 792.773 147.64 795.573 149.16C797.824 150.286 799.807 151.68 801.521 153.344C801.999 153.808 802.457 154.294 802.893 154.8L815.013 142.56C811.573 138.72 807.453 135.8 802.653 133.8C797.853 131.8 792.293 130.8 785.973 130.8C781.093 130.8 776.693 131.44 772.773 132.72C768.853 133.92 765.533 135.64 762.813 137.88C760.173 140.12 758.133 142.8 756.693 145.92C755.253 149.04 754.533 152.48 754.533 156.24C754.533 159.76 755.053 162.92 756.093 165.72C757.133 168.52 758.693 171 760.773 173.16C762.853 175.24 765.493 176.96 768.693 178.32C771.973 179.68 775.813 180.64 780.213 181.2L788.493 182.28C790.413 182.52 792.013 182.92 793.293 183.48C794.573 184.04 795.573 184.72 796.293 185.52C797.013 186.24 797.493 187.12 797.733 188.16C798.053 189.12 798.213 190.16 798.213 191.28C798.213 194.32 797.133 196.76 794.973 198.6C792.813 200.44 789.493 201.36 785.013 201.36C780.933 201.36 777.093 200.56 773.493 198.96C770.533 197.614 767.827 195.703 765.376 193.226C764.913 192.758 764.458 192.269 764.013 191.76L752.013 203.88C755.613 207.8 759.973 211.04 765.093 213.6C770.293 216.16 776.533 217.44 783.813 217.44C789.013 217.44 793.653 216.8 797.733 215.52C801.813 214.16 805.213 212.28 807.933 209.88Z" fill="black"/>
</svg>
