<svg width="909" height="49" viewBox="0 0 909 49" fill="none" xmlns="http://www.w3.org/2000/svg">
<path d="M43.5913 47.0001L29.0633 2.32806H17.0313L2.31128 47.0001H12.1673L15.3673 36.3761H30.2793L33.4793 47.0001H43.5913ZM27.9113 28.1201H17.6713L20.4233 18.8401L22.5993 11.1601H22.9193L25.1593 18.8401L27.9113 28.1201Z" fill="black"/>
<path d="M59.4998 47.0001V30.8721H70.8918C72.9825 30.8721 74.8598 30.5307 76.5238 29.8481C78.1878 29.1227 79.5958 28.1414 80.7478 26.9041C81.9425 25.6667 82.8598 24.1734 83.4998 22.4241C84.1398 20.6321 84.4598 18.6907 84.4598 16.6001C84.4598 14.4667 84.1398 12.5254 83.4998 10.7761C82.8598 9.02672 81.9425 7.53339 80.7478 6.29606C79.5958 5.05873 78.1878 4.09873 76.5238 3.41606C74.8598 2.69073 72.9825 2.32806 70.8918 2.32806H49.7718V47.0001H59.4998ZM59.4998 10.7761H69.7398C70.4651 10.7761 71.1051 10.8827 71.6598 11.0961C72.2571 11.2667 72.7478 11.5441 73.1318 11.9281C73.5584 12.2694 73.8784 12.7174 74.0918 13.2721C74.3051 13.8267 74.4118 14.4667 74.4118 15.1921V18.0081C74.4118 18.7334 74.3051 19.3734 74.0918 19.9281C73.8784 20.4827 73.5584 20.9521 73.1318 21.3361C72.7478 21.6774 72.2571 21.9547 71.6598 22.1681C71.1051 22.3387 70.4651 22.4241 69.7398 22.4241H59.4998V10.7761Z" fill="black"/>
<path d="M101.5 47.0001V30.8721H112.892C114.982 30.8721 116.86 30.5307 118.524 29.8481C120.188 29.1227 121.596 28.1414 122.748 26.9041C123.942 25.6667 124.86 24.1734 125.5 22.4241C126.14 20.6321 126.46 18.6907 126.46 16.6001C126.46 14.4667 126.14 12.5254 125.5 10.7761C124.86 9.02672 123.942 7.53339 122.748 6.29606C121.596 5.05873 120.188 4.09873 118.524 3.41606C116.86 2.69073 114.982 2.32806 112.892 2.32806H91.7718V47.0001H101.5ZM101.5 10.7761H111.74C112.465 10.7761 113.105 10.8827 113.66 11.0961C114.257 11.2667 114.748 11.5441 115.132 11.9281C115.558 12.2694 115.878 12.7174 116.092 13.2721C116.305 13.8267 116.412 14.4667 116.412 15.1921V18.0081C116.412 18.7334 116.305 19.3734 116.092 19.9281C115.878 20.4827 115.558 20.9521 115.132 21.3361C114.748 21.6774 114.257 21.9547 113.66 22.1681C113.105 22.3387 112.465 22.4241 111.74 22.4241H101.5V10.7761Z" fill="black"/>
<path d="M160.524 47.0001V38.3601H143.5V2.32806H133.772V47.0001H160.524Z" fill="black"/>
<path d="M188.445 47.0001V29.4641L203.741 2.32806H193.181L183.965 20.1201H183.837L174.237 2.32806H163.357L178.653 29.5281V47.0001H188.445Z" fill="black"/>
<path d="M255.117 10.9681V2.32806H221.197V10.9681H233.293V47.0001H243.021V10.9681H255.117Z" fill="black"/>
<path d="M279.692 47.7681C282.636 47.7681 285.324 47.2774 287.756 46.2961C290.188 45.3147 292.257 43.8641 293.964 41.9441C295.67 39.9814 296.993 37.5707 297.932 34.7121C298.87 31.8107 299.34 28.4614 299.34 24.6641C299.34 20.8667 298.87 17.5387 297.932 14.6801C296.993 11.7787 295.67 9.36806 293.964 7.44806C292.257 5.48539 290.188 4.01339 287.756 3.03206C285.324 2.05073 282.636 1.56006 279.692 1.56006C276.748 1.56006 274.06 2.05073 271.628 3.03206C269.196 4.01339 267.126 5.48539 265.42 7.44806C263.713 9.36806 262.39 11.7787 261.452 14.6801C260.513 17.5387 260.044 20.8667 260.044 24.6641C260.044 28.4614 260.513 31.8107 261.452 34.7121C262.39 37.5707 263.713 39.9814 265.42 41.9441C267.126 43.8641 269.196 45.3147 271.628 46.2961C274.06 47.2774 276.748 47.7681 279.692 47.7681ZM279.692 39.1281C278.241 39.1281 276.94 38.8934 275.788 38.4241C274.636 37.9121 273.654 37.1867 272.844 36.2481C272.033 35.2667 271.414 34.0934 270.988 32.7281C270.561 31.3627 270.348 29.7841 270.348 27.9921V21.3361C270.348 19.5441 270.561 17.9654 270.988 16.6001C271.414 15.2347 272.033 14.0827 272.844 13.1441C273.654 12.1627 274.636 11.4374 275.788 10.9681C276.94 10.4561 278.241 10.2001 279.692 10.2001C281.142 10.2001 282.444 10.4561 283.596 10.9681C284.748 11.4374 285.729 12.1627 286.54 13.1441C287.35 14.0827 287.969 15.2347 288.396 16.6001C288.822 17.9654 289.036 19.5441 289.036 21.3361V27.9921C289.036 29.7841 288.822 31.3627 288.396 32.7281C287.969 34.0934 287.35 35.2667 286.54 36.2481C285.729 37.1867 284.748 37.9121 283.596 38.4241C282.444 38.8934 281.142 39.1281 279.692 39.1281Z" fill="black"/>
<path d="M339.032 2.32806V33.6241C339.032 35.5441 338.52 36.9521 337.496 37.8481C336.515 38.7441 335.32 39.1921 333.912 39.1921C332.419 39.1921 331.203 38.7014 330.264 37.7201C329.326 36.7387 328.686 35.2881 328.344 33.3681L319.256 35.1601C319.598 37.0374 320.131 38.7441 320.856 40.2801C321.624 41.8161 322.606 43.1387 323.8 44.2481C325.038 45.3574 326.488 46.2107 328.152 46.8081C329.859 47.4054 331.822 47.7041 334.04 47.7041C336.344 47.7041 338.392 47.3841 340.184 46.7441C342.019 46.0614 343.576 45.1441 344.856 43.9921C346.136 42.7974 347.096 41.3681 347.736 39.7041C348.419 37.9974 348.76 36.1201 348.76 34.0721V2.32806H339.032Z" fill="black"/>
<path d="M376.254 47.7681C379.198 47.7681 381.886 47.2774 384.318 46.2961C386.75 45.3147 388.82 43.8641 390.526 41.9441C392.233 39.9814 393.556 37.5707 394.494 34.7121C395.433 31.8107 395.902 28.4614 395.902 24.6641C395.902 20.8667 395.433 17.5387 394.494 14.6801C393.556 11.7787 392.233 9.36806 390.526 7.44806C388.82 5.48539 386.75 4.01339 384.318 3.03206C381.886 2.05073 379.198 1.56006 376.254 1.56006C373.31 1.56006 370.622 2.05073 368.19 3.03206C365.758 4.01339 363.689 5.48539 361.982 7.44806C360.276 9.36806 358.953 11.7787 358.014 14.6801C357.076 17.5387 356.606 20.8667 356.606 24.6641C356.606 28.4614 357.076 31.8107 358.014 34.7121C358.953 37.5707 360.276 39.9814 361.982 41.9441C363.689 43.8641 365.758 45.3147 368.19 46.2961C370.622 47.2774 373.31 47.7681 376.254 47.7681ZM376.254 39.1281C374.804 39.1281 373.502 38.8934 372.35 38.4241C371.198 37.9121 370.217 37.1867 369.406 36.2481C368.596 35.2667 367.977 34.0934 367.55 32.7281C367.124 31.3627 366.91 29.7841 366.91 27.9921V21.3361C366.91 19.5441 367.124 17.9654 367.55 16.6001C367.977 15.2347 368.596 14.0827 369.406 13.1441C370.217 12.1627 371.198 11.4374 372.35 10.9681C373.502 10.4561 374.804 10.2001 376.254 10.2001C377.705 10.2001 379.006 10.4561 380.158 10.9681C381.31 11.4374 382.292 12.1627 383.102 13.1441C383.913 14.0827 384.532 15.2347 384.958 16.6001C385.385 17.9654 385.598 19.5441 385.598 21.3361V27.9921C385.598 29.7841 385.385 31.3627 384.958 32.7281C384.532 34.0934 383.913 35.2667 383.102 36.2481C382.292 37.1867 381.31 37.9121 380.158 38.4241C379.006 38.8934 377.705 39.1281 376.254 39.1281Z" fill="black"/>
<path d="M417.782 47.0001V2.32806H408.054V47.0001H417.782Z" fill="black"/>
<path d="M457.503 47.0001H468.127V2.32806H458.975V23.0641V32.4081H458.783L454.495 23.4481L442.271 2.32806H431.647V47.0001H440.799V26.2641V16.9201H440.991L445.279 25.8801L457.503 47.0001Z" fill="black"/>
<path d="M511.004 47.7681C513.948 47.7681 516.636 47.2774 519.068 46.2961C521.5 45.3147 523.57 43.8641 525.276 41.9441C526.983 39.9814 528.306 37.5707 529.244 34.7121C530.183 31.8107 530.652 28.4614 530.652 24.6641C530.652 20.8667 530.183 17.5387 529.244 14.6801C528.306 11.7787 526.983 9.36806 525.276 7.44806C523.57 5.48539 521.5 4.01339 519.068 3.03206C516.636 2.05073 513.948 1.56006 511.004 1.56006C508.06 1.56006 505.372 2.05073 502.94 3.03206C500.508 4.01339 498.439 5.48539 496.732 7.44806C495.026 9.36806 493.703 11.7787 492.764 14.6801C491.826 17.5387 491.356 20.8667 491.356 24.6641C491.356 28.4614 491.826 31.8107 492.764 34.7121C493.703 37.5707 495.026 39.9814 496.732 41.9441C498.439 43.8641 500.508 45.3147 502.94 46.2961C505.372 47.2774 508.06 47.7681 511.004 47.7681ZM511.004 39.1281C509.554 39.1281 508.252 38.8934 507.1 38.4241C505.948 37.9121 504.967 37.1867 504.156 36.2481C503.346 35.2667 502.727 34.0934 502.3 32.7281C501.874 31.3627 501.66 29.7841 501.66 27.9921V21.3361C501.66 19.5441 501.874 17.9654 502.3 16.6001C502.727 15.2347 503.346 14.0827 504.156 13.1441C504.967 12.1627 505.948 11.4374 507.1 10.9681C508.252 10.4561 509.554 10.2001 511.004 10.2001C512.455 10.2001 513.756 10.4561 514.908 10.9681C516.06 11.4374 517.042 12.1627 517.852 13.1441C518.663 14.0827 519.282 15.2347 519.708 16.6001C520.135 17.9654 520.348 19.5441 520.348 21.3361V27.9921C520.348 29.7841 520.135 31.3627 519.708 32.7281C519.282 34.0934 518.663 35.2667 517.852 36.2481C517.042 37.1867 516.06 37.9121 514.908 38.4241C513.756 38.8934 512.455 39.1281 511.004 39.1281Z" fill="black"/>
<path d="M538.516 2.32806V28.6961C538.516 31.9814 538.814 34.8401 539.412 37.2721C540.052 39.6614 541.076 41.6454 542.484 43.2241C543.892 44.7601 545.705 45.9121 547.924 46.6801C550.142 47.4054 552.852 47.7681 556.052 47.7681C559.252 47.7681 561.961 47.4054 564.18 46.6801C566.398 45.9121 568.212 44.7601 569.62 43.2241C571.028 41.6454 572.03 39.6614 572.628 37.2721C573.268 34.8401 573.588 31.9814 573.588 28.6961V2.32806H564.116V29.7201C564.116 31.2987 563.966 32.6854 563.668 33.8801C563.369 35.0321 562.9 36.0134 562.26 36.8241C561.62 37.5921 560.788 38.1681 559.764 38.5521C558.74 38.9361 557.502 39.1281 556.052 39.1281C554.601 39.1281 553.364 38.9361 552.34 38.5521C551.316 38.1681 550.484 37.5921 549.844 36.8241C549.204 36.0134 548.734 35.0321 548.436 33.8801C548.137 32.6854 547.988 31.2987 547.988 29.7201V2.32806H538.516Z" fill="black"/>
<path d="M592.937 30.6161H599.913L607.721 47.0001H618.537L609.769 29.4641C612.5 28.4401 614.527 26.7974 615.849 24.5361C617.215 22.2747 617.897 19.6294 617.897 16.6001C617.897 14.4667 617.577 12.5254 616.937 10.7761C616.297 9.02672 615.38 7.53339 614.185 6.29606C613.033 5.01606 611.625 4.03473 609.961 3.35206C608.297 2.66939 606.441 2.32806 604.393 2.32806H583.209V47.0001H592.937V30.6161ZM592.937 22.4241V10.7761H603.177C603.903 10.7761 604.543 10.8827 605.097 11.0961C605.695 11.2667 606.185 11.5441 606.569 11.9281C606.996 12.2694 607.316 12.7174 607.529 13.2721C607.743 13.8267 607.849 14.4667 607.849 15.1921V18.0081C607.849 18.7334 607.743 19.3734 607.529 19.9281C607.316 20.4827 606.996 20.9521 606.569 21.3361C606.185 21.6774 605.695 21.9547 605.097 22.1681C604.543 22.3387 603.903 22.4241 603.177 22.4241H592.937Z" fill="black"/>
<path d="M651.187 47.0001V30.8721H662.579C664.67 30.8721 666.547 30.5307 668.211 29.8481C669.875 29.1227 671.283 28.1414 672.435 26.9041C673.63 25.6667 674.547 24.1734 675.187 22.4241C675.827 20.6321 676.147 18.6907 676.147 16.6001C676.147 14.4667 675.827 12.5254 675.187 10.7761C674.547 9.02672 673.63 7.53339 672.435 6.29606C671.283 5.05873 669.875 4.09873 668.211 3.41606C666.547 2.69073 664.67 2.32806 662.579 2.32806H641.459V47.0001H651.187ZM651.187 10.7761H661.427C662.153 10.7761 662.793 10.8827 663.347 11.0961C663.945 11.2667 664.435 11.5441 664.819 11.9281C665.246 12.2694 665.566 12.7174 665.779 13.2721C665.993 13.8267 666.099 14.4667 666.099 15.1921V18.0081C666.099 18.7334 665.993 19.3734 665.779 19.9281C665.566 20.4827 665.246 20.9521 664.819 21.3361C664.435 21.6774 663.945 21.9547 663.347 22.1681C662.793 22.3387 662.153 22.4241 661.427 22.4241H651.187V10.7761Z" fill="black"/>
<path d="M693.187 30.6161H700.163L707.971 47.0001H718.787L710.019 29.4641C712.75 28.4401 714.777 26.7974 716.099 24.5361C717.465 22.2747 718.147 19.6294 718.147 16.6001C718.147 14.4667 717.827 12.5254 717.187 10.7761C716.547 9.02672 715.63 7.53339 714.435 6.29606C713.283 5.01606 711.875 4.03473 710.211 3.35206C708.547 2.66939 706.691 2.32806 704.643 2.32806H683.459V47.0001H693.187V30.6161ZM693.187 22.4241V10.7761H703.427C704.153 10.7761 704.793 10.8827 705.347 11.0961C705.945 11.2667 706.435 11.5441 706.819 11.9281C707.246 12.2694 707.566 12.7174 707.779 13.2721C707.993 13.8267 708.099 14.4667 708.099 15.1921V18.0081C708.099 18.7334 707.993 19.3734 707.779 19.9281C707.566 20.4827 707.246 20.9521 706.819 21.3361C706.435 21.6774 705.945 21.9547 705.347 22.1681C704.793 22.3387 704.153 22.4241 703.427 22.4241H693.187Z" fill="black"/>
<path d="M740.344 47.0001V2.32806H730.616V47.0001H740.344Z" fill="black"/>
<path d="M775.457 47.0001L789.985 2.32806H780.449L773.793 23.7681L770.401 37.7841H770.209L766.689 23.7681L760.033 2.32806H750.177L764.577 47.0001H775.457Z" fill="black"/>
<path d="M833.466 47.0001L818.938 2.32806H806.906L792.186 47.0001H802.042L805.242 36.3761H820.154L823.354 47.0001H833.466ZM817.786 28.1201H807.546L810.298 18.8401L812.474 11.1601H812.794L815.034 18.8401L817.786 28.1201Z" fill="black"/>
<path d="M870.367 10.9681V2.32806H836.447V10.9681H848.543V47.0001H858.271V10.9681H870.367Z" fill="black"/>
<path d="M907.422 47.0001V38.3601H886.75V28.6961H904.478V20.1201H886.75V10.9681H907.422V2.32806H877.022V47.0001H907.422Z" fill="black"/>
<path fill-rule="evenodd" clip-rule="evenodd" d="M44.9681 48.0001H32.7362L29.5362 37.3761H16.1105L12.9105 48.0001H0.928955L16.308 1.32806H29.7897L44.9681 48.0001ZM15.3674 36.3761H30.2794L33.4794 47.0001H43.5914L29.0634 2.32806H17.0314L2.31136 47.0001H12.1674L15.3674 36.3761ZM20.4234 18.8401L17.6714 28.1201H27.9114L25.1594 18.8401L22.9194 11.1601H22.5994L20.4234 18.8401ZM22.771 14.2227L21.3822 19.1244L19.011 27.1201H26.5718L24.1993 19.1201L22.771 14.2227ZM60.4999 48.0001H48.7719V1.32806H70.8919C73.0953 1.32806 75.1083 1.70996 76.9135 2.49505C78.6953 3.22758 80.2205 4.26404 81.4737 5.6081C82.7699 6.95261 83.7562 8.56618 84.439 10.4325C85.1246 12.3066 85.4599 14.3663 85.4599 16.6001C85.4599 18.7941 85.1238 20.8503 84.4416 22.7604L84.439 22.7677C83.7562 24.6339 82.77 26.2474 81.4737 27.592C80.2227 28.9338 78.7009 29.99 76.9234 30.7648L76.9135 30.7691L76.9034 30.7732C75.1011 31.5127 73.0918 31.8721 70.8919 31.8721H60.4999V48.0001ZM80.7479 26.9041C81.9425 25.6667 82.8599 24.1734 83.4999 22.4241C84.1399 20.6321 84.4599 18.6907 84.4599 16.6001C84.4599 14.4667 84.1399 12.5254 83.4999 10.7761C82.8599 9.02672 81.9425 7.53339 80.7479 6.29606C79.5959 5.05873 78.1879 4.09873 76.5239 3.41606C74.8599 2.69073 72.9825 2.32806 70.8919 2.32806H49.7719V47.0001H59.4999V30.8721H70.8919C72.9825 30.8721 74.8599 30.5307 76.5239 29.8481C78.1879 29.1227 79.5959 28.1414 80.7479 26.9041ZM71.6599 11.0961C71.1052 10.8827 70.4652 10.7761 69.7399 10.7761H59.4999V22.4241H69.7399C70.4652 22.4241 71.1052 22.3387 71.6599 22.1681C72.2572 21.9547 72.7479 21.6774 73.1319 21.3361C73.5585 20.9521 73.8785 20.4827 74.0919 19.9281C74.3052 19.3734 74.4118 18.7334 74.4118 18.0081V15.1921C74.4118 14.4667 74.3052 13.8267 74.0919 13.2721C73.8785 12.7174 73.5585 12.2694 73.1319 11.9281C72.7479 11.5441 72.2572 11.2667 71.6599 11.0961ZM72.4649 20.591C72.7692 20.3166 73 19.9811 73.1585 19.5691C73.3193 19.1511 73.4118 18.6369 73.4118 18.0081V15.1921C73.4118 14.5632 73.3193 14.049 73.1585 13.631C73.0031 13.2269 72.7834 12.9299 72.5072 12.7089L72.4639 12.6743L72.4248 12.6352C72.1773 12.3877 71.8429 12.1884 71.3851 12.0576L71.3424 12.0454L71.3009 12.0294C70.8829 11.8687 70.3687 11.7761 69.7399 11.7761H60.4999V21.4241H69.7399C70.379 21.4241 70.9097 21.3498 71.3448 21.2187C71.8363 21.0407 72.2003 20.8254 72.4649 20.591ZM102.5 48.0001H90.7719V1.32806H112.892C115.095 1.32806 117.108 1.70996 118.914 2.49505C120.695 3.22758 122.221 4.26404 123.474 5.6081C124.77 6.95261 125.756 8.56618 126.439 10.4325C127.125 12.3066 127.46 14.3663 127.46 16.6001C127.46 18.7941 127.124 20.8503 126.442 22.7604L126.439 22.7677C125.756 24.6339 124.77 26.2474 123.474 27.592C122.223 28.9338 120.701 29.99 118.923 30.7648L118.913 30.7691L118.903 30.7732C117.101 31.5127 115.092 31.8721 112.892 31.8721H102.5V48.0001ZM122.748 26.9041C123.943 25.6667 124.86 24.1734 125.5 22.4241C126.14 20.6321 126.46 18.6907 126.46 16.6001C126.46 14.4667 126.14 12.5254 125.5 10.7761C124.86 9.02672 123.943 7.53339 122.748 6.29606C121.596 5.05873 120.188 4.09873 118.524 3.41606C116.86 2.69073 114.983 2.32806 112.892 2.32806H91.7719V47.0001H101.5V30.8721H112.892C114.983 30.8721 116.86 30.5307 118.524 29.8481C120.188 29.1227 121.596 28.1414 122.748 26.9041ZM113.66 11.0961C113.105 10.8827 112.465 10.7761 111.74 10.7761H101.5V22.4241H111.74C112.465 22.4241 113.105 22.3387 113.66 22.1681C114.257 21.9547 114.748 21.6774 115.132 21.3361C115.559 20.9521 115.879 20.4827 116.092 19.9281C116.305 19.3734 116.412 18.7334 116.412 18.0081V15.1921C116.412 14.4667 116.305 13.8267 116.092 13.2721C115.879 12.7174 115.559 12.2694 115.132 11.9281C114.748 11.5441 114.257 11.2667 113.66 11.0961ZM114.465 20.591C114.769 20.3166 115 19.9811 115.159 19.5691C115.319 19.1511 115.412 18.6369 115.412 18.0081V15.1921C115.412 14.5632 115.319 14.049 115.159 13.631C115.003 13.2269 114.783 12.9299 114.507 12.7089L114.464 12.6743L114.425 12.6352C114.177 12.3877 113.843 12.1884 113.385 12.0576L113.342 12.0454L113.301 12.0294C112.883 11.8687 112.369 11.7761 111.74 11.7761H102.5V21.4241H111.74C112.379 21.4241 112.91 21.3498 113.345 21.2187C113.836 21.0407 114.2 20.8254 114.465 20.591ZM161.524 48.0001H132.772V1.32806H144.5V37.3601H161.524V48.0001ZM160.524 38.3601V47.0001H133.772V2.32806H143.5V38.3601H160.524ZM189.445 48.0001H177.653V29.79L161.648 1.32806H174.834L183.885 18.1017L192.573 1.32806H205.453L189.445 29.7265V48.0001ZM193.181 2.32806H203.741L188.445 29.4641V47.0001H178.653V29.5281L163.357 2.32806H174.237L183.837 20.1201H183.965L193.181 2.32806ZM256.117 11.9681H244.021V48.0001H232.293V11.9681H220.197V1.32806H256.117V11.9681ZM221.197 10.9681V2.32806H255.117V10.9681H243.021V47.0001H233.293V10.9681H221.197ZM294.718 42.6002L294.711 42.6085C292.9 44.6462 290.702 46.1856 288.13 47.2234C285.565 48.2583 282.748 48.7681 279.692 48.7681C276.635 48.7681 273.818 48.2583 271.254 47.2234C268.682 46.1856 266.484 44.6462 264.672 42.6084L264.665 42.6003C262.859 40.5225 261.476 37.9897 260.502 35.024L260.5 35.0199C259.523 31.9982 259.044 28.5414 259.044 24.6641C259.044 20.7872 259.523 17.3498 260.502 14.3681C261.474 11.3634 262.857 8.82736 264.669 6.78813C266.479 4.70715 268.678 3.144 271.254 2.10471C273.818 1.06986 276.635 0.560059 279.692 0.560059C282.748 0.560059 285.565 1.06986 288.13 2.10471C290.706 3.144 292.905 4.70715 294.715 6.78813C296.527 8.82832 297.911 11.3657 298.883 14.3722C299.861 17.353 300.34 20.789 300.34 24.6641C300.34 28.5414 299.861 31.9982 298.883 35.0199L298.882 35.024C297.908 37.9897 296.525 40.5225 294.718 42.6002ZM297.932 14.6801C296.993 11.7787 295.671 9.36806 293.964 7.44806C292.257 5.48539 290.188 4.01339 287.756 3.03206C285.324 2.05073 282.636 1.56006 279.692 1.56006C276.748 1.56006 274.06 2.05073 271.628 3.03206C269.196 4.01339 267.127 5.48539 265.42 7.44806C263.713 9.36806 262.391 11.7787 261.452 14.6801C260.513 17.5387 260.044 20.8667 260.044 24.6641C260.044 28.4614 260.513 31.8107 261.452 34.7121C262.391 37.5707 263.713 39.9814 265.42 41.9441C267.127 43.8641 269.196 45.3147 271.628 46.2961C274.06 47.2774 276.748 47.7681 279.692 47.7681C282.636 47.7681 285.324 47.2774 287.756 46.2961C290.188 45.3147 292.257 43.8641 293.964 41.9441C295.671 39.9814 296.993 37.5707 297.932 34.7121C298.871 31.8107 299.34 28.4614 299.34 24.6641C299.34 20.8667 298.871 17.5387 297.932 14.6801ZM275.788 10.9681C274.636 11.4374 273.655 12.1627 272.844 13.1441C272.033 14.0827 271.415 15.2347 270.988 16.6001C270.561 17.9654 270.348 19.5441 270.348 21.3361V27.9921C270.348 29.7841 270.561 31.3627 270.988 32.7281C271.415 34.0934 272.033 35.2667 272.844 36.2481C273.655 37.1867 274.636 37.9121 275.788 38.4241C276.94 38.8934 278.241 39.1281 279.692 39.1281C281.143 39.1281 282.444 38.8934 283.596 38.4241C284.748 37.9121 285.729 37.1867 286.54 36.2481C287.35 35.2667 287.969 34.0934 288.396 32.7281C288.823 31.3627 289.036 29.7841 289.036 27.9921V21.3361C289.036 19.5441 288.823 17.9654 288.396 16.6001C287.969 15.2347 287.35 14.0827 286.54 13.1441C285.729 12.1627 284.748 11.4374 283.596 10.9681C282.444 10.4561 281.143 10.2001 279.692 10.2001C278.241 10.2001 276.94 10.4561 275.788 10.9681ZM285.776 35.6024C286.491 34.7343 287.05 33.6825 287.441 32.4298C287.831 31.1818 288.036 29.7073 288.036 27.9921V21.3361C288.036 19.6208 287.831 18.1463 287.441 16.8983C287.049 15.6438 286.491 14.618 285.783 13.7977L285.776 13.7894L285.769 13.7809C285.061 12.924 284.214 12.2996 283.219 11.8942L283.204 11.8882L283.19 11.8819C282.183 11.4346 281.024 11.2001 279.692 11.2001C278.36 11.2001 277.2 11.4346 276.194 11.8819L276.18 11.8882L276.165 11.8942C275.17 12.2996 274.323 12.924 273.615 13.7809L273.608 13.7894L273.601 13.7977C272.892 14.618 272.334 15.6438 271.942 16.8983C271.552 18.1463 271.348 19.6208 271.348 21.3361V27.9921C271.348 29.7073 271.552 31.1818 271.942 32.4298C272.334 33.6825 272.893 34.7344 273.608 35.6025C274.316 36.42 275.17 37.0526 276.18 37.5038C277.19 37.9131 278.356 38.1281 279.692 38.1281C281.028 38.1281 282.193 37.9131 283.204 37.5038C284.214 37.0525 285.068 36.4199 285.776 35.6024ZM338.032 1.32806H349.76V34.0721C349.76 36.2308 349.401 38.2341 348.667 40.0703C347.974 41.87 346.93 43.4249 345.539 44.7231L345.532 44.7293L345.525 44.7354C344.14 45.9823 342.47 46.9607 340.533 47.6813L340.521 47.6859C338.601 48.3715 336.436 48.7041 334.04 48.7041C331.734 48.7041 329.656 48.3938 327.822 47.7519L327.814 47.7493C326.037 47.1111 324.472 46.1936 323.133 44.9926L323.126 44.9868L323.12 44.9809C321.833 43.7856 320.781 42.3647 319.962 40.7273L319.957 40.7172L319.952 40.7071C319.185 39.0832 318.628 37.2917 318.272 35.3389L318.096 34.3696L329.151 32.1898L329.329 33.193C329.65 34.9996 330.232 36.2395 330.987 37.0288C331.717 37.7922 332.662 38.1921 333.912 38.1921C335.087 38.1921 336.037 37.8267 336.822 37.1096L336.83 37.1024L336.838 37.0955C337.567 36.4574 338.032 35.3783 338.032 33.6241V1.32806ZM347.736 39.7041C348.419 37.9974 348.76 36.1201 348.76 34.0721V2.32806H339.032V33.6241C339.032 35.5441 338.52 36.9521 337.496 37.8481C336.515 38.7441 335.32 39.1921 333.912 39.1921C332.419 39.1921 331.203 38.7014 330.264 37.7201C329.415 36.8323 328.811 35.5606 328.45 33.9048C328.412 33.7301 328.377 33.5512 328.344 33.3681L319.256 35.1601C319.3 35.3999 319.347 35.6369 319.397 35.8712C319.416 35.9612 319.435 36.0508 319.455 36.1401C319.792 37.6357 320.259 39.0157 320.856 40.2801C321.624 41.8161 322.606 43.1387 323.8 44.2481C325.038 45.3574 326.488 46.2107 328.152 46.8081C329.859 47.4054 331.822 47.7041 334.04 47.7041C336.344 47.7041 338.392 47.3841 340.184 46.7441C342.019 46.0614 343.576 45.1441 344.856 43.9921C346.136 42.7974 347.096 41.3681 347.736 39.7041ZM391.281 42.6002L391.274 42.6085C389.462 44.6462 387.264 46.1856 384.693 47.2234C382.128 48.2583 379.311 48.7681 376.254 48.7681C373.198 48.7681 370.381 48.2583 367.816 47.2234C365.244 46.1856 363.046 44.6462 361.235 42.6084L361.228 42.6003C359.421 40.5225 358.038 37.9897 357.064 35.024L357.063 35.0199C356.085 31.9982 355.606 28.5414 355.606 24.6641C355.606 20.7872 356.085 17.3498 357.064 14.3681C358.037 11.3634 359.42 8.82736 361.231 6.78813C363.042 4.70715 365.241 3.144 367.816 2.10471C370.381 1.06986 373.198 0.560059 376.254 0.560059C379.311 0.560059 382.128 1.06986 384.693 2.10471C387.268 3.144 389.467 4.70715 391.278 6.78813C393.09 8.82832 394.473 11.3657 395.446 14.3722C396.424 17.353 396.902 20.789 396.902 24.6641C396.902 28.5414 396.423 31.9982 395.446 35.0199L395.444 35.024C394.471 37.9897 393.088 40.5225 391.281 42.6002ZM394.494 14.6801C393.556 11.7787 392.233 9.36806 390.526 7.44806C388.82 5.48539 386.75 4.01339 384.318 3.03206C381.886 2.05073 379.198 1.56006 376.254 1.56006C373.31 1.56006 370.622 2.05073 368.19 3.03206C365.758 4.01339 363.689 5.48539 361.982 7.44806C360.276 9.36806 358.953 11.7787 358.014 14.6801C357.076 17.5387 356.606 20.8667 356.606 24.6641C356.606 28.4614 357.076 31.8107 358.014 34.7121C358.953 37.5707 360.276 39.9814 361.982 41.9441C363.689 43.8641 365.758 45.3147 368.19 46.2961C370.622 47.2774 373.31 47.7681 376.254 47.7681C379.198 47.7681 381.886 47.2774 384.318 46.2961C386.75 45.3147 388.82 43.8641 390.526 41.9441C392.233 39.9814 393.556 37.5707 394.494 34.7121C395.433 31.8107 395.902 28.4614 395.902 24.6641C395.902 20.8667 395.433 17.5387 394.494 14.6801ZM372.35 10.9681C371.198 11.4374 370.217 12.1627 369.406 13.1441C368.596 14.0827 367.977 15.2347 367.55 16.6001C367.124 17.9654 366.91 19.5441 366.91 21.3361V27.9921C366.91 29.7841 367.124 31.3627 367.55 32.7281C367.977 34.0934 368.596 35.2667 369.406 36.2481C370.217 37.1867 371.198 37.9121 372.35 38.4241C373.502 38.8934 374.804 39.1281 376.254 39.1281C377.705 39.1281 379.006 38.8934 380.158 38.4241C381.31 37.9121 382.292 37.1867 383.102 36.2481C383.913 35.2667 384.532 34.0934 384.958 32.7281C385.385 31.3627 385.598 29.7841 385.598 27.9921V21.3361C385.598 19.5441 385.385 17.9654 384.958 16.6001C384.532 15.2347 383.913 14.0827 383.102 13.1441C382.292 12.1627 381.31 11.4374 380.158 10.9681C379.006 10.4561 377.705 10.2001 376.254 10.2001C374.804 10.2001 373.502 10.4561 372.35 10.9681ZM382.339 35.6024C383.054 34.7343 383.612 33.6825 384.004 32.4298C384.394 31.1818 384.598 29.7073 384.598 27.9921V21.3361C384.598 19.6208 384.394 18.1463 384.004 16.8983C383.612 15.6438 383.054 14.618 382.346 13.7977L382.338 13.7894L382.331 13.7809C381.624 12.924 380.776 12.2996 379.781 11.8942L379.767 11.8882L379.752 11.8819C378.746 11.4346 377.586 11.2001 376.254 11.2001C374.923 11.2001 373.763 11.4346 372.756 11.8819L372.742 11.8882L372.728 11.8942C371.732 12.2996 370.885 12.924 370.177 13.7809L370.17 13.7894L370.163 13.7977C369.455 14.618 368.897 15.6438 368.505 16.8983C368.115 18.1463 367.91 19.6208 367.91 21.3361V27.9921C367.91 29.7073 368.115 31.1818 368.505 32.4298C368.896 33.6825 369.455 34.7344 370.17 35.6025C370.878 36.42 371.732 37.0526 372.742 37.5038C373.753 37.9131 374.918 38.1281 376.254 38.1281C377.59 38.1281 378.756 37.9131 379.767 37.5038C380.777 37.0525 381.631 36.4199 382.339 35.6024ZM418.782 48.0001H407.054V1.32806H418.782V48.0001ZM417.782 2.32806V47.0001H408.054V2.32806H417.782ZM456.926 48.0001L444.394 26.3471L441.799 20.925V48.0001H430.647V1.32806H442.848L455.38 22.981L457.975 28.4032V1.32806H469.127V48.0001H456.926ZM458.975 32.4081H458.783L454.495 23.4481L442.271 2.32806H431.647V47.0001H440.799V16.9201H440.991L445.279 25.8801L457.503 47.0001H468.127V2.32806H458.975V32.4081ZM526.031 42.6002L526.024 42.6085C524.212 44.6462 522.014 46.1856 519.443 47.2234C516.878 48.2583 514.061 48.7681 511.004 48.7681C507.948 48.7681 505.131 48.2583 502.566 47.2234C499.994 46.1856 497.796 44.6462 495.985 42.6084L495.978 42.6003C494.171 40.5225 492.788 37.9897 491.814 35.024L491.813 35.0199C490.835 31.9982 490.356 28.5414 490.356 24.6641C490.356 20.7872 490.835 17.3498 491.814 14.3681C492.787 11.3633 494.169 8.82752 495.981 6.78826C497.792 4.70722 499.99 3.14402 502.566 2.10471C505.131 1.06986 507.948 0.560059 511.004 0.560059C514.061 0.560059 516.878 1.06986 519.443 2.10471C522.018 3.14402 524.217 4.70697 526.028 6.78802C527.839 8.82726 529.222 11.3633 530.194 14.3681C531.174 17.3498 531.652 20.7872 531.652 24.6641C531.652 28.5414 531.173 31.9982 530.196 35.0199L530.194 35.024C529.221 37.9897 527.838 40.5225 526.031 42.6002ZM525.276 7.44806C523.57 5.48539 521.5 4.01339 519.068 3.03206C516.636 2.05073 513.948 1.56006 511.004 1.56006C508.06 1.56006 505.372 2.05073 502.94 3.03206C500.508 4.01339 498.439 5.48539 496.732 7.44806C495.026 9.36806 493.703 11.7787 492.764 14.6801C491.826 17.5387 491.356 20.8667 491.356 24.6641C491.356 28.4614 491.826 31.8107 492.764 34.7121C493.703 37.5707 495.026 39.9814 496.732 41.9441C498.439 43.8641 500.508 45.3147 502.94 46.2961C505.372 47.2774 508.06 47.7681 511.004 47.7681C513.948 47.7681 516.636 47.2774 519.068 46.2961C521.5 45.3147 523.57 43.8641 525.276 41.9441C526.983 39.9814 528.306 37.5707 529.244 34.7121C530.183 31.8107 530.652 28.4614 530.652 24.6641C530.652 20.8667 530.183 17.5387 529.244 14.6801C528.306 11.7787 526.983 9.36806 525.276 7.44806ZM504.156 13.1441C503.346 14.0827 502.727 15.2347 502.3 16.6001C501.874 17.9654 501.66 19.5441 501.66 21.3361V27.9921C501.66 29.7841 501.874 31.3627 502.3 32.7281C502.727 34.0934 503.346 35.2667 504.156 36.2481C504.967 37.1867 505.948 37.9121 507.1 38.4241C508.252 38.8934 509.554 39.1281 511.004 39.1281C512.455 39.1281 513.756 38.8934 514.908 38.4241C516.06 37.9121 517.042 37.1867 517.852 36.2481C518.663 35.2667 519.282 34.0934 519.708 32.7281C520.135 31.3627 520.348 29.7841 520.348 27.9921V21.3361C520.348 19.5441 520.135 17.9654 519.708 16.6001C519.282 15.2347 518.663 14.0827 517.852 13.1441C517.042 12.1627 516.06 11.4374 514.908 10.9681C513.756 10.4561 512.455 10.2001 511.004 10.2001C509.554 10.2001 508.252 10.4561 507.1 10.9681C505.948 11.4374 504.967 12.1627 504.156 13.1441ZM507.492 37.504C508.503 37.9132 509.668 38.1281 511.004 38.1281C512.341 38.1281 513.506 37.9131 514.517 37.5037C515.527 37.0523 516.381 36.4194 517.089 35.6017C517.804 34.7337 518.362 33.6821 518.754 32.4298C519.144 31.1818 519.348 29.7073 519.348 27.9921V21.3361C519.348 19.6208 519.144 18.1463 518.754 16.8983C518.362 15.6438 517.804 14.618 517.096 13.7977L517.088 13.7894L517.081 13.7809C516.373 12.924 515.526 12.2996 514.531 11.8942L514.517 11.8882L514.502 11.8819C513.496 11.4346 512.336 11.2001 511.004 11.2001C509.673 11.2001 508.513 11.4346 507.507 11.8819L507.492 11.8882L507.478 11.8942C506.482 12.2996 505.635 12.924 504.927 13.7809L504.92 13.7894L504.913 13.7977C504.205 14.618 503.647 15.6438 503.255 16.8983C502.865 18.1463 502.66 19.6208 502.66 21.3361V27.9921C502.66 29.7073 502.865 31.1818 503.255 32.4298C503.646 33.6821 504.205 34.7338 504.92 35.6018C505.628 36.4197 506.482 37.0525 507.492 37.504ZM537.516 1.32806H548.988V29.7201C548.988 31.2362 549.131 32.5369 549.405 33.6326C549.673 34.6637 550.083 35.5101 550.621 36.194C551.138 36.8116 551.818 37.2885 552.691 37.6157C553.573 37.9464 554.684 38.1281 556.052 38.1281C557.419 38.1281 558.531 37.9464 559.413 37.6157C560.285 37.2885 560.966 36.8115 561.483 36.1939C562.021 35.51 562.431 34.6634 562.699 33.6322C562.972 32.5366 563.116 31.2362 563.116 29.7201V1.32806H574.588V28.6961C574.588 32.0407 574.263 34.9869 573.596 37.5218C572.966 40.0392 571.897 42.1734 570.366 43.8897L570.357 43.8998C568.823 45.573 566.862 46.8097 564.507 47.625L564.499 47.6279L564.491 47.6306C562.142 48.3983 559.321 48.7681 556.052 48.7681C552.783 48.7681 549.962 48.3983 547.613 47.6306L547.605 47.6279L547.597 47.625C545.241 46.8097 543.281 45.573 541.747 43.8998L541.737 43.8897C540.209 42.1762 539.12 40.0455 538.446 37.5308L538.443 37.5207L538.441 37.5106C537.819 34.9807 537.516 32.0384 537.516 28.6961V1.32806ZM563.668 33.8801C563.369 35.0321 562.9 36.0134 562.26 36.8241C561.62 37.5921 560.788 38.1681 559.764 38.5521C558.74 38.9361 557.503 39.1281 556.052 39.1281C554.601 39.1281 553.364 38.9361 552.34 38.5521C551.316 38.1681 550.484 37.5921 549.844 36.8241C549.204 36.0134 548.735 35.0321 548.436 33.8801C548.137 32.6854 547.988 31.2987 547.988 29.7201V2.32806H538.516V28.6961C538.516 31.9814 538.815 34.8401 539.412 37.2721C540.052 39.6614 541.076 41.6454 542.484 43.2241C543.892 44.7601 545.705 45.9121 547.924 46.6801C550.143 47.4054 552.852 47.7681 556.052 47.7681C559.252 47.7681 561.961 47.4054 564.18 46.6801C566.399 45.9121 568.212 44.7601 569.62 43.2241C571.028 41.6454 572.031 39.6614 572.628 37.2721C573.268 34.8401 573.588 31.9814 573.588 28.6961V2.32806H564.116V29.7201C564.116 31.2987 563.967 32.6854 563.668 33.8801ZM607.721 47.0001L599.913 30.6161H592.937V47.0001H583.209V2.32806H604.393C606.441 2.32806 608.297 2.66939 609.961 3.35206C611.625 4.03473 613.033 5.01606 614.185 6.29606C615.38 7.53339 616.297 9.02672 616.937 10.7761C617.577 12.5254 617.897 14.4667 617.897 16.6001C617.897 19.6294 617.215 22.2747 615.849 24.5361C614.681 26.5338 612.963 28.0486 610.696 29.0807C610.396 29.2169 610.088 29.3447 609.769 29.4641L618.537 47.0001H607.721ZM611.143 29.9756L620.155 48.0001H607.09L599.282 31.6161H593.937V48.0001H582.209V1.32806H604.393C606.554 1.32806 608.541 1.68843 610.341 2.42689C612.132 3.16159 613.662 4.22356 614.916 5.61356C616.21 6.95697 617.195 8.5687 617.877 10.4325C618.562 12.3066 618.897 14.3663 618.897 16.6001C618.897 19.7814 618.18 22.6082 616.71 25.0458C615.432 27.2273 613.561 28.8676 611.143 29.9756ZM605.097 11.0961C604.543 10.8827 603.903 10.7761 603.177 10.7761H592.937V22.4241H603.177C603.903 22.4241 604.543 22.3387 605.097 22.1681C605.695 21.9547 606.185 21.6774 606.569 21.3361C606.996 20.9521 607.316 20.4827 607.529 19.9281C607.743 19.3734 607.849 18.7334 607.849 18.0081V15.1921C607.849 14.4667 607.743 13.8267 607.529 13.2721C607.316 12.7174 606.996 12.2694 606.569 11.9281C606.185 11.5441 605.695 11.2667 605.097 11.0961ZM605.9 20.5928C606.206 20.318 606.437 19.982 606.596 19.5691C606.757 19.1511 606.849 18.6369 606.849 18.0081V15.1921C606.849 14.5632 606.757 14.049 606.596 13.631C606.441 13.2269 606.221 12.9299 605.945 12.7089L605.901 12.6743L605.862 12.6352C605.615 12.3877 605.28 12.1884 604.823 12.0576L604.78 12.0454L604.738 12.0294C604.32 11.8687 603.806 11.7761 603.177 11.7761H593.937V21.4241H603.177C603.817 21.4241 604.347 21.3498 604.782 21.2186C605.273 21.0411 605.636 20.8266 605.9 20.5928ZM652.187 48.0001H640.459V1.32806H662.579C664.783 1.32806 666.796 1.70993 668.601 2.49494C670.383 3.22756 671.908 4.26422 673.162 5.60857C674.458 6.95298 675.444 8.56639 676.127 10.4325C676.812 12.3066 677.147 14.3663 677.147 16.6001C677.147 18.7941 676.811 20.8503 676.129 22.7604L676.127 22.7677C675.444 24.6337 674.458 26.2471 673.162 27.5915C671.91 28.9336 670.389 29.9899 668.611 30.7648L668.601 30.7691L668.591 30.7732C666.789 31.5127 664.779 31.8721 662.579 31.8721H652.187V48.0001ZM672.435 26.9041C673.63 25.6667 674.547 24.1734 675.187 22.4241C675.827 20.6321 676.147 18.6907 676.147 16.6001C676.147 14.4667 675.827 12.5254 675.187 10.7761C674.547 9.02672 673.63 7.53339 672.435 6.29606C671.283 5.05873 669.875 4.09873 668.211 3.41606C666.547 2.69073 664.67 2.32806 662.579 2.32806H641.459V47.0001H651.187V30.8721H662.579C664.67 30.8721 666.547 30.5307 668.211 29.8481C669.875 29.1227 671.283 28.1414 672.435 26.9041ZM663.347 11.0961C662.793 10.8827 662.153 10.7761 661.427 10.7761H651.187V22.4241H661.427C662.153 22.4241 662.793 22.3387 663.347 22.1681C663.945 21.9547 664.435 21.6774 664.819 21.3361C665.246 20.9521 665.566 20.4827 665.779 19.9281C665.993 19.3734 666.099 18.7334 666.099 18.0081V15.1921C666.099 14.4667 665.993 13.8267 665.779 13.2721C665.566 12.7174 665.246 12.2694 664.819 11.9281C664.435 11.5441 663.945 11.2667 663.347 11.0961ZM664.15 20.5928C664.456 20.318 664.687 19.982 664.846 19.5691C665.007 19.1511 665.099 18.6369 665.099 18.0081V15.1921C665.099 14.5632 665.007 14.049 664.846 13.631C664.691 13.2269 664.471 12.9299 664.195 12.7089L664.151 12.6743L664.112 12.6352C663.865 12.3877 663.53 12.1884 663.073 12.0576L663.03 12.0454L662.988 12.0294C662.57 11.8687 662.056 11.7761 661.427 11.7761H652.187V21.4241H661.427C662.067 21.4241 662.597 21.3498 663.032 21.2186C663.523 21.0411 663.886 20.8266 664.15 20.5928ZM707.971 47.0001L700.163 30.6161H693.187V47.0001H683.459V2.32806H704.643C706.691 2.32806 708.547 2.66939 710.211 3.35206C711.875 4.03473 713.283 5.01606 714.435 6.29606C715.63 7.53339 716.547 9.02672 717.187 10.7761C717.827 12.5254 718.147 14.4667 718.147 16.6001C718.147 19.6294 717.465 22.2747 716.099 24.5361C714.931 26.5338 713.213 28.0486 710.946 29.0807C710.646 29.2169 710.338 29.3447 710.019 29.4641L718.787 47.0001H707.971ZM711.393 29.9756L720.405 48.0001H707.34L699.532 31.6161H694.187V48.0001H682.459V1.32806H704.643C706.804 1.32806 708.791 1.68843 710.591 2.42689C712.382 3.16159 713.912 4.22356 715.166 5.61356C716.46 6.95697 717.445 8.5687 718.127 10.4325C718.812 12.3066 719.147 14.3663 719.147 16.6001C719.147 19.7814 718.43 22.6082 716.96 25.0458C715.682 27.2273 713.811 28.8676 711.393 29.9756ZM705.347 11.0961C704.793 10.8827 704.153 10.7761 703.427 10.7761H693.187V22.4241H703.427C704.153 22.4241 704.793 22.3387 705.347 22.1681C705.945 21.9547 706.435 21.6774 706.819 21.3361C707.246 20.9521 707.566 20.4827 707.779 19.9281C707.993 19.3734 708.099 18.7334 708.099 18.0081V15.1921C708.099 14.4667 707.993 13.8267 707.779 13.2721C707.566 12.7174 707.246 12.2694 706.819 11.9281C706.435 11.5441 705.945 11.2667 705.347 11.0961ZM706.15 20.5928C706.456 20.318 706.687 19.982 706.846 19.5691C707.007 19.1511 707.099 18.6369 707.099 18.0081V15.1921C707.099 14.5632 707.007 14.049 706.846 13.631C706.691 13.2269 706.471 12.9299 706.195 12.7089L706.151 12.6743L706.112 12.6352C705.865 12.3877 705.53 12.1884 705.073 12.0576L705.03 12.0454L704.988 12.0294C704.57 11.8687 704.056 11.7761 703.427 11.7761H694.187V21.4241H703.427C704.067 21.4241 704.597 21.3498 705.032 21.2186C705.523 21.0411 705.886 20.8266 706.15 20.5928ZM741.344 48.0001H729.616V1.32806H741.344V48.0001ZM740.344 2.32806V47.0001H730.616V2.32806H740.344ZM776.184 48.0001H763.849L748.804 1.32806H760.77L767.644 23.4716L767.653 23.4978L767.659 23.5245L770.289 33.9963L772.829 23.5019L779.713 1.32806H791.362L776.184 48.0001ZM770.401 37.7841H770.209L766.689 23.7681L760.033 2.32806H750.177L764.577 47.0001H775.457L789.985 2.32806H780.449L773.793 23.7681L770.401 37.7841ZM834.843 48.0001H822.611L819.411 37.3761H805.986L802.786 48.0001H790.804L806.183 1.32806H819.665L834.843 48.0001ZM805.242 36.3761H820.154L823.354 47.0001H833.466L818.938 2.32806H806.906L792.186 47.0001H802.042L805.242 36.3761ZM810.298 18.8401L807.546 28.1201H817.786L815.034 18.8401L812.794 11.1601H812.474L810.298 18.8401ZM812.646 14.2228L811.26 19.1127L811.257 19.1244L808.886 27.1201H816.447L814.074 19.1201L812.646 14.2228ZM871.367 11.9681H859.271V48.0001H847.543V11.9681H835.447V1.32806H871.367V11.9681ZM836.447 10.9681V2.32806H870.367V10.9681H858.271V47.0001H848.543V10.9681H836.447ZM908.422 48.0001H876.022V1.32806H908.422V11.9681H887.75V19.1201H905.478V29.6961H887.75V37.3601H908.422V48.0001ZM907.422 38.3601V47.0001H877.022V2.32806H907.422V10.9681H886.75V20.1201H904.478V28.6961H886.75V38.3601H907.422Z" fill="black"/>
</svg>
