<svg  viewBox="0 0 24 24" xmlns="http://www.w3.org/2000/svg" fill="none"><path stroke-linejoin="round" stroke-linecap="round" stroke-width="2" stroke="#34313c" d="M3.864 21A.866.866 0 0 1 3 20.132V3.868c0-.48.387-.868.864-.868h16.272c.477 0 .864.389.864.868v16.264c0 .48-.387.868-.864.868H3.864z" clip-rule="evenodd"/><path fill="#34313c" d="M18 9.5h-1.992a1 1 0 0 0-1 1v2H18l-.438 3h-2.554V21h-3.291v-5.5H9v-3h2.682l.035-2.846-.01-1.02A2.609 2.609 0 0 1 14.317 6H18v3.5z" clip-rule="evenodd" fill-rule="evenodd"/></svg>
