<svg width="181" height="277" viewBox="0 0 181 277" fill="none" xmlns="http://www.w3.org/2000/svg">
<path d="M142.04 132.37L122.27 188.46L142.04 185.42L129.85 234.02L157.52 171.35L135.09 176.16L142.04 132.37Z" fill="#847E8E"/>
<path d="M180.25 79.6301C179.38 71.9301 173.51 66.8001 172.12 65.6901C171.3 54.4301 168.28 47.0501 163.12 43.7601C161.806 42.9243 160.338 42.3609 158.802 42.1032C157.266 41.8456 155.694 41.8989 154.18 42.2601C143.97 -1.55988 103.36 4.04012 99.5398 4.67012C74.6798 -9.01988 58.0298 11.4601 55.6898 14.5901C40.3898 12.6601 28.3398 15.2401 19.8698 22.2701C9.55979 30.8201 8.15979 42.9401 7.98979 44.9201C2.71979 51.3101 0.389782 57.6201 1.07978 63.6801C1.7341 68.6453 4.2113 73.1897 8.02979 76.4301C9.26979 84.4301 12.5698 90.2501 17.8598 93.5901C25.5698 98.4801 35.0098 96.6901 37.7798 96.0101C38.3993 98.7819 40.0792 101.201 42.4598 102.75C44.9973 104.171 47.9645 104.623 50.8098 104.02L51.1198 104.11C47.8098 115.34 43.8498 129.44 42.4098 137.36C42.3862 137.475 42.3901 137.594 42.4214 137.707C42.4527 137.82 42.5104 137.924 42.5898 138.01C42.6986 138.121 42.8377 138.198 42.9898 138.23C43.146 138.31 43.3103 138.374 43.4798 138.42C43.7451 138.497 44.0159 138.554 44.2898 138.59L43.1498 142.48C42.5698 144.48 43.8198 147.88 45.2498 149.41C45.2498 150.03 45.2498 150.67 45.2498 151.34C45.2498 152.87 45.3398 154.42 45.3998 155.96C45.6298 162.53 45.8698 169.31 44.6398 173.96C42.9498 180.38 28.9198 207.63 28.7698 207.9C28.5806 208.201 28.4845 208.552 28.4934 208.908C28.5022 209.263 28.6158 209.609 28.8198 209.9L28.5198 210.2L28.4398 210.33C27.6958 210.929 27.1317 211.721 26.8098 212.62C26.5067 213.486 26.3884 214.406 26.4624 215.321C26.5365 216.235 26.8013 217.124 27.2398 217.93C27.7483 218.785 28.3199 219.6 28.9498 220.37C29.4415 220.981 29.8989 221.619 30.3198 222.28C30.9395 223.381 31.4135 224.557 31.7298 225.78C31.8898 226.31 32.0498 226.85 32.2398 227.37C33.7298 231.58 37.6098 240.58 43.5598 240.58C44.268 240.573 44.9705 240.452 45.6398 240.22C46.3812 239.972 47.0206 239.487 47.4598 238.84C48.9298 241.71 51.2998 244.36 54.3398 244.36C54.6242 244.36 54.9082 244.34 55.1898 244.3C56.3479 244.122 57.4177 243.575 58.2398 242.74C59.6724 241.306 60.6972 239.516 61.2086 237.555C61.7201 235.593 61.6998 233.531 61.1498 231.58C60.4285 228.701 59.4651 225.887 58.2698 223.17C58.0331 222.615 57.8261 222.047 57.6498 221.47C58.602 220.829 59.4149 220.003 60.0398 219.04C60.7698 217.75 77.8498 187.19 79.4198 178.84C80.1998 174.71 81.7498 161.07 82.7998 151.47C83.1651 151.7 83.5882 151.821 84.0198 151.82C84.2919 151.822 84.5624 151.779 84.8198 151.69C85.2528 151.53 85.6711 151.333 86.0698 151.1C86.0027 151.696 86.1518 152.295 86.4898 152.79C86.7662 153.19 87.1842 153.471 87.6594 153.575C88.1346 153.679 88.6315 153.598 89.0498 153.35C90.8498 152.29 93.0498 149.35 93.0498 147.29V140.68C93.2 140.645 93.3471 140.599 93.4898 140.54C94.5998 140.1 94.9298 139.54 94.9998 139.03C96.3498 132.7 97.6898 126.2 98.8498 119.63C102.437 120.526 106.178 120.622 109.807 119.912C113.436 119.201 116.865 117.702 119.85 115.52C120.181 116.659 120.859 117.666 121.79 118.4C125.34 121.28 132.11 120.7 133.64 120.52C135.33 121.759 137.355 122.456 139.45 122.52C140.197 122.522 140.941 122.417 141.66 122.21C146.28 120.92 149.08 115.92 149.88 114.31C159.34 114.81 166.24 112.78 170.4 108.23C171.935 106.458 173.092 104.391 173.799 102.155C174.506 99.9194 174.748 97.5628 174.51 95.2301C178.94 90.1601 180.84 84.8901 180.25 79.6301ZM51.8598 107.17L46.1798 136.78C45.3298 136.72 44.6298 136.7 44.1798 136.7C45.5598 129.34 48.8698 117.41 51.8598 107.17ZM45.3798 146.73C44.742 145.569 44.4898 144.234 44.6598 142.92L46.0098 138.32H46.1398V138.84C45.7044 141.449 45.4504 144.086 45.3798 146.73ZM42.0398 213.98C41.9711 214.109 41.9399 214.254 41.9498 214.4C41.4333 214.918 41.0431 215.547 40.8098 216.24C39.2698 213.68 37.3598 210.92 34.7498 209.73C33.8398 209.31 32.8403 209.121 31.8398 209.18L34.7198 206.18C35.3764 206.038 36.0504 205.994 36.7198 206.05C39.8798 206.3 42.3598 208.68 43.3198 209.74C42.7951 210.301 42.4067 210.975 42.1847 211.711C41.9627 212.446 41.9132 213.223 42.0398 213.98ZM46.5798 237.48C46.4767 237.795 46.3008 238.082 46.0662 238.317C45.8317 238.551 45.5451 238.727 45.2298 238.83C39.2298 240.83 34.9598 230.24 33.7898 226.93C33.6098 226.42 33.4498 225.93 33.2898 225.4C32.937 224.051 32.4092 222.753 31.7198 221.54C31.2644 220.849 30.7738 220.181 30.2498 219.54C29.6796 218.815 29.168 218.046 28.7198 217.24C28.3915 216.632 28.1926 215.963 28.1358 215.275C28.079 214.586 28.1655 213.893 28.3898 213.24C28.5451 212.756 28.8046 212.311 29.1502 211.938C29.4957 211.565 29.9189 211.272 30.3898 211.08C30.96 210.855 31.5667 210.736 32.1798 210.73C32.8473 210.736 33.5056 210.886 34.1098 211.17C36.3698 212.17 38.1898 214.9 39.5298 217.17C39.8098 217.65 40.1498 218.24 40.5298 218.89C40.736 220.667 41.2255 222.399 41.9798 224.02L42.6298 225.52C44.0972 228.66 45.2851 231.922 46.1798 235.27C46.3256 235.86 46.5059 236.441 46.7198 237.01C46.6598 237.13 46.6298 237.32 46.5798 237.48ZM58.1898 240.32C57.9216 240.973 57.4917 241.547 56.9407 241.987C56.3896 242.428 55.7355 242.722 55.0398 242.84C51.0398 243.49 48.3598 237.73 47.6598 234.84C46.7412 231.408 45.5266 228.062 44.0298 224.84L43.3798 223.34C42.2598 220.71 41.0298 217.01 43.3798 215.17C43.6729 214.949 44.0166 214.804 44.3798 214.75C44.8166 214.682 45.2577 214.645 45.6998 214.64C46.1678 214.639 46.6343 214.693 47.0898 214.8C48.5622 215.258 49.797 216.274 50.5298 217.63C51.6134 219.465 52.524 221.397 53.2498 223.4C54.018 225.482 54.9718 227.49 56.0998 229.4C58.7198 233.46 59.4498 237.53 58.1898 240.32ZM59.7398 232.03C59.9873 233.01 60.1016 234.019 60.0798 235.03C59.6066 232.737 58.7077 230.552 57.4298 228.59C56.3574 226.758 55.4505 224.834 54.7198 222.84C53.9536 220.758 52.9997 218.75 51.8698 216.84C50.9261 215.148 49.3576 213.891 47.4998 213.34C46.6717 213.143 45.8167 213.086 44.9698 213.17L48.7898 209.26C50.0993 209.105 51.4261 209.32 52.6198 209.88C54.2664 210.744 55.633 212.058 56.5598 213.67C55.3998 217.49 55.3098 220.08 56.9498 223.87C58.0986 226.508 59.0252 229.238 59.7198 232.03H59.7398ZM78.0298 178.57C76.6998 185.57 63.3098 210.17 59.7098 216.7C58.8698 214.31 56.9598 210.22 53.2898 208.47C52.1376 207.92 50.8765 207.636 49.5998 207.64C48.5094 207.657 47.4276 207.835 46.3898 208.17C51.1898 200.54 59.8598 181.91 60.5498 178.55C61.8998 171.87 61.6098 162.55 61.1598 154.34C61.1444 154.139 61.0514 153.951 60.9002 153.816C60.7491 153.682 60.5518 153.612 60.3498 153.62C60.2482 153.624 60.1484 153.648 60.0563 153.691C59.9642 153.734 59.8816 153.795 59.8135 153.871C59.7455 153.946 59.6933 154.035 59.66 154.131C59.6267 154.227 59.613 154.329 59.6198 154.43C59.6198 155.16 59.6998 155.9 59.7298 156.65C60.0998 164.19 60.2298 172.32 59.0298 178.24C58.4598 181.1 49.7598 200.01 45.0298 207.49C44.7798 207.89 44.5398 208.25 44.3098 208.58C43.1198 207.3 40.4098 204.85 36.8398 204.58C35.0726 204.445 33.3059 204.846 31.7698 205.73C35.4898 198.41 44.8398 179.78 46.2498 174.41C47.5398 169.56 47.3098 162.96 47.0598 155.98C47.0098 154.44 46.9498 152.9 46.9198 151.37C46.8029 147.437 47.0338 143.502 47.6098 139.61C53.6421 138.343 59.7965 137.749 65.9598 137.84C71.6567 138.004 77.2552 139.367 82.3898 141.84C81.9698 145.94 79.1498 172.65 78.0298 178.57ZM85.2998 140.57C85.4225 140.915 85.573 141.249 85.7498 141.57C85.5398 142.01 85.3298 142.44 85.0998 142.85C84.7115 143.486 84.2294 144.059 83.6698 144.55C83.7498 143.75 83.8198 143.07 83.8798 142.55C84.4147 141.922 84.8901 141.246 85.2998 140.53V140.57ZM83.4198 146.84C83.5182 146.719 83.6251 146.606 83.7398 146.5C83.9098 146.33 84.0898 146.17 84.2698 146.01C85.1284 145.302 85.8649 144.457 86.4498 143.51C86.5698 143.29 86.6798 143.05 86.7998 142.82L86.9498 143C86.7895 143.521 86.5992 144.032 86.3798 144.53C85.9952 145.407 85.4452 146.201 84.7598 146.87C84.4895 147.112 84.1984 147.329 83.8898 147.52C83.6998 147.65 83.4898 147.79 83.2998 147.94C83.3398 147.59 83.3798 147.22 83.4198 146.84ZM84.4198 150.23C84.1498 150.32 83.7398 150.23 83.6698 150.1C83.6424 150.001 83.6408 149.897 83.6654 149.797C83.6899 149.697 83.7396 149.605 83.8098 149.53C84.0905 149.272 84.3952 149.041 84.7198 148.84C85.1003 148.599 85.4613 148.328 85.7998 148.03C86.6384 147.221 87.3169 146.261 87.7998 145.2L88.0398 144.61C88.388 145.201 88.5902 145.866 88.6298 146.55C87.6379 148.187 86.1688 149.482 84.4198 150.26V150.23ZM91.6098 147.28C91.6098 148.74 89.7898 151.18 88.3898 152.01C88.302 152.062 88.1973 152.078 88.0983 152.053C87.9992 152.029 87.9136 151.967 87.8598 151.88C87.4998 151.38 87.6998 150.34 88.9698 149.24C89.3353 148.928 89.631 148.542 89.8377 148.108C90.0444 147.674 90.1576 147.201 90.1698 146.72C90.2398 144.72 88.8498 142.67 87.5298 141.35C87.0272 140.74 86.6836 140.015 86.5298 139.24C88.1421 138.571 89.9276 138.441 91.6198 138.87L91.6098 147.28ZM93.7798 137.84C89.3798 136.41 86.5598 137.26 84.8298 138.45C86.3357 131.952 87.4312 125.366 88.1098 118.73L88.7298 113.73C89.7298 105.91 90.3998 100.27 91.8898 91.5401C91.907 91.4403 91.9044 91.3381 91.882 91.2393C91.8596 91.1405 91.818 91.0471 91.7595 90.9644C91.7009 90.8817 91.6267 90.8114 91.5409 90.7575C91.4552 90.7035 91.3597 90.6671 91.2598 90.6501C91.1598 90.6315 91.0571 90.6331 90.9578 90.6549C90.8585 90.6767 90.7646 90.7182 90.6816 90.777C90.5986 90.8357 90.5283 90.9105 90.4747 90.9969C90.4212 91.0834 90.3855 91.1797 90.3698 91.2801C88.8698 100.04 88.1698 105.7 87.1998 113.54L86.5798 118.54C85.7198 125.84 84.7198 133.34 82.7198 140.32C82.1998 140.07 81.4698 139.72 80.5298 139.32L79.9798 139.11C79.6698 138.98 79.3298 138.86 78.9798 138.73C78.6298 138.6 78.1198 138.43 77.6498 138.29C72.8444 136.77 67.8299 136.014 62.7898 136.05C57.7091 136.068 52.6492 136.7 47.7198 137.93V137.14L54.2798 102.94C54.5398 101.61 54.7698 100.27 54.9998 98.9401C55.4498 96.3401 55.9098 93.6501 56.5598 91.0601C57.8398 85.9901 59.5098 83.3301 61.9698 82.4701L62.3698 82.6301L62.8898 82.8301L63.4698 83.0301L64.0198 83.2001C64.2198 83.2701 64.4398 83.3201 64.6498 83.3801L65.2298 83.5401L65.8998 83.6901L66.5198 83.8201L67.2298 83.9301L67.8898 84.0301L68.6298 84.1001C68.8598 84.1001 69.0898 84.1501 69.3298 84.1601H70.1098H70.8398H71.6698H72.4298L73.2898 84.0901L74.0898 84.0101L74.9898 83.8701C75.2698 83.8701 75.5398 83.8001 75.8198 83.7401C76.0998 83.6801 76.4498 83.6101 76.7598 83.5401L77.6198 83.3501C77.9498 83.2701 78.2898 83.1601 78.6198 83.0701L79.4898 82.8201C79.8398 82.7101 80.1998 82.5801 80.5498 82.4501L81.4298 82.1501L82.5798 81.6701L83.4298 81.3101C83.8698 81.1201 84.3198 80.8901 84.7698 80.6701L85.5098 80.3201C86.2098 79.9501 86.9198 79.5601 87.6498 79.1401C87.7189 79.2874 87.7957 79.4309 87.8798 79.5701L87.9998 79.7701C88.0598 79.8701 88.1098 79.9601 88.1798 80.0601L88.3398 80.3101L88.5398 80.6101L88.7298 80.8601L88.9798 81.1901L89.1998 81.4601C89.2898 81.5701 89.3798 81.6901 89.4798 81.8001L89.7398 82.0801L90.0698 82.4301L90.3598 82.7101L90.7298 83.0601L91.0598 83.3401C91.1998 83.4501 91.3298 83.5701 91.4798 83.6801L91.8498 83.9501L92.3098 84.2801L92.7198 84.5301L93.2298 84.8401L93.6898 85.0801L94.2498 85.3601L94.7498 85.5701L95.3698 85.8201L95.9198 86.0001C96.1398 86.0701 96.3498 86.1501 96.5798 86.2101L97.1798 86.3601L97.8998 86.5201L98.5598 86.6201L99.3298 86.7301C99.5598 86.7301 99.7998 86.7301 100.04 86.7901L100.66 86.8401C100.712 87.0015 100.735 87.1707 100.73 87.3401C100.73 87.9201 100.73 88.5001 100.73 89.0801V89.5801C100.33 105.74 97.1098 122.28 93.7798 137.84ZM169.36 107.18C165.45 111.45 158.79 113.32 149.54 112.73C149.382 112.715 149.223 112.751 149.088 112.834C148.952 112.917 148.848 113.042 148.79 113.19C148.79 113.25 146.05 119.4 141.34 120.72C139.13 121.34 136.79 120.78 134.34 119.08C134.212 118.986 134.058 118.937 133.9 118.94H133.79C133.71 118.94 126.23 119.94 122.79 117.19C122.311 116.812 121.919 116.334 121.641 115.791C121.364 115.247 121.206 114.65 121.18 114.04C121.171 113.893 121.12 113.752 121.033 113.633C120.946 113.515 120.827 113.423 120.69 113.37C120.553 113.321 120.405 113.309 120.263 113.338C120.12 113.366 119.988 113.432 119.88 113.53C117.057 115.921 113.695 117.59 110.084 118.393C106.472 119.197 102.72 119.11 99.1498 118.14C100.852 108.707 101.855 99.161 102.15 89.5801V89.0901C102.15 88.4801 102.15 87.8701 102.15 87.2701C102.15 87.1001 102.15 86.9401 102.15 86.7901C103.37 86.7644 104.587 86.6475 105.79 86.4401C105.991 86.4056 106.171 86.2925 106.289 86.1256C106.407 85.9587 106.454 85.7517 106.42 85.5501C106.385 85.3486 106.272 85.1689 106.105 85.0508C105.938 84.9326 105.731 84.8856 105.53 84.9201C104.041 85.1842 102.531 85.3048 101.02 85.2801C100.445 85.2718 99.8705 85.2317 99.2998 85.1601C99.0698 85.1601 98.8698 85.0901 98.6498 85.0601C98.4298 85.0301 98.0198 84.9701 97.7298 84.9101C97.4398 84.8501 97.0998 84.7501 96.7898 84.6601L96.3198 84.5301C95.9598 84.4201 95.6298 84.2901 95.3198 84.1601L95.0498 84.0601C94.7198 83.9101 94.3998 83.7501 94.0998 83.5901L93.9198 83.5001C93.6298 83.3401 93.3598 83.1701 93.0998 83.0001L92.9098 82.8901L92.2398 82.3901C92.1741 82.3313 92.1039 82.2778 92.0298 82.2301L91.4798 81.7401L91.2698 81.5501C91.1098 81.4001 90.9698 81.2401 90.8198 81.0901C90.6698 80.9401 90.6798 80.9401 90.6198 80.8701L90.2498 80.4301L90.0698 80.2101L89.8398 79.8801L89.6298 79.5901L89.5198 79.4201C89.4293 79.2914 89.3459 79.1578 89.2698 79.0201C89.0214 78.6169 88.8105 78.1918 88.6398 77.7501C88.6015 77.6445 88.54 77.5488 88.4598 77.4701C88.38 77.3864 88.2802 77.3245 88.1698 77.2901C88.0641 77.2497 87.9505 77.2342 87.8378 77.2446C87.7251 77.255 87.6163 77.2911 87.5198 77.3501C86.1675 78.1739 84.7721 78.925 83.3398 79.6001C79.4842 81.4893 75.2624 82.5132 70.9698 82.6001C67.9712 82.6366 64.9979 82.0474 62.2398 80.8701C60.2683 80.0611 58.4593 78.9025 56.8998 77.4501C56.829 77.3772 56.7443 77.3193 56.6506 77.2798C56.557 77.2402 56.4564 77.2198 56.3548 77.2198C56.2532 77.2198 56.1526 77.2402 56.059 77.2798C55.9654 77.3193 55.8806 77.3772 55.8098 77.4501C55.7372 77.5201 55.6795 77.604 55.64 77.6967C55.6006 77.7895 55.5803 77.8893 55.5803 77.9901C55.5803 78.0909 55.6006 78.1907 55.64 78.2835C55.6795 78.3763 55.7372 78.4602 55.8098 78.5301C56.8124 79.5119 57.9385 80.359 59.1598 81.0501C59.0193 81.4805 58.7949 81.8788 58.4997 82.2221C58.2045 82.5653 57.8443 82.8468 57.4398 83.0501C55.7998 83.8301 53.2598 83.3501 50.0798 81.6501C49.8981 81.5546 49.686 81.5352 49.49 81.5962C49.294 81.6571 49.1303 81.7934 49.0348 81.9751C48.9393 82.1568 48.9199 82.3689 48.9809 82.5649C49.0418 82.7609 49.1781 82.9246 49.3598 83.0201C51.2714 84.16 53.4282 84.8252 55.6498 84.9601C56.1804 84.9639 56.7089 84.8932 57.2198 84.7501C56.2254 86.6058 55.4854 88.5869 55.0198 90.6401C54.8198 91.4201 54.6498 92.2101 54.4798 93.0001C53.6798 95.6001 52.6798 98.9101 51.5798 102.6L51.0598 102.46C50.9287 102.425 50.7909 102.425 50.6598 102.46C48.1502 103.006 45.5281 102.633 43.2698 101.41C41.1998 100.13 39.7998 97.9301 39.1098 94.8701C39.0888 94.7629 39.0449 94.6615 38.9811 94.5728C38.9174 94.4841 38.8353 94.4102 38.7404 94.3561C38.6455 94.302 38.54 94.269 38.4312 94.2593C38.3224 94.2497 38.2128 94.2636 38.1098 94.3001C37.9898 94.3001 27.0098 97.5601 18.6598 92.3001C13.7198 89.1601 10.6598 83.6501 9.49979 75.9201C9.46921 75.7206 9.36149 75.541 9.19981 75.4201C5.59965 72.3969 3.24812 68.1464 2.5998 63.4901C1.9598 57.8101 4.21978 51.8301 9.32978 45.7201C9.43545 45.5927 9.49844 45.4353 9.5098 45.2701C9.5098 45.1401 10.3598 32.1501 20.8598 23.4501C29.0698 16.6501 40.8598 14.2101 55.9398 16.1901C56.0898 16.2154 56.244 16.1956 56.3828 16.1333C56.5216 16.071 56.6389 15.969 56.7198 15.8401C56.8898 15.5901 73.4198 -8.15988 99.0698 6.14012C99.2306 6.23116 99.4193 6.25965 99.5998 6.22012C107.256 5.04538 115.075 5.54346 122.52 7.68011C138.52 12.4201 148.7 24.4401 152.89 43.3901C152.913 43.4987 152.96 43.6008 153.027 43.689C153.095 43.7772 153.181 43.8493 153.28 43.9001C153.377 43.9528 153.484 43.9844 153.594 43.9931C153.705 44.0017 153.816 43.987 153.92 43.9501C155.317 43.5094 156.794 43.3794 158.247 43.5695C159.699 43.7595 161.093 44.2648 162.33 45.0501C167.01 48.0501 169.88 55.3401 170.61 66.1301C170.62 66.2412 170.653 66.3491 170.706 66.4471C170.759 66.5451 170.832 66.6312 170.92 66.7001C170.99 66.7001 177.85 71.9101 178.73 79.8001C179.27 84.7101 177.42 89.6701 173.22 94.5401C173.146 94.6261 173.092 94.7269 173.061 94.8356C173.03 94.9443 173.023 95.0583 173.04 95.1701C173.04 95.2401 174.03 102.1 169.36 107.21V107.18Z" fill="#847E8E"/>
<path d="M54.1201 276.03C74.3116 276.03 90.6801 273.057 90.6801 269.39C90.6801 265.723 74.3116 262.75 54.1201 262.75C33.9285 262.75 17.5601 265.723 17.5601 269.39C17.5601 273.057 33.9285 276.03 54.1201 276.03Z" fill="#847E8E"/>
</svg>
