<svg width="22" height="22" viewBox="0 0 22 22" fill="none" xmlns="http://www.w3.org/2000/svg">
<path d="M6.40563 4.77034L10.4679 2.40734C10.7121 2.26476 11.0184 2.44299 11.0184 2.72728V13.5242C11.0184 13.619 10.9166 13.679 10.8346 13.6311L6.40563 11.0543C6.23393 10.9543 6.12866 10.7709 6.12866 10.5718V5.25285C6.12866 5.05376 6.23393 4.86945 6.40563 4.77034Z" fill="#847E8E"/>
<path d="M16.159 10.7578L11.9993 8.33825C11.7551 8.19567 11.4488 8.37389 11.4488 8.65818V13.5294V13.7206C11.4384 13.8719 11.378 13.9875 11.2581 14.0736L11.0208 14.2118C11.013 14.2144 11.0061 14.2171 10.9984 14.2188L11.0165 14.2136L6.89383 16.6122C6.64965 16.7548 6.64965 17.1104 6.89383 17.2521L11.0519 19.6707C11.1657 19.7368 11.3055 19.7368 11.4186 19.6707L15.6698 17.1982C16.0857 16.9565 16.3428 16.5088 16.3428 16.0245V11.0777C16.3428 10.9455 16.272 10.8238 16.159 10.7578Z" fill="#847E8E"/>
</svg>
