<svg width="76" height="22" viewBox="0 0 76 22" fill="none" xmlns="http://www.w3.org/2000/svg">
<g clip-path="url(#clip0_903:5952)">
<path d="M24.3425 4.30322C23.8744 4.30322 23.4944 4.68323 23.4944 5.15129V16.6188C23.4944 17.0868 23.8744 17.4668 24.3425 17.4668C24.8105 17.4668 25.1905 17.0868 25.1905 16.6188V5.15129C25.1905 4.68323 24.8105 4.30322 24.3425 4.30322Z" fill="#847E8E"/>
<path d="M30.8929 6.00165H33.6526C34.1207 6.00165 34.5007 5.62164 34.5007 5.15358C34.5007 4.68552 34.1207 4.30551 33.6526 4.30551H30.8929C29.169 4.30551 27.7671 5.7653 27.7671 7.55876V14.1394C27.7671 15.9352 29.169 17.3927 30.8929 17.3927H33.6526C34.1207 17.3927 34.5007 17.0127 34.5007 16.5446C34.5007 16.0765 34.1207 15.6965 33.6526 15.6965H30.8929C30.1051 15.6965 29.4655 14.9991 29.4655 14.1394V7.55876C29.4655 6.69911 30.1051 6.00165 30.8929 6.00165Z" fill="#847E8E"/>
<path d="M72.9675 15.6942H70.2078C69.42 15.6942 68.7805 14.9968 68.7805 14.1371V7.55647C68.7805 6.69913 69.42 5.99936 70.2078 5.99936H72.9675C73.4356 5.99936 73.8156 5.61935 73.8156 5.15129C73.8156 4.68323 73.4356 4.30322 72.9675 4.30322H70.2078C68.4839 4.30322 67.082 5.76301 67.082 7.55647V14.1371C67.082 15.9329 68.4839 17.3904 70.2078 17.3904H72.9675C73.4356 17.3904 73.8156 17.0104 73.8156 16.5423C73.8179 16.0742 73.4379 15.6942 72.9675 15.6942Z" fill="#847E8E"/>
<path d="M61.0019 4.07144C58.833 4.07144 57.0674 5.83709 57.0674 8.00593V13.7061C57.0674 15.8749 58.833 17.6406 61.0019 17.6406C63.1707 17.6406 64.9364 15.8749 64.9364 13.7061V8.00593C64.9364 5.83709 63.1707 4.07144 61.0019 4.07144ZM63.2379 13.7084C63.2379 14.9411 62.2346 15.9444 60.9996 15.9444C59.7668 15.9444 58.7635 14.9411 58.7635 13.7084V8.00824C58.7635 6.77553 59.7668 5.77221 60.9996 5.77221C62.2323 5.77221 63.2379 6.77553 63.2379 8.00824V13.7084Z" fill="#847E8E"/>
<path d="M41.8808 9.87354L40.6272 11.2569L43.0671 16.9292C43.2062 17.2513 43.519 17.4436 43.848 17.4436C43.9592 17.4436 44.0728 17.4227 44.184 17.3741C44.615 17.1887 44.8142 16.6905 44.6289 16.2595L41.8808 9.87354Z" fill="#847E8E"/>
<path d="M44.4227 4.5303C44.0774 4.21054 43.5422 4.23139 43.2224 4.57664L38.3587 9.83421V5.15129C38.3587 4.68323 37.9787 4.30322 37.5107 4.30322C37.0426 4.30322 36.6626 4.68323 36.6626 5.15129V16.6188C36.6626 17.0868 37.0426 17.4668 37.5107 17.4668C37.9787 17.4668 38.3587 17.0868 38.3587 16.6188V12.3321L44.469 5.72826C44.7864 5.38532 44.7656 4.84775 44.4227 4.5303Z" fill="#847E8E"/>
<path d="M50.8804 4.30322H47.6781C47.2101 4.30322 46.8301 4.68323 46.8301 5.15129V16.6188C46.8301 17.0868 47.2101 17.4668 47.6781 17.4668H50.8804C53.1141 17.4668 54.9331 15.6502 54.9331 13.4142V8.35588C54.9308 6.11985 53.1141 4.30322 50.8804 4.30322ZM53.2346 13.4165C53.2346 14.7141 52.178 15.7707 50.8804 15.7707H48.5262V6.00168H50.8804C52.178 6.00168 53.2346 7.05829 53.2346 8.35588V13.4165Z" fill="#847E8E"/>
<path d="M9.13744 10.1563C9.79319 9.53762 10.2056 8.66406 10.2056 7.69318C10.2056 5.82326 8.6856 4.30322 6.81799 4.30322H3.56242C3.09436 4.30322 2.71436 4.68323 2.71436 5.15129V10.2328V16.6373C2.71436 17.1054 3.09436 17.4854 3.56242 17.4854H6.7647C8.99841 17.4854 10.8174 15.6687 10.8174 13.4327C10.8174 12.0865 10.1523 10.8931 9.13744 10.1563ZM4.41281 6.00168H6.81799C7.7518 6.00168 8.5095 6.7617 8.5095 7.69318C8.5095 8.62467 7.7518 9.38469 6.81799 9.38469H6.76702H4.41281V6.00168ZM6.76702 15.7892H4.41281V11.0831H6.76702C8.06461 11.0831 9.12122 12.1398 9.12122 13.4373C9.1189 14.7326 8.06461 15.7892 6.76702 15.7892Z" fill="#847E8E"/>
<path d="M21.073 8.35588C21.073 6.11985 19.254 4.30322 17.0203 4.30322H13.818C13.35 4.30322 12.97 4.68323 12.97 5.15129V11.5582C12.97 11.6045 12.9839 16.6188 12.9839 16.6188C12.9839 17.0868 13.3639 17.4668 13.8319 17.4668C14.3 17.4668 14.68 17.0868 14.68 16.6188V12.4062H17.0203C17.0759 12.4062 17.1292 12.3993 17.1825 12.397L19.444 17.1007C19.59 17.4043 19.8936 17.5827 20.2087 17.5827C20.3315 17.5827 20.4566 17.5549 20.5771 17.4993C20.9988 17.2954 21.1772 16.7879 20.9733 16.3662L18.8555 11.9613C20.1693 11.2917 21.073 9.92921 21.073 8.35588ZM17.0203 10.7101H14.68V6.00168H17.0203C18.3179 6.00168 19.3745 7.05829 19.3745 8.35588C19.3745 9.65347 18.3179 10.7101 17.0203 10.7101Z" fill="#847E8E"/>
</g>
<defs>
<clipPath id="clip0_903:5952">
<rect width="71.1034" height="13.5714" fill="white" transform="translate(2.71436 4.07144)"/>
</clipPath>
</defs>
</svg>
