<svg width="24" height="24" viewBox="0 0 24 24" fill="none" xmlns="http://www.w3.org/2000/svg">
<path fill-rule="evenodd" clip-rule="evenodd" d="M1 4C1 2.89543 1.89543 2 3 2H21C22.1046 2 23 2.89543 23 4V9C23 10.1046 22.1046 11 21 11H3C1.89543 11 1 10.1046 1 9V4ZM21 4H3V9H21V4Z" fill="#34313C"/>
<path fill-rule="evenodd" clip-rule="evenodd" d="M1 15C1 13.8954 1.89543 13 3 13H21C22.1046 13 23 13.8954 23 15V20C23 21.1046 22.1046 22 21 22H3C1.89543 22 1 21.1046 1 20V15ZM21 15H3V20H21V15Z" fill="#34313C"/>
</svg>
