<svg width="24" height="24" viewBox="0 0 24 24" fill="none" xmlns="http://www.w3.org/2000/svg">
<path fill-rule="evenodd" clip-rule="evenodd" d="M1 4C1 2.89543 1.89543 2 3 2H21C22.1046 2 23 2.89543 23 4V20C23 21.1046 22.1046 22 21 22H3C1.89543 22 1 21.1046 1 20V4ZM21 4H3V20H21V4Z" fill="#34313C"/>
<path fill-rule="evenodd" clip-rule="evenodd" d="M8 9C8 8.44772 8.30526 8 8.68182 8H22.3182C22.6947 8 23 8.44772 23 9C23 9.55228 22.6947 10 22.3182 10H8.68182C8.30526 10 8 9.55228 8 9Z" fill="#34313C"/>
<path fill-rule="evenodd" clip-rule="evenodd" d="M8 15C8 14.4477 8.30526 14 8.68182 14H22.3182C22.6947 14 23 14.4477 23 15C23 15.5523 22.6947 16 22.3182 16H8.68182C8.30526 16 8 15.5523 8 15Z" fill="#34313C"/>
<path fill-rule="evenodd" clip-rule="evenodd" d="M9 3C9.55228 3 10 3.60761 10 4.35714V20.6429C10 21.3924 9.55228 22 9 22C8.44772 22 8 21.3924 8 20.6429V4.35714C8 3.60761 8.44772 3 9 3Z" fill="#34313C"/>
<path fill-rule="evenodd" clip-rule="evenodd" d="M2 3C2.55228 3 3 3.44772 3 4V20H21V4C21 3.44772 21.4477 3 22 3C22.5523 3 23 3.44772 23 4V20C23 21.1046 22.1046 22 21 22H3C1.89543 22 1 21.1046 1 20V4C1 3.44772 1.44772 3 2 3Z" fill="#34313C"/>
</svg>
