<svg  viewBox="0 0 24 24" xmlns="http://www.w3.org/2000/svg" fill="none"><path fill="#34313c" d="M10.607 2H18l-.462 2h-1.956c-.17 0-.29.05-.374.128-.087.08-.162.214-.21.426v.003l-3.444 15.005a1.54 1.54 0 0 0-.04.243c0 .093.023.124.04.14.027.023.091.055.232.055h2.06l-.453 2H6l.462-2h1.956c.17 0 .29-.049.374-.128.087-.08.162-.214.21-.426v-.003l3.444-15.005c.03-.142.04-.228.04-.27 0-.079-.02-.101-.035-.114-.027-.023-.094-.054-.237-.054h-2.06l.453-2z" clip-rule="evenodd" fill-rule="evenodd"/></svg>
