<svg  viewBox="0 0 24 24" xmlns="http://www.w3.org/2000/svg" fill="none"><path fill-opacity=".01" fill="#fff" d="M24 0H0v24h24V0z"/><path stroke-linecap="round" stroke-width="2" stroke="#34313c" d="M10 7V2.5a.5.5 0 0 0-.5-.5h-7a.5.5 0 0 0-.5.5v19a.5.5 0 0 0 .5.5h7a.5.5 0 0 0 .5-.5V17m4 0v4.5a.5.5 0 0 0 .5.5h7a.5.5 0 0 0 .5-.5v-19a.5.5 0 0 0-.5-.5h-7a.5.5 0 0 0-.5.5V7m0 5h8M2.5 12H10"/><path stroke-linejoin="round" stroke-linecap="round" stroke-width="2" stroke="#34313c" d="m16.374 14.41-.795-.796-1.591-1.591 1.59-1.591.796-.796M7.688 14.41l.795-.796 1.591-1.591-1.591-1.591-.796-.796"/></svg>
