<svg xmlns="http://www.w3.org/2000/svg" fill="none" viewBox="0 0 24 24"><path fill-opacity=".01" fill="#fff" d="M24 0H0v24h24V0z"/><path stroke-linejoin="round" stroke-width="2" stroke="#3E3E3E" d="M12 22c2.98 0 1.168-4.432 3-6.5 1.563-1.764 7-.957 7-3.5 0-5.523-4.477-10-10-10S2 6.477 2 12s4.477 10 10 10z"/><path stroke-linejoin="round" stroke-width="2" stroke="#3E3E3E" d="M14 8.5a1.5 1.5 0 1 0 0-3 1.5 1.5 0 0 0 0 3zM8 10.5a1.5 1.5 0 1 0 0-3 1.5 1.5 0 0 0 0 3zM8.5 17a1.5 1.5 0 1 0 0-3 1.5 1.5 0 0 0 0 3z"/></svg>