<svg width="34" height="34" viewBox="0 0 34 34" fill="none" xmlns="http://www.w3.org/2000/svg">
<path d="M1 17C1 8.16344 8.16344 1 17 1V1C25.8366 1 33 8.16344 33 17V17C33 25.8366 25.8366 33 17 33V33C8.16344 33 1 25.8366 1 17V17Z" fill="#F0F0F0" fill-opacity="0.9"/>
<path d="M1 17C1 8.16344 8.16344 1 17 1V1C25.8366 1 33 8.16344 33 17V17C33 25.8366 25.8366 33 17 33V33C8.16344 33 1 25.8366 1 17V17Z" fill="#F8FBFF" fill-opacity="0.36"/>
<path fill-rule="evenodd" clip-rule="evenodd" d="M18.8751 15.6812C18.3201 16.0521 17.6675 16.25 17 16.25C16.1055 16.248 15.2482 15.8918 14.6157 15.2593C13.9832 14.6268 13.627 13.7695 13.625 12.875C13.625 12.2075 13.8229 11.555 14.1938 10.9999C14.5646 10.4449 15.0918 10.0124 15.7085 9.75691C16.3252 9.50146 17.0038 9.43463 17.6584 9.56485C18.3131 9.69508 18.9145 10.0165 19.3865 10.4885C19.8585 10.9605 20.1799 11.5619 20.3102 12.2166C20.4404 12.8712 20.3735 13.5499 20.1181 14.1666C19.8627 14.7833 19.4301 15.3104 18.8751 15.6812ZM18.0417 11.316C17.7334 11.11 17.3708 11 17 11C16.5027 11 16.0258 11.1975 15.6742 11.5492C15.3225 11.9008 15.125 12.3777 15.125 12.875C15.125 13.2458 15.235 13.6084 15.441 13.9167C15.647 14.225 15.9399 14.4654 16.2825 14.6073C16.6251 14.7492 17.0021 14.7863 17.3658 14.714C17.7295 14.6416 18.0636 14.4631 18.3258 14.2008C18.5881 13.9386 18.7666 13.6045 18.839 13.2408C18.9113 12.8771 18.8742 12.5001 18.7323 12.1575C18.5904 11.8149 18.3501 11.522 18.0417 11.316Z" fill="#73707E"/>
<path d="M12.6425 15.875C12.5082 15.8729 12.3766 15.8367 12.26 15.77C11.7774 15.4796 11.3751 15.0731 11.0899 14.5875C10.8046 14.1019 10.6454 13.5526 10.6267 12.9897C10.6081 12.4268 10.7306 11.8682 10.9831 11.3648C11.2357 10.8613 11.6102 10.4291 12.0725 10.1075C12.2348 9.99363 12.4355 9.94864 12.6309 9.98237C12.8262 10.0161 13.0003 10.1258 13.115 10.2875C13.1722 10.3686 13.2127 10.4602 13.2342 10.557C13.2558 10.6538 13.2579 10.754 13.2405 10.8516C13.223 10.9493 13.1864 11.0425 13.1326 11.1259C13.0789 11.2093 13.0092 11.2812 12.9275 11.3375C12.6714 11.5164 12.4641 11.7564 12.3243 12.0358C12.1846 12.3152 12.1168 12.625 12.1273 12.9372C12.1377 13.2494 12.226 13.5541 12.3841 13.8235C12.5422 14.0929 12.7651 14.3186 13.0325 14.48C13.1744 14.5642 13.2846 14.6928 13.346 14.8459C13.4074 14.999 13.4166 15.1681 13.3721 15.327C13.3277 15.4858 13.2322 15.6256 13.1003 15.7247C12.9684 15.8238 12.8075 15.8766 12.6425 15.875Z" fill="#73707E"/>
<path d="M21.0725 14.4125C20.9861 14.4662 20.9114 14.5369 20.8531 14.6203C20.7948 14.7037 20.7542 14.7982 20.7336 14.8978C20.713 14.9975 20.7128 15.1003 20.7332 15.2C20.7536 15.2997 20.7941 15.3943 20.8522 15.4778C20.9103 15.5614 20.9848 15.6323 21.0711 15.6861C21.1575 15.74 21.2539 15.7757 21.3545 15.7911C21.4551 15.8065 21.5578 15.8013 21.6563 15.7757C21.7548 15.7502 21.8471 15.7048 21.9275 15.6425C22.3746 15.3325 22.74 14.9189 22.9923 14.4369C23.2446 13.955 23.3764 13.419 23.3764 12.875C23.3764 12.331 23.2446 11.795 22.9923 11.3131C22.74 10.8311 22.3746 10.4175 21.9275 10.1075C21.8471 10.0452 21.7548 9.99982 21.6563 9.97428C21.5578 9.94873 21.4551 9.94349 21.3545 9.9589C21.2539 9.9743 21.1575 10.01 21.0711 10.0639C20.9848 10.1177 20.9103 10.1886 20.8522 10.2722C20.7941 10.3558 20.7536 10.4503 20.7332 10.55C20.7128 10.6497 20.713 10.7525 20.7336 10.8522C20.7542 10.9518 20.7948 11.0463 20.8531 11.1297C20.9114 11.2131 20.9861 11.2838 21.0725 11.3375C21.3201 11.5103 21.5223 11.7403 21.6619 12.008C21.8014 12.2757 21.8743 12.5731 21.8743 12.875C21.8743 13.1769 21.8014 13.4743 21.6619 13.742C21.5223 14.0097 21.3201 14.2397 21.0725 14.4125Z" fill="#73707E"/>
<path fill-rule="evenodd" clip-rule="evenodd" d="M14.045 18.035C15.9841 17.655 17.9784 17.655 19.9175 18.035C20.8367 18.4139 21.5677 19.1423 21.95 20.06C22.2314 21.0129 22.3281 22.0108 22.235 23V23.75C22.235 23.9489 22.156 24.1397 22.0153 24.2803C21.8747 24.421 21.6839 24.5 21.485 24.5H12.485C12.2861 24.5 12.0953 24.421 11.9547 24.2803C11.814 24.1397 11.735 23.9489 11.735 23.75V23C11.6419 22.0108 11.7386 21.0129 12.02 20.06C12.4005 19.1437 13.1287 18.4155 14.045 18.035ZM13.4075 20.6375C13.2252 21.4109 13.167 22.2083 13.235 23H20.735C20.803 22.2083 20.7448 21.4109 20.5625 20.6375C20.3342 20.0877 19.8973 19.6508 19.3475 19.4225C17.7809 19.1925 16.1891 19.1925 14.6225 19.4225C14.0727 19.6508 13.6358 20.0877 13.4075 20.6375Z" fill="#73707E"/>
<path d="M24.8375 19.7975C24.4796 19.0911 23.9073 18.5161 23.2025 18.155C23.0245 18.0645 22.8178 18.0484 22.6279 18.1103C22.438 18.1722 22.2805 18.307 22.19 18.485C22.0995 18.663 22.0834 18.8697 22.1453 19.0596C22.2072 19.2495 22.342 19.407 22.52 19.4975C22.943 19.7131 23.2869 20.057 23.5025 20.48C23.75 20.96 23.75 21.7399 23.75 23.2998V23.75C23.75 23.9489 23.829 24.1397 23.9697 24.2803C24.1103 24.421 24.3011 24.5 24.5 24.5C24.6989 24.5 24.8897 24.421 25.0303 24.2803C25.171 24.1397 25.25 23.9489 25.25 23.75V23.3C25.25 21.5001 25.25 20.6 24.8375 19.7975Z" fill="#73707E"/>
<path d="M11.3681 18.1127C11.5564 18.1745 11.7126 18.3084 11.8025 18.485C11.848 18.5726 11.8757 18.6684 11.8841 18.7667C11.8926 18.8651 11.8815 18.9641 11.8515 19.0582C11.8215 19.1523 11.7733 19.2395 11.7096 19.3149C11.6458 19.3903 11.5678 19.4523 11.48 19.4975C11.0543 19.7119 10.7076 20.0559 10.49 20.48C10.25 20.96 10.25 21.74 10.25 23.3V23.75C10.25 23.9489 10.171 24.1397 10.0303 24.2803C9.88969 24.421 9.69891 24.5 9.5 24.5C9.30109 24.5 9.11033 24.421 8.96968 24.2803C8.82903 24.1397 8.75 23.9489 8.75 23.75V23.3C8.75 21.5 8.75001 20.6 9.15501 19.7975C9.51487 19.09 10.09 18.5149 10.7975 18.155C10.9746 18.066 11.1798 18.0508 11.3681 18.1127Z" fill="#73707E"/>
<path d="M17 32C8.71573 32 2 25.2843 2 17H0C0 26.3888 7.61116 34 17 34V32ZM32 17C32 25.2843 25.2843 32 17 32V34C26.3888 34 34 26.3888 34 17H32ZM17 2C25.2843 2 32 8.71573 32 17H34C34 7.61116 26.3888 0 17 0V2ZM17 0C7.61116 0 0 7.61116 0 17H2C2 8.71573 8.71573 2 17 2V0Z" fill="#E0E0E0"/>
</svg>
