<svg width="204" height="80" viewBox="0 0 204 80" fill="none" xmlns="http://www.w3.org/2000/svg">
<path d="M23.2929 17.3467L38.0647 8.75395C38.9527 8.23548 40.0665 8.88357 40.0665 9.91735V49.1789C40.0665 49.5235 39.6963 49.7417 39.3982 49.5678L23.2929 40.1974C22.6686 39.8338 22.2858 39.1667 22.2858 38.4428V19.1012C22.2858 18.3773 22.6686 17.7071 23.2929 17.3467Z" fill="#292333"/>
<path d="M58.7603 39.1191L43.6339 30.3209C42.746 29.8024 41.6322 30.4505 41.6322 31.4843V49.1977V49.8932C41.5945 50.4433 41.3749 50.8637 40.9388 51.1767L40.0759 51.6794C40.0477 51.6888 40.0226 51.6983 39.9943 51.7047L40.0602 51.6857L25.0688 60.408C24.1808 60.9265 24.1808 62.2195 25.0688 62.7348L40.1889 71.5299C40.603 71.7701 41.1113 71.7701 41.5223 71.5299L56.9813 62.5388C58.4936 61.6599 59.4286 60.0318 59.4286 58.2709V40.2825C59.4286 39.8019 59.1713 39.3593 58.7603 39.1191Z" fill="#292333"/>
<g clip-path="url(#clip0_3079_126049)">
<path d="M108.841 7.92698C107.979 7.92698 107.279 8.627 107.279 9.48921V30.6135C107.279 31.4757 107.979 32.1757 108.841 32.1757C109.703 32.1757 110.403 31.4757 110.403 30.6135V9.48921C110.403 8.627 109.703 7.92698 108.841 7.92698Z" fill="#292333"/>
<path d="M120.908 11.0556H125.992C126.854 11.0556 127.554 10.3556 127.554 9.49339C127.554 8.63118 126.854 7.93116 125.992 7.93116H120.908C117.732 7.93116 115.15 10.6202 115.15 13.924V26.0462C115.15 29.3542 117.732 32.0391 120.908 32.0391H125.992C126.854 32.0391 127.554 31.3391 127.554 30.4768C127.554 29.6146 126.854 28.9146 125.992 28.9146H120.908C119.457 28.9146 118.279 27.6298 118.279 26.0462V13.924C118.279 12.3404 119.457 11.0556 120.908 11.0556Z" fill="#292333"/>
<path d="M198.414 28.9104H193.33C191.879 28.9104 190.701 27.6256 190.701 26.0421V13.9198C190.701 12.3405 191.879 11.0514 193.33 11.0514H198.414C199.276 11.0514 199.976 10.3514 199.976 9.48921C199.976 8.627 199.276 7.92698 198.414 7.92698H193.33C190.154 7.92698 187.572 10.6161 187.572 13.9198V26.0421C187.572 29.3501 190.154 32.0349 193.33 32.0349H198.414C199.276 32.0349 199.976 31.3349 199.976 30.4727C199.98 29.6104 199.28 28.9104 198.414 28.9104Z" fill="#292333"/>
<path d="M176.372 7.5C172.376 7.5 169.124 10.7525 169.124 14.7477V25.248C169.124 29.2432 172.376 32.4957 176.372 32.4957C180.367 32.4957 183.619 29.2432 183.619 25.248V14.7477C183.619 10.7525 180.367 7.5 176.372 7.5ZM180.491 25.2523C180.491 27.5231 178.642 29.3713 176.367 29.3713C174.096 29.3713 172.248 27.5231 172.248 25.2523V14.752C172.248 12.4812 174.096 10.633 176.367 10.633C178.638 10.633 180.491 12.4812 180.491 14.752V25.2523Z" fill="#292333"/>
<path d="M141.149 18.1881L138.84 20.7363L143.334 31.1853C143.59 31.7787 144.167 32.1329 144.773 32.1329C144.978 32.1329 145.187 32.0945 145.392 32.0049C146.186 31.6634 146.553 30.7457 146.211 29.9518L141.149 18.1881Z" fill="#292333"/>
<path d="M145.831 8.34528C145.195 7.75624 144.209 7.79466 143.62 8.43065L134.661 18.1156V9.48921C134.661 8.627 133.961 7.92698 133.098 7.92698C132.236 7.92698 131.536 8.627 131.536 9.48921V30.6135C131.536 31.4757 132.236 32.1757 133.098 32.1757C133.961 32.1757 134.661 31.4757 134.661 30.6135V22.717L145.916 10.552C146.501 9.92032 146.463 8.93005 145.831 8.34528Z" fill="#292333"/>
<path d="M157.727 7.92698H151.828C150.966 7.92698 150.266 8.627 150.266 9.48921V30.6135C150.266 31.4757 150.966 32.1757 151.828 32.1757H157.727C161.842 32.1757 165.193 28.8293 165.193 24.7103V15.3924C165.188 11.2734 161.842 7.92698 157.727 7.92698ZM162.064 24.7146C162.064 27.1049 160.117 29.0513 157.727 29.0513H153.39V11.0557H157.727C160.117 11.0557 162.064 13.0021 162.064 15.3924V24.7146Z" fill="#292333"/>
<path d="M80.832 18.709C82.04 17.5693 82.7997 15.9601 82.7997 14.1716C82.7997 10.727 79.9997 7.92698 76.5593 7.92698H70.5622C69.7 7.92698 69 8.627 69 9.48921V18.8498V30.6477C69 31.5099 69.7 32.2099 70.5622 32.2099H76.4612C80.5759 32.2099 83.9266 28.8635 83.9266 24.7445C83.9266 22.2645 82.7016 20.0663 80.832 18.709ZM72.1287 11.0557H76.5593C78.2795 11.0557 79.6753 12.4557 79.6753 14.1716C79.6753 15.8875 78.2795 17.2876 76.5593 17.2876H76.4654H72.1287V11.0557ZM76.4654 29.0854H72.1287V20.4163H76.4654C78.8557 20.4163 80.8021 22.3627 80.8021 24.753C80.7978 27.139 78.8557 29.0854 76.4654 29.0854Z" fill="#292333"/>
<path d="M102.819 15.3924C102.819 11.2734 99.4679 7.92698 95.3531 7.92698H89.4542C88.592 7.92698 87.892 8.627 87.892 9.48921V21.2913C87.892 21.3767 87.9176 30.6135 87.9176 30.6135C87.9176 31.4757 88.6176 32.1757 89.4798 32.1757C90.342 32.1757 91.042 31.4757 91.042 30.6135V22.8536H95.3531C95.4556 22.8536 95.5537 22.8408 95.6519 22.8365L99.8179 31.5013C100.087 32.0605 100.646 32.3892 101.226 32.3892C101.453 32.3892 101.683 32.3379 101.905 32.2355C102.682 31.8599 103.011 30.9251 102.635 30.1483L98.7337 22.034C101.154 20.8005 102.819 18.2906 102.819 15.3924ZM95.3531 19.7291H91.042V11.0557H95.3531C97.7434 11.0557 99.6898 13.0021 99.6898 15.3924C99.6898 17.7827 97.7434 19.7291 95.3531 19.7291Z" fill="#292333"/>
</g>
<defs>
<clipPath id="clip0_3079_126049">
<rect width="130.98" height="25" fill="white" transform="translate(69 7.5)"/>
</clipPath>
</defs>
</svg>
