<svg width="172" height="48" viewBox="0 0 172 48" fill="none" xmlns="http://www.w3.org/2000/svg">
<path d="M16.8506 11.6992H8.375V35.9846H16.8506V11.6992Z" fill="#2C2932"/>
<path d="M18.0703 35.9846L30.0472 11.3753L42.0317 35.9846H18.0703Z" fill="#2C2932"/>
<path fill-rule="evenodd" clip-rule="evenodd" d="M100.053 33.5001V25.1326C100.042 24.9371 100.042 24.7415 100.053 24.5467V14.4H102.449V20.2957C102.736 20.1001 103.042 19.9317 103.363 19.7932C104.051 19.4964 104.792 19.3433 105.541 19.3433C106.29 19.3433 107.032 19.4964 107.719 19.7932C108.407 20.0901 109.027 20.5244 109.541 21.0695C110.055 21.6146 110.452 22.259 110.707 22.9631C110.959 23.6554 111.069 24.3912 111.03 25.1265V33.5001H108.634V25.0579L108.636 25.0226C108.661 24.6008 108.599 24.1784 108.455 23.7812C108.311 23.3841 108.087 23.0206 107.797 22.7132C107.507 22.4057 107.158 22.1608 106.77 21.9933C106.382 21.8259 105.964 21.7395 105.541 21.7395C105.119 21.7395 104.701 21.8259 104.313 21.9933C103.925 22.1608 103.575 22.4057 103.285 22.7132C102.996 23.0206 102.772 23.3841 102.627 23.7812C102.529 24.0517 102.469 24.334 102.449 24.6197V33.5001H100.053ZM87.6465 23.6705C87.6465 21.1491 89.921 19.3423 92.3641 19.3423C94.8188 19.3423 97.0568 21.1595 97.0568 23.6705H94.6605C94.6605 22.7269 93.7534 21.7385 92.3641 21.7385C90.9632 21.7385 90.0427 22.7373 90.0427 23.6705L90.033 23.6705C90.033 24.0861 90.2299 24.4011 90.73 24.7008C91.2654 25.0217 91.9962 25.215 92.6585 25.3238C93.4413 25.4524 94.4749 25.7169 95.3442 26.2719C96.252 26.8515 97.062 27.8153 97.062 29.2518H94.6657C94.6657 28.8611 94.4898 28.5694 94.0547 28.2916C93.581 27.9892 92.9148 27.7943 92.2699 27.6883C91.5044 27.5625 90.4205 27.309 89.4982 26.7562C88.5406 26.1823 87.6367 25.1969 87.6367 23.6705L87.6465 23.6705ZM90.074 29.2518C90.074 30.2015 90.9824 31.1888 92.3704 31.1888C93.7584 31.1888 94.6668 30.2015 94.6668 29.2518H97.0631C97.0631 31.7667 94.8264 33.585 92.3704 33.585C89.9144 33.585 87.6777 31.7667 87.6777 29.2518H90.074ZM119.97 18.0015C121.074 17.4082 122.317 17.1238 123.569 17.1785C124.821 17.2332 126.035 17.6249 127.083 18.3123L128.397 16.3087C126.989 15.3847 125.357 14.8581 123.674 14.7846C121.991 14.711 120.319 15.0933 118.836 15.8909C117.352 16.6886 116.111 17.872 115.244 19.3164C114.377 20.7607 113.916 22.4123 113.91 24.0969C113.904 25.7814 114.353 27.4363 115.209 28.887C116.066 30.3376 117.298 31.5301 118.776 32.3385C120.253 33.147 121.922 33.5414 123.606 33.4802C125.289 33.419 126.925 32.9044 128.34 31.9907L127.04 29.9775C125.987 30.6572 124.771 31.04 123.519 31.0855C122.266 31.1311 121.025 30.8377 119.926 30.2363C118.826 29.6349 117.91 28.7479 117.273 27.6688C116.636 26.5897 116.302 25.3587 116.306 24.1056C116.311 22.8526 116.654 21.624 117.299 20.5496C117.944 19.4752 118.867 18.5949 119.97 18.0015ZM148.323 23.2538C147.386 24.2044 146.724 25.709 146.724 27.9089H146.715V33.5002H144.318V19.3273H146.715V21.4741C148.169 20.0559 150.118 19.3872 152.181 19.3872V21.7835C150.601 21.7835 149.264 22.2999 148.323 23.2538ZM76.3328 23.3967C77.1076 21.9139 78.5043 21.5388 79.742 21.925C80.8807 22.2803 81.8476 23.2764 81.9599 24.7491C81.692 24.7 81.3977 24.6575 81.0854 24.6267C79.8897 24.5089 78.2704 24.5482 76.821 25.202C75.8722 25.6198 75.0884 26.3401 74.5921 27.2504C74.0947 28.1627 73.9142 29.2144 74.0789 30.2404L74.0862 30.2864L74.0971 30.3316C74.3525 31.3902 75.0029 32.3111 75.9151 32.9059C76.818 33.4947 77.91 33.7198 78.9715 33.5368C80.0876 33.3906 81.1171 32.9123 81.9654 32.2275V33.5002H84.3617V25.2987C84.48 22.4064 82.6562 20.3242 80.4559 19.6375C78.2302 18.943 75.5759 19.6711 74.209 22.2869L76.3328 23.3967ZM80.8505 27.0114C79.8562 26.9135 78.7128 26.9762 77.8025 27.388L77.7962 27.3909L77.7899 27.3937C77.3241 27.5979 76.9394 27.951 76.696 28.3974C76.4601 28.83 76.3699 29.3266 76.4378 29.8138C76.5569 30.2595 76.8366 30.6461 77.2239 30.8987C77.624 31.1595 78.1086 31.2576 78.5787 31.1728L78.6104 31.1671L78.6424 31.1631C79.6455 31.0375 80.611 30.4214 81.2364 29.5368C81.7465 28.8151 81.9847 27.9839 81.8808 27.1803C81.6139 27.1162 81.2585 27.0516 80.8505 27.0114ZM133.11 23.3967C133.885 21.9139 135.282 21.5388 136.519 21.925C137.659 22.2807 138.627 23.2782 138.738 24.7532C138.464 24.7023 138.162 24.6583 137.841 24.6267C136.646 24.5089 135.026 24.5482 133.577 25.202C132.628 25.6198 131.844 26.3401 131.348 27.2504C130.851 28.1627 130.67 29.2144 130.835 30.2404L130.842 30.2864L130.853 30.3316C131.108 31.3902 131.759 32.3111 132.671 32.9059C133.574 33.4947 134.666 33.7198 135.727 33.5368C136.855 33.3891 137.892 32.9024 138.743 32.2066V33.5002H141.139V25.2987C141.257 22.4064 139.434 20.3242 137.233 19.6375C135.008 18.943 132.353 19.6711 130.986 22.2869L133.11 23.3967ZM137.606 27.0114C136.612 26.9135 135.469 26.9762 134.558 27.388L134.552 27.3909L134.546 27.3937C134.08 27.5979 133.695 27.951 133.452 28.3974C133.216 28.83 133.126 29.3266 133.194 29.8138C133.313 30.2595 133.592 30.6461 133.98 30.8987C134.38 31.1595 134.864 31.2576 135.335 31.1728L135.366 31.1671L135.398 31.1631C136.4 31.0377 137.36 30.4228 137.984 29.5382C138.492 28.8174 138.731 27.985 138.632 27.1792C138.366 27.1155 138.012 27.0514 137.606 27.0114ZM163.604 14.4V21.3852C162.422 20.3617 160.89 19.7416 159.206 19.7416C155.429 19.7416 152.412 22.8645 152.412 26.6608C152.412 30.4571 155.429 33.58 159.206 33.58C160.89 33.58 162.422 32.9599 163.604 31.9364V33.5001H166V26.7867C166.001 26.7448 166.001 26.7029 166.001 26.6608C166.001 26.6188 166.001 26.5769 166 26.535V14.4H163.604ZM159.206 22.1379C161.578 22.1379 163.55 24.0837 163.604 26.558V26.7636C163.55 29.2379 161.578 31.1838 159.206 31.1838C156.802 31.1838 154.808 29.1838 154.808 26.6608C154.808 24.1378 156.802 22.1379 159.206 22.1379ZM54 33.5001V15.2636H56.142L62.4768 27.8071L68.8115 15.2636H70.9535V33.5001H68.5573V21.0826L62.4768 33.1227L56.3963 21.0826V33.5001H54Z" fill="#3D3D3D"/>
</svg>