<svg xmlns="http://www.w3.org/2000/svg" width="24" height="24" viewBox="0 0 24 24" fill="none">
<path d="M10.6774 2.05736L6.32799 4.56716C6.12121 4.68837 6 4.90228 6 5.13044V11.3336C6 11.5689 6.12121 11.7828 6.32799 11.8969L11.3262 14.7846V2.43525C11.3191 2.10014 10.9626 1.89336 10.6774 2.05736Z" fill="#35313C"/>
<path d="M17.786 11.5547L13.3083 8.9665C13.0231 8.80251 12.6595 9.00928 12.6595 9.33727V15.5975L7.36893 18.6492C7.08373 18.8132 7.08373 19.2267 7.36893 19.3979L11.7825 21.9433C11.918 22.0218 12.0819 22.0218 12.2103 21.9433L17.2085 19.0628C17.7005 18.7776 17.9999 18.2571 17.9999 17.6938V11.9255C17.9999 11.7758 17.9215 11.6332 17.786 11.5547Z" fill="#35313C"/>
</svg>