<svg width="267" height="70" viewBox="0 0 267 70" fill="none" xmlns="http://www.w3.org/2000/svg">
<path d="M17.9568 13.4793L31.99 5.31622C32.8336 4.82367 33.8917 5.43936 33.8917 6.42145V43.7199C33.8917 44.0473 33.54 44.2545 33.2568 44.0894L17.9568 35.1875C17.3636 34.8421 17 34.2084 17 33.5206V15.1462C17 14.4584 17.3636 13.8217 17.9568 13.4793Z" fill="#3E3E3E"/>
<path d="M51.6508 34.163L37.2808 25.8047C36.4373 25.3122 35.3791 25.9279 35.3791 26.91V43.7377V44.3984C35.3433 44.921 35.1347 45.3205 34.7204 45.6178L33.9007 46.0953C33.8738 46.1043 33.85 46.1133 33.8232 46.1193L33.8858 46.1013L19.6439 54.3875C18.8003 54.8801 18.8003 56.1085 19.6439 56.598L34.008 64.9533C34.4014 65.1816 34.8843 65.1816 35.2748 64.9533L49.9608 56.4118C51.3975 55.5769 52.2857 54.0301 52.2857 52.3573V35.2683C52.2857 34.8118 52.0413 34.3913 51.6508 34.163Z" fill="#3E3E3E"/>
<g clip-path="url(#clip0)">
<path d="M130.899 17.2964C129.67 17.2964 128.673 18.2939 128.673 19.5226V49.6247C128.673 50.8534 129.67 51.8509 130.899 51.8509C132.127 51.8509 133.125 50.8534 133.125 49.6247V19.5226C133.125 18.2939 132.127 17.2964 130.899 17.2964Z" fill="#3E3E3E"/>
<path d="M148.094 21.7539H155.338C156.567 21.7539 157.564 20.7564 157.564 19.5277C157.564 18.299 156.567 17.3015 155.338 17.3015H148.094C143.569 17.3015 139.889 21.1335 139.889 25.8413V43.1155C139.889 47.8294 143.569 51.6553 148.094 51.6553H155.338C156.567 51.6553 157.564 50.6578 157.564 49.4291C157.564 48.2004 156.567 47.2029 155.338 47.2029H148.094C146.026 47.2029 144.347 45.3721 144.347 43.1155V25.8413C144.347 23.5847 146.026 21.7539 148.094 21.7539Z" fill="#3E3E3E"/>
<path d="M258.539 47.1978H251.295C249.227 47.1978 247.548 45.367 247.548 43.1104V25.8362C247.548 23.5857 249.227 21.7488 251.295 21.7488H258.539C259.768 21.7488 260.765 20.7512 260.765 19.5226C260.765 18.2939 259.768 17.2964 258.539 17.2964H251.295C246.77 17.2964 243.09 21.1283 243.09 25.8362V43.1104C243.09 47.8243 246.77 51.6501 251.295 51.6501H258.539C259.768 51.6501 260.765 50.6526 260.765 49.424C260.771 48.1953 259.774 47.1978 258.539 47.1978Z" fill="#3E3E3E"/>
<path d="M227.129 16.6875C221.436 16.6875 216.801 21.3223 216.801 27.0155V41.9784C216.801 47.6716 221.436 52.3064 227.129 52.3064C232.823 52.3064 237.457 47.6716 237.457 41.9784V27.0155C237.457 21.3223 232.823 16.6875 227.129 16.6875ZM232.999 41.9845C232.999 45.2203 230.365 47.8541 227.123 47.8541C223.887 47.8541 221.254 45.2203 221.254 41.9845V27.0216C221.254 23.7857 223.887 21.152 227.123 21.152C230.359 21.152 232.999 23.7857 232.999 27.0216V41.9845Z" fill="#3E3E3E"/>
<path d="M176.937 31.9177L173.646 35.549L180.051 50.4388C180.416 51.2843 181.237 51.7891 182.101 51.7891C182.393 51.7891 182.691 51.7344 182.983 51.6067C184.114 51.1201 184.637 49.8123 184.151 48.681L176.937 31.9177Z" fill="#3E3E3E"/>
<path d="M183.609 17.8925C182.703 17.0531 181.298 17.1078 180.459 18.0141L167.692 31.8152V19.5226C167.692 18.2939 166.694 17.2964 165.465 17.2964C164.237 17.2964 163.239 18.2939 163.239 19.5226V49.6247C163.239 50.8534 164.237 51.8509 165.465 51.8509C166.694 51.8509 167.692 50.8534 167.692 49.6247V38.3721L183.731 21.0371C184.564 20.1369 184.51 18.7258 183.609 17.8925Z" fill="#3E3E3E"/>
<path d="M200.561 17.2964H192.155C190.927 17.2964 189.929 18.2939 189.929 19.5226V49.6247C189.929 50.8534 190.927 51.8509 192.155 51.8509H200.561C206.425 51.8509 211.199 47.0822 211.199 41.2126V27.9346C211.193 22.065 206.425 17.2964 200.561 17.2964ZM206.741 41.2187C206.741 44.6249 203.967 47.3985 200.561 47.3985H194.381V21.7548H200.561C203.967 21.7548 206.741 24.5284 206.741 27.9346V41.2187Z" fill="#3E3E3E"/>
<path d="M90.9856 32.6607C92.7069 31.0367 93.7896 28.7436 93.7896 26.195C93.7896 21.2865 89.7995 17.2964 84.897 17.2964H76.3512C75.1225 17.2964 74.125 18.2939 74.125 19.5226V32.8614V49.6734C74.125 50.902 75.1225 51.8995 76.3512 51.8995H84.7571C90.6206 51.8995 95.3954 47.1309 95.3954 41.2613C95.3954 37.7274 93.6497 34.5949 90.9856 32.6607ZM78.5834 21.7548H84.897C87.3483 21.7548 89.3372 23.7499 89.3372 26.195C89.3372 28.6402 87.3483 30.6352 84.897 30.6352H84.7632H78.5834V21.7548ZM84.7632 47.4472H78.5834V35.0937H84.7632C88.1694 35.0937 90.943 37.8673 90.943 41.2735C90.9369 44.6736 88.1694 47.4472 84.7632 47.4472Z" fill="#3E3E3E"/>
<path d="M122.316 27.9346C122.316 22.065 117.542 17.2964 111.678 17.2964H103.272C102.043 17.2964 101.046 18.2939 101.046 19.5226V36.3406C101.046 36.4622 101.082 49.6247 101.082 49.6247C101.082 50.8533 102.08 51.8509 103.309 51.8509C104.537 51.8509 105.535 50.8533 105.535 49.6247V38.5668H111.678C111.824 38.5668 111.964 38.5485 112.104 38.5424L118.04 50.8898C118.424 51.6866 119.22 52.155 120.048 52.155C120.37 52.155 120.698 52.082 121.015 51.936C122.122 51.4008 122.59 50.0687 122.055 48.9617L116.495 37.3989C119.944 35.6411 122.316 32.0646 122.316 27.9346ZM111.678 34.1144H105.535V21.7548H111.678C115.084 21.7548 117.858 24.5284 117.858 27.9346C117.858 31.3408 115.084 34.1144 111.678 34.1144Z" fill="#3E3E3E"/>
</g>
<defs>
<clipPath id="clip0">
<rect width="186.647" height="35.625" fill="white" transform="translate(74.125 16.6875)"/>
</clipPath>
</defs>
</svg>
