<svg width="110" height="20" viewBox="0 0 110 20" fill="none" xmlns="http://www.w3.org/2000/svg">
<circle cx="9" cy="9" r="9" fill="#35313C"/>
<path d="M5.24102 3.90302L8.56467 1.96966C8.76446 1.853 9.01508 1.99882 9.01508 2.23142V11.0653C9.01508 11.1428 8.93177 11.1919 8.86471 11.1528L5.24102 9.04442C5.10053 8.96262 5.0144 8.81253 5.0144 8.64964V4.2978C5.0144 4.13491 5.10053 3.98411 5.24102 3.90302Z" fill="white"/>
<path d="M13.2212 8.80179L9.81772 6.8222C9.61794 6.70554 9.36732 6.85136 9.36732 7.08396V11.0695V11.226C9.35885 11.3497 9.30943 11.4443 9.2113 11.5148L9.01717 11.6279C9.01081 11.63 9.00516 11.6321 8.99881 11.6335L9.01364 11.6293L5.64056 13.5918C5.44078 13.7085 5.44078 13.9994 5.64056 14.1153L9.04258 16.0942C9.13577 16.1483 9.25013 16.1483 9.34261 16.0942L12.8209 14.0712C13.1611 13.8735 13.3715 13.5072 13.3715 13.111V9.06356C13.3715 8.95544 13.3136 8.85585 13.2212 8.80179Z" fill="white"/>
<path d="M30.325 5.285V3.53H22.39V5.285H25.36V14H27.34V5.285H30.325ZM33.7312 14V9.2C33.7312 8.99 33.7712 8.805 33.8512 8.645C33.9412 8.485 34.0662 8.36 34.2262 8.27C34.3962 8.17 34.6012 8.1 34.8412 8.06C35.0912 8.01 35.3762 7.985 35.6962 7.985H36.2962V6.17H35.8762C35.5662 6.17 35.2912 6.215 35.0512 6.305C34.8212 6.395 34.6212 6.515 34.4512 6.665C34.2812 6.815 34.1412 6.99 34.0312 7.19C33.9312 7.38 33.8562 7.58 33.8062 7.79H33.7312V6.17H31.8112V14H33.7312ZM41.1348 10.31L40.5948 12.29H40.5048L39.9948 10.31L38.6298 6.17H36.7248L39.5298 14.375L39.1698 15.47H37.7598V17H38.9148C39.2348 17 39.5148 16.97 39.7548 16.91C39.9948 16.85 40.1998 16.75 40.3698 16.61C40.5398 16.48 40.6848 16.31 40.8048 16.1C40.9348 15.9 41.0498 15.665 41.1498 15.395L44.2998 6.17H42.4998L41.1348 10.31ZM49.231 14H54.541C54.931 14 55.291 13.925 55.621 13.775C55.951 13.615 56.236 13.4 56.476 13.13C56.716 12.86 56.901 12.545 57.031 12.185C57.171 11.815 57.241 11.42 57.241 11C57.241 10.55 57.166 10.17 57.016 9.86C56.866 9.55 56.676 9.3 56.446 9.11C56.226 8.91 55.981 8.77 55.711 8.69C55.451 8.6 55.206 8.555 54.976 8.555V8.465C55.216 8.445 55.446 8.395 55.666 8.315C55.896 8.225 56.096 8.09 56.266 7.91C56.446 7.73 56.586 7.505 56.686 7.235C56.796 6.955 56.851 6.615 56.851 6.215C56.851 5.405 56.606 4.755 56.116 4.265C55.626 3.775 54.946 3.53 54.076 3.53H49.231V14ZM51.211 9.515H53.971C54.161 9.515 54.326 9.54 54.466 9.59C54.616 9.64 54.741 9.715 54.841 9.815C54.951 9.915 55.031 10.035 55.081 10.175C55.141 10.315 55.171 10.48 55.171 10.67V11.18C55.171 11.36 55.141 11.52 55.081 11.66C55.031 11.8 54.951 11.92 54.841 12.02C54.741 12.12 54.616 12.195 54.466 12.245C54.326 12.295 54.161 12.32 53.971 12.32H51.211V9.515ZM51.211 5.21H53.656C53.836 5.21 53.996 5.235 54.136 5.285C54.276 5.335 54.396 5.41 54.496 5.51C54.596 5.6 54.671 5.715 54.721 5.855C54.771 5.985 54.796 6.14 54.796 6.32V6.785C54.796 6.955 54.771 7.11 54.721 7.25C54.671 7.39 54.596 7.51 54.496 7.61C54.396 7.7 54.276 7.77 54.136 7.82C53.996 7.87 53.836 7.895 53.656 7.895H51.211V5.21ZM60.9773 14V9.2C60.9773 8.99 61.0173 8.805 61.0973 8.645C61.1873 8.485 61.3123 8.36 61.4723 8.27C61.6423 8.17 61.8473 8.1 62.0873 8.06C62.3373 8.01 62.6223 7.985 62.9423 7.985H63.5423V6.17H63.1223C62.8123 6.17 62.5373 6.215 62.2973 6.305C62.0673 6.395 61.8673 6.515 61.6973 6.665C61.5273 6.815 61.3873 6.99 61.2773 7.19C61.1773 7.38 61.1023 7.58 61.0523 7.79H60.9773V6.17H59.0573V14H60.9773ZM65.9059 5.03C66.2959 5.03 66.5809 4.94 66.7609 4.76C66.9409 4.58 67.0309 4.345 67.0309 4.055V3.785C67.0309 3.495 66.9409 3.26 66.7609 3.08C66.5809 2.9 66.2959 2.81 65.9059 2.81C65.5059 2.81 65.2159 2.9 65.0359 3.08C64.8659 3.26 64.7809 3.495 64.7809 3.785V4.055C64.7809 4.345 64.8659 4.58 65.0359 4.76C65.2159 4.94 65.5059 5.03 65.9059 5.03ZM64.9459 14H66.8659V6.17H64.9459V14ZM72.1668 14.18C72.9368 14.18 73.5868 14.01 74.1168 13.67C74.6468 13.32 75.0368 12.8 75.2868 12.11L73.8168 11.405C73.6768 11.755 73.4768 12.05 73.2168 12.29C72.9668 12.52 72.6168 12.635 72.1668 12.635C71.6368 12.635 71.2368 12.47 70.9668 12.14C70.6968 11.8 70.5618 11.355 70.5618 10.805V9.38C70.5618 8.82 70.6968 8.375 70.9668 8.045C71.2368 7.705 71.6368 7.535 72.1668 7.535C72.5768 7.535 72.9068 7.645 73.1568 7.865C73.4068 8.075 73.5768 8.345 73.6668 8.675L75.2418 7.97C75.0118 7.35 74.6368 6.865 74.1168 6.515C73.6068 6.165 72.9568 5.99 72.1668 5.99C71.5868 5.99 71.0718 6.085 70.6218 6.275C70.1718 6.465 69.7918 6.74 69.4818 7.1C69.1818 7.45 68.9518 7.88 68.7918 8.39C68.6318 8.89 68.5518 9.45 68.5518 10.07C68.5518 10.7 68.6318 11.27 68.7918 11.78C68.9518 12.29 69.1818 12.72 69.4818 13.07C69.7918 13.42 70.1718 13.695 70.6218 13.895C71.0718 14.085 71.5868 14.18 72.1668 14.18ZM76.7672 14H78.6872V11.615L79.7222 10.49L81.7322 14H84.0122L81.0272 9.2L83.7272 6.17H81.5522L79.7972 8.18L78.7622 9.59H78.6872V8V2.9H76.7672V14ZM90.0501 14H91.9701V2.9H90.0501V7.46H89.9751C89.9051 7.24 89.8001 7.04 89.6601 6.86C89.5301 6.68 89.3701 6.525 89.1801 6.395C89.0001 6.265 88.7951 6.165 88.5651 6.095C88.3351 6.025 88.0851 5.99 87.8151 5.99C87.3251 5.99 86.8901 6.08 86.5101 6.26C86.1301 6.44 85.8101 6.705 85.5501 7.055C85.2901 7.405 85.0901 7.835 84.9501 8.345C84.8201 8.845 84.7551 9.42 84.7551 10.07C84.7551 10.73 84.8201 11.315 84.9501 11.825C85.0901 12.325 85.2901 12.75 85.5501 13.1C85.8101 13.45 86.1301 13.72 86.5101 13.91C86.8901 14.09 87.3251 14.18 87.8151 14.18C88.0851 14.18 88.3301 14.145 88.5501 14.075C88.7801 14.005 88.9851 13.905 89.1651 13.775C89.3551 13.645 89.5201 13.49 89.6601 13.31C89.8001 13.12 89.9051 12.915 89.9751 12.695H90.0501V14ZM88.4301 12.59C87.9401 12.59 87.5401 12.425 87.2301 12.095C86.9201 11.755 86.7651 11.31 86.7651 10.76V9.41C86.7651 8.85 86.9201 8.405 87.2301 8.075C87.5401 7.735 87.9401 7.565 88.4301 7.565C88.6601 7.565 88.8751 7.6 89.0751 7.67C89.2751 7.73 89.4451 7.815 89.5851 7.925C89.7251 8.025 89.8351 8.155 89.9151 8.315C90.0051 8.465 90.0501 8.635 90.0501 8.825V11.315C90.0501 11.515 90.0051 11.695 89.9151 11.855C89.8351 12.015 89.7251 12.15 89.5851 12.26C89.4451 12.36 89.2751 12.44 89.0751 12.5C88.8751 12.56 88.6601 12.59 88.4301 12.59ZM97.2892 14.18C97.8592 14.18 98.3642 14.085 98.8042 13.895C99.2542 13.705 99.6342 13.43 99.9442 13.07C100.264 12.71 100.509 12.28 100.679 11.78C100.849 11.27 100.934 10.7 100.934 10.07C100.934 9.45 100.849 8.89 100.679 8.39C100.509 7.88 100.264 7.45 99.9442 7.1C99.6342 6.74 99.2542 6.465 98.8042 6.275C98.3642 6.085 97.8592 5.99 97.2892 5.99C96.7292 5.99 96.2242 6.085 95.7742 6.275C95.3342 6.465 94.9542 6.74 94.6342 7.1C94.3242 7.45 94.0842 7.88 93.9142 8.39C93.7442 8.89 93.6592 9.45 93.6592 10.07C93.6592 10.7 93.7442 11.27 93.9142 11.78C94.0842 12.28 94.3242 12.71 94.6342 13.07C94.9542 13.43 95.3342 13.705 95.7742 13.895C96.2242 14.085 96.7292 14.18 97.2892 14.18ZM97.2892 12.635C96.7892 12.635 96.3942 12.48 96.1042 12.17C95.8142 11.86 95.6692 11.405 95.6692 10.805V9.35C95.6692 8.76 95.8142 8.31 96.1042 8C96.3942 7.69 96.7892 7.535 97.2892 7.535C97.7992 7.535 98.1992 7.69 98.4892 8C98.7792 8.31 98.9242 8.76 98.9242 9.35V10.805C98.9242 11.405 98.7792 11.86 98.4892 12.17C98.1992 12.48 97.7992 12.635 97.2892 12.635ZM105.726 14.18C106.496 14.18 107.146 14.01 107.676 13.67C108.206 13.32 108.596 12.8 108.846 12.11L107.376 11.405C107.236 11.755 107.036 12.05 106.776 12.29C106.526 12.52 106.176 12.635 105.726 12.635C105.196 12.635 104.796 12.47 104.526 12.14C104.256 11.8 104.121 11.355 104.121 10.805V9.38C104.121 8.82 104.256 8.375 104.526 8.045C104.796 7.705 105.196 7.535 105.726 7.535C106.136 7.535 106.466 7.645 106.716 7.865C106.966 8.075 107.136 8.345 107.226 8.675L108.801 7.97C108.571 7.35 108.196 6.865 107.676 6.515C107.166 6.165 106.516 5.99 105.726 5.99C105.146 5.99 104.631 6.085 104.181 6.275C103.731 6.465 103.351 6.74 103.041 7.1C102.741 7.45 102.511 7.88 102.351 8.39C102.191 8.89 102.111 9.45 102.111 10.07C102.111 10.7 102.191 11.27 102.351 11.78C102.511 12.29 102.741 12.72 103.041 13.07C103.351 13.42 103.731 13.695 104.181 13.895C104.631 14.085 105.146 14.18 105.726 14.18Z" fill="#35313C"/>
</svg>
