<svg  viewBox="0 0 24 24" xmlns="http://www.w3.org/2000/svg" fill="none"><path fill-opacity=".01" fill="#fff" d="M24 0H0v24h24V0z"/><path stroke-linejoin="round" stroke-width="2" stroke="#34313c" d="M12 21c6 0 7-5.234 7-7V7H5v7c0 1.725 1 7 7 7z"/><path stroke-linejoin="round" stroke-linecap="round" stroke-width="2" stroke="#34313c" d="m2 4 3 3m17-3-3 3M2 13.5h3m17 0h-3M3.5 22l3-3m14 3-3-3M12 21V7M7.46 19.52C8.501 20.392 9.962 21 12 21c2.056 0 3.524-.614 4.567-1.493"/><path stroke-linejoin="round" stroke-width="2" stroke="#34313c" d="M16 6.167C16 3.865 14.21 2 12 2S8 3.865 8 6.167V7h8v-.833z"/></svg>
