<svg  viewBox="0 0 24 24" xmlns="http://www.w3.org/2000/svg" fill="none"><path stroke-linejoin="round" stroke-linecap="round" stroke-width="2" stroke="#34313c" d="M13 18H3a1 1 0 0 1-1-1V4a1 1 0 0 1 1-1h18a1 1 0 0 1 1 1v13a1 1 0 0 1-1 1h-4M6 7h12M6 10.5h3M6 14h2"/><path stroke-width="2" stroke="#34313c" d="M15 16.5a3 3 0 1 0 0-6 3 3 0 0 0 0 6z"/><path stroke-linejoin="round" stroke-linecap="round" stroke-width="2" stroke="#34313c" d="m15 20 2 1v-5.264s-.57.764-2 .764c-1.43 0-2-.75-2-.75V21l2-1z"/></svg>
