<svg width="24" height="24" viewBox="0 0 24 24" fill="none" xmlns="http://www.w3.org/2000/svg">
<path fill-rule="evenodd" clip-rule="evenodd" d="M9.70711 9.70711C9.31658 10.0976 8.68342 10.0976 8.29289 9.70711C7.90237 9.31658 7.90237 8.68342 8.29289 8.29289L11.2929 5.29289C11.6834 4.90237 12.3166 4.90237 12.7071 5.29289L15.7071 8.29289C16.0976 8.68342 16.0976 9.31658 15.7071 9.70711C15.3166 10.0976 14.6834 10.0976 14.2929 9.70711L12 7.41421L9.70711 9.70711ZM14.2929 14.2929C14.6834 13.9024 15.3166 13.9024 15.7071 14.2929C16.0976 14.6834 16.0976 15.3166 15.7071 15.7071L12.7071 18.7071C12.3166 19.0976 11.6834 19.0976 11.2929 18.7071L8.29289 15.7071C7.90237 15.3166 7.90237 14.6834 8.29289 14.2929C8.68342 13.9024 9.31658 13.9024 9.70711 14.2929L12 16.5858L14.2929 14.2929Z" fill="#34313C"/>
</svg>
