<svg width="24" height="24" viewBox="0 0 24 24" fill="none" xmlns="http://www.w3.org/2000/svg">
<path d="M13.4811 8.51173C14.4062 9.43685 14.9261 10.6915 14.9264 11.9998C14.9265 12.5075 14.515 12.9191 14.0073 12.9192C13.4997 12.9193 13.088 12.5079 13.0879 12.0002C13.0878 11.1793 12.7616 10.3921 12.1812 9.81169C11.6491 9.27963 10.9433 8.96122 10.1971 8.91172L9.99271 8.90492L5.97791 8.90428C5.15691 8.90427 4.36949 9.23044 3.78893 9.811C3.20837 10.3916 2.8822 11.179 2.88221 12C2.88222 12.821 3.20838 13.6085 3.78892 14.189C4.32109 14.7212 5.02709 15.0396 5.77347 15.089L5.97793 15.0957H7.98506C8.49273 15.0957 8.90428 15.5073 8.90428 16.0149C8.90428 16.4835 8.55361 16.8703 8.10037 16.927L7.98507 16.9341L5.97791 16.9341C4.6693 16.9341 3.41428 16.4143 2.48896 15.489C1.56364 14.5636 1.0438 13.3086 1.04379 12C1.04377 10.6914 1.56363 9.43637 2.48897 8.51103C3.35646 7.64354 4.51375 7.13241 5.73338 7.07192L5.97807 7.06586L9.99306 7.0665C11.3014 7.06678 12.556 7.58662 13.4811 8.51173ZM21.511 8.51103C22.4364 9.43637 22.9562 10.6914 22.9562 12C22.9562 13.3086 22.4364 14.5636 21.511 15.489C20.6435 16.3564 19.4863 16.8676 18.2666 16.9281L18.0219 16.9341L14.007 16.9335C12.6987 16.9333 11.444 16.4134 10.5189 15.4883C9.59373 14.5631 9.07389 13.3085 9.07364 12.0002C9.07355 11.4925 9.48501 11.0809 9.99268 11.0808C10.5003 11.0807 10.912 11.4922 10.9121 11.9998C10.9122 12.8207 11.2384 13.6078 11.8189 14.1883C12.3509 14.7204 13.0567 15.0388 13.8029 15.0883L14.0073 15.0951L18.0221 15.0957C18.8431 15.0957 19.6305 14.7695 20.2111 14.189C20.7916 13.6085 21.1178 12.821 21.1178 12C21.1178 11.179 20.7916 10.3916 20.2111 9.811C19.6789 9.27882 18.9729 8.9604 18.2265 8.91103L18.0221 8.90428L16.0149 8.90427C15.5073 8.90427 15.0957 8.49272 15.0957 7.98506C15.0957 7.51644 15.4464 7.12973 15.8996 7.07301L16.0149 7.06585L18.0221 7.06586C19.3307 7.06584 20.5857 7.5857 21.511 8.51103Z" fill="#34313C"/>
</svg>
