<svg width="24" height="24" viewBox="0 0 24 24" fill="none" xmlns="http://www.w3.org/2000/svg">
<path d="M11.4217 8.62824C12.4016 8.79516 13.3134 9.26185 14.0258 9.97393C14.375 10.323 14.3774 10.8875 14.0331 11.2396L11.4217 8.62824Z" fill="#34313C"/>
<path d="M16.8122 14.0188L19.585 11.2469L19.7502 11.0733C20.5527 10.187 21 9.03201 21 7.83087C21 6.54966 20.491 5.32091 19.5851 4.41493C18.6791 3.50897 17.4504 3 16.1691 3C14.8879 3 13.6591 3.50897 12.7532 4.41493L11.3636 5.80448L11.2888 5.88927C11.0142 6.24232 11.0392 6.75281 11.3636 7.07724C11.7151 7.4287 12.2849 7.4287 12.6364 7.07724L14.0259 5.68768L14.1722 5.55081C14.723 5.06828 15.4323 4.79995 16.1691 4.79995C16.973 4.79995 17.7439 5.11928 18.3123 5.68767C18.8807 6.2561 19.2001 7.02704 19.2001 7.83087C19.2001 8.63471 18.8807 9.40564 18.3123 9.97407L15.5395 12.746L16.8122 14.0188Z" fill="#34313C"/>
<path d="M7.18778 9.98122L8.46053 11.254L5.68767 14.0259C5.11928 14.5943 4.79995 15.3653 4.79995 16.1691C4.79995 16.973 5.11928 17.7439 5.68767 18.3123C6.2561 18.8807 7.02704 19.2001 7.83087 19.2001C8.56772 19.2001 9.27692 18.9317 9.82783 18.4492L9.97406 18.3123L11.3636 16.9228C11.7151 16.5713 12.2849 16.5713 12.6364 16.9228C12.9608 17.2472 12.9858 17.7577 12.7112 18.1107L12.6364 18.1955L11.2468 19.5851C10.3408 20.491 9.11208 21 7.83087 21C6.54966 21 5.32091 20.491 4.41493 19.5851C3.50897 18.6791 3 17.4504 3 16.1691C3 14.968 3.44734 13.8129 4.24982 12.9267L4.41503 12.7531L7.18778 9.98122Z" fill="#34313C"/>
<path d="M12.5783 15.3718L9.96694 12.7604C9.62256 13.1124 9.625 13.677 9.97418 14.0261C10.6866 14.7382 11.5984 15.2048 12.5783 15.3718Z" fill="#34313C"/>
<path fill-rule="evenodd" clip-rule="evenodd" d="M2.29289 2.29289C2.68342 1.90237 3.31658 1.90237 3.70711 2.29289L21.7071 20.2929C22.0976 20.6834 22.0976 21.3166 21.7071 21.7071C21.3166 22.0976 20.6834 22.0976 20.2929 21.7071L2.29289 3.70711C1.90237 3.31658 1.90237 2.68342 2.29289 2.29289Z" fill="#34313C"/>
</svg>
