<svg  viewBox="0 0 24 24" width="1em" height="1em" fill="none" xmlns="http://www.w3.org/2000/svg"><path fill-rule="evenodd" clip-rule="evenodd" d="m15.552 4.38 4.067 4.068L15 13.067a5.653 5.653 0 0 0-1.655 4.136l-6.549-6.549A5.632 5.632 0 0 0 10.933 9l4.62-4.62Zm-.175 12.194a3.654 3.654 0 0 1 1.037-2.093l4.31-4.31.862.863c.474.474 1.25.474 1.724 0a1.222 1.222 0 0 0 0-1.724L14.69.69a1.222 1.222 0 0 0-1.723 0 1.222 1.222 0 0 0 0 1.724l.861.862-4.31 4.31a3.653 3.653 0 0 1-4.386.595c-.509-.285-1.13-.25-1.535.155l-.112.112a1.223 1.223 0 0 0 0 1.724l4.672 4.671-4.45 4.45a1 1 0 1 0 1.414 1.414l4.45-4.45 4.257 4.258c.475.474 1.25.474 1.724 0l.112-.112c.405-.405.44-1.026.155-1.534a3.653 3.653 0 0 1-.443-2.294Z" fill="#34313c"/></svg>
