<svg width="50" height="50" viewBox="0 0 50 50" fill="none" xmlns="http://www.w3.org/2000/svg">
<circle cx="25" cy="25" r="25" fill="black"/>
<path d="M14.558 10.8417L23.7904 5.47122C24.3454 5.14718 25.0415 5.55223 25.0415 6.19835V30.7368C25.0415 30.9522 24.8101 31.0885 24.6238 30.9799L14.558 25.1233C14.1678 24.8961 13.9285 24.4792 13.9285 24.0267V11.9383C13.9285 11.4858 14.1678 11.0669 14.558 10.8417Z" fill="white"/>
<path d="M36.7252 24.4494L27.2712 18.9505C26.7163 18.6265 26.0201 19.0315 26.0201 19.6777V30.7485V31.1832C25.9966 31.527 25.8593 31.7898 25.5867 31.9854L25.0474 32.2996C25.0298 32.3055 25.0141 32.3114 24.9965 32.3154L25.0376 32.3035L15.668 37.755C15.113 38.079 15.113 38.8872 15.668 39.2093L25.118 44.7062C25.3769 44.8563 25.6946 44.8563 25.9515 44.7062L35.6133 39.0867C36.5585 38.5375 37.1429 37.5199 37.1429 36.4193V25.1765C37.1429 24.8762 36.9821 24.5996 36.7252 24.4494Z" fill="white"/>
</svg>
