<svg width="512" height="512" viewBox="0 0 512 512" fill="none" xmlns="http://www.w3.org/2000/svg">
<g clip-path="url(#clip0)">
<path d="M143.909 108.158L238.179 53.3211C243.846 50.0123 250.954 54.1483 250.954 60.7456V311.304C250.954 313.503 248.591 314.895 246.689 313.785L143.909 253.985C139.924 251.665 137.481 247.408 137.481 242.788V119.355C137.481 114.735 139.924 110.458 143.909 108.158Z" fill="#231815"/>
<path d="M370.253 247.103L273.72 190.955C268.054 187.647 260.945 191.783 260.945 198.38V311.423V315.861C260.705 319.372 259.304 322.055 256.52 324.052L251.014 327.26C250.834 327.321 250.673 327.381 250.493 327.422L250.914 327.301L155.242 382.964C149.575 386.273 149.575 394.525 155.242 397.814L251.735 453.941C254.378 455.475 257.622 455.475 260.245 453.941L358.9 396.563C368.551 390.954 374.518 380.564 374.518 369.326V254.528C374.518 251.461 372.876 248.637 370.253 247.103Z" fill="#231815"/>
</g>
<defs>
<clipPath id="clip0">
<rect width="237.037" height="402.963" fill="white" transform="translate(137.481 52.1482)"/>
</clipPath>
</defs>
</svg>
