<svg width="24" height="24" viewBox="0 0 24 24" fill="none" xmlns="http://www.w3.org/2000/svg">
<path fill-rule="evenodd" clip-rule="evenodd" d="M5.5 17C4.67157 17 4 17.6716 4 18.5C4 19.3284 4.67157 20 5.5 20C6.32843 20 7 19.3284 7 18.5C7 17.6716 6.32843 17 5.5 17ZM2 18.5C2 16.567 3.567 15 5.5 15C7.433 15 9 16.567 9 18.5C9 20.433 7.433 22 5.5 22C3.567 22 2 20.433 2 18.5Z" fill="#34313C"/>
<path fill-rule="evenodd" clip-rule="evenodd" d="M18.5 17C17.6716 17 17 17.6716 17 18.5C17 19.3284 17.6716 20 18.5 20C19.3284 20 20 19.3284 20 18.5C20 17.6716 19.3284 17 18.5 17ZM15 18.5C15 16.567 16.567 15 18.5 15C20.433 15 22 16.567 22 18.5C22 20.433 20.433 22 18.5 22C16.567 22 15 20.433 15 18.5Z" fill="#34313C"/>
<path fill-rule="evenodd" clip-rule="evenodd" d="M7.18042 20.5678C6.70479 20.2871 6.54676 19.6739 6.82745 19.1983L7.88636 17.404L16.384 2.68567C16.6601 2.20738 17.2717 2.0435 17.75 2.31964C18.2283 2.59579 18.3922 3.20738 18.116 3.68567L9.61126 18.4164L8.54988 20.2148C8.26919 20.6904 7.65606 20.8485 7.18042 20.5678Z" fill="#34313C"/>
<path fill-rule="evenodd" clip-rule="evenodd" d="M6.24784 2.22157C6.72613 1.94542 7.33772 2.1093 7.61386 2.58759L16.1197 17.3202L17.1851 19.2168C17.4556 19.6983 17.2845 20.3079 16.803 20.5784C16.3215 20.8489 15.7119 20.6778 15.4414 20.1963L14.3789 18.3049L5.88181 3.58759C5.60567 3.1093 5.76954 2.49771 6.24784 2.22157Z" fill="#34313C"/>
</svg>
