<svg  viewBox="0 0 24 24" width="1em" height="1em" fill="none" xmlns="http://www.w3.org/2000/svg"><path fill-rule="evenodd" clip-rule="evenodd" d="M1 12C1 5.925 5.925 1 12 1s11 4.925 11 11-4.925 11-11 11S1 18.075 1 12Zm11-9a9 9 0 1 0 0 18 9 9 0 0 0 0-18Z" fill="#2C5BFF"/><path fill-rule="evenodd" clip-rule="evenodd" d="M7.833 8.5c-.46 0-.833.448-.833 1s.373 1 .833 1h8.334c.46 0 .833-.448.833-1s-.373-1-.833-1H7.833Zm0 5c-.46 0-.833.448-.833 1s.373 1 .833 1h8.334c.46 0 .833-.448.833-1s-.373-1-.833-1H7.833Z" fill="#34313c"/></svg>
