<svg  viewBox="0 0 24 24" width="1em" height="1em" fill="none" xmlns="http://www.w3.org/2000/svg"><path fill-rule="evenodd" clip-rule="evenodd" d="M4.004 1H5v5H3.65V2.604a3.568 3.568 0 0 1-.777.294l-.373.096V1.766l.221-.05a2.82 2.82 0 0 0 .633-.235c.235-.13.42-.258.564-.397L4.004 1Zm.45 10.351c.198-.215.288-.431.288-.653 0-.235-.066-.371-.158-.452-.097-.086-.266-.148-.534-.148-.263 0-.428.081-.539.225l-.002.004-.003.003c-.126.152-.206.392-.22.77l-.008.223H2.026l.003-.233c.007-.597.186-1.1.556-1.482C2.966 9.193 3.478 9 4.079 9c.533 0 1.003.145 1.37.468l.002.002c.36.323.542.738.542 1.235 0 .495-.2.936-.563 1.324l-.005.006c-.22.22-.588.493-1.098.827h-.002a4.288 4.288 0 0 0-.667.512H6V14.5H2v-.23c0-.547.185-1.03.566-1.446.21-.24.622-.553 1.197-.938.34-.232.565-.407.691-.534Zm-.394 6.732c.275 0 .455.064.564.17.099.1.162.251.162.482 0 .228-.069.384-.178.485-.112.104-.297.174-.583.174h-.537v1h.544c.31 0 .517.072.641.183l.006.005c.128.106.206.277.206.554 0 .22-.07.39-.207.538-.16.159-.376.25-.66.25-.261 0-.456-.079-.6-.222l-.005-.004c-.165-.154-.258-.38-.27-.706l-.008-.181H2l.014.203c.045.645.258 1.16.655 1.517.35.316.81.469 1.355.469.572 0 1.06-.178 1.436-.532l.004-.004C5.82 22.108 6 21.648 6 21.1c0-.356-.095-.668-.297-.913-.103-.13-.23-.24-.38-.33.132-.09.243-.198.333-.326.166-.237.245-.527.245-.856 0-.513-.175-.932-.515-1.236l-.003-.003c-.35-.299-.794-.435-1.33-.435-.527 0-.974.154-1.323.494-.372.34-.571.806-.617 1.384l-.016.205h1.108l.014-.172c.026-.3.118-.5.247-.627.128-.126.32-.2.594-.2ZM8 12a1 1 0 0 1 1-1h12a1 1 0 1 1 0 2H9a1 1 0 0 1-1-1ZM8 20a1 1 0 0 1 1-1h12a1 1 0 1 1 0 2H9a1 1 0 0 1-1-1ZM8 4a1 1 0 0 1 1-1h12a1 1 0 1 1 0 2H9a1 1 0 0 1-1-1Z" fill="#34313c"/></svg>
