<svg  viewBox="0 0 24 24" width="1em" height="1em" fill="none" xmlns="http://www.w3.org/2000/svg"><path d="M11.328 14.824H4.66L3.164 19H1L7.077 3h1.836L15 19h-2.153l-1.52-4.176Zm-6.033-1.736h5.41l-2.71-7.484-2.7 7.484Z" fill="#34313c"/><path fill-rule="evenodd" clip-rule="evenodd" d="M6.973 2.85h2.043l6.202 16.3h-2.476l-1.52-4.176H4.768L3.269 19.15H.783l6.19-16.3Zm.207.3-5.963 15.7h1.841l1.498-4.176h6.877l1.519 4.176h1.83L8.81 3.15H7.18Zm.814 2.013 2.925 8.075H5.082l2.912-8.075Zm0 .883L5.51 12.938h4.982L7.995 6.046Z" fill="#34313c"/><path d="M21.262 18.822c-.096-.19-.173-.53-.233-1.016-.77.796-1.69 1.194-2.76 1.194-.955 0-1.74-.267-2.355-.802-.61-.54-.914-1.224-.914-2.05 0-1.004.382-1.783 1.147-2.335.77-.559 1.851-.838 3.243-.838h1.612v-.758c0-.576-.173-1.033-.52-1.372-.346-.345-.856-.517-1.531-.517-.591 0-1.087.149-1.487.446-.4.297-.6.656-.6 1.078h-1.667c0-.481.17-.945.51-1.39.347-.452.813-.808 1.398-1.07A4.753 4.753 0 0 1 19.05 9c1.117 0 1.992.28 2.625.838.633.552.962 1.316.986 2.29v4.439c0 .885.113 1.59.34 2.112v.143h-1.738Zm-2.75-1.257c.52 0 1.012-.134 1.478-.401.466-.267.803-.615 1.012-1.043v-1.978h-1.299c-2.03 0-3.046.59-3.046 1.773 0 .517.174.921.52 1.212.346.291.791.437 1.335.437Z" fill="#34313c"/><path fill-rule="evenodd" clip-rule="evenodd" d="M19.05 9.15c-.686 0-1.313.127-1.884.38-.565.252-1.01.594-1.34 1.023-.286.376-.442.758-.473 1.149h1.368c.044-.413.268-.763.653-1.049.43-.32.96-.475 1.577-.475.699 0 1.253.179 1.637.56.38.372.564.871.564 1.48v.907H19.39c-1.374 0-2.42.276-3.155.81-.723.522-1.085 1.253-1.085 2.213 0 .783.287 1.425.863 1.937.583.507 1.331.765 2.257.765 1.027 0 1.908-.38 2.651-1.149l.219-.225.038.312c.05.414.113.705.182.884h1.474c-.219-.541-.324-1.245-.324-2.105V12.13c-.024-.939-.339-1.66-.934-2.18-.598-.527-1.434-.8-2.527-.8Zm-2.005.105a4.903 4.903 0 0 1 2.004-.405c1.142 0 2.056.286 2.724.875.67.585 1.012 1.39 1.037 2.4v4.442c0 .875.112 1.556.328 2.052l.012.029v.324h-1.98l-.042-.083c-.085-.17-.153-.43-.207-.77a3.818 3.818 0 0 1-2.651 1.031c-.985 0-1.808-.276-2.455-.839v-.001c-.643-.57-.965-1.294-.965-2.162 0-1.049.402-1.874 1.209-2.457.805-.584 1.921-.866 3.33-.866h1.463v-.607c0-.545-.162-.96-.474-1.266h-.001c-.31-.308-.776-.474-1.426-.474-.566 0-1.028.142-1.398.416-.37.275-.54.593-.54.958v.15h-1.966v-.15c0-.52.185-1.014.541-1.481.364-.474.851-.846 1.457-1.116Zm.298 5.201c.542-.315 1.335-.463 2.36-.463h1.45v2.163l-.016.031c-.224.458-.584.827-1.072 1.107a3.075 3.075 0 0 1-1.553.421c-.572 0-1.053-.154-1.432-.472-.385-.324-.573-.773-.573-1.327 0-.644.282-1.137.836-1.46Zm.151.26c-.46.268-.687.662-.687 1.2 0 .48.159.84.466 1.098.315.264.723.401 1.239.401.492 0 .96-.126 1.403-.381.432-.248.742-.564.937-.948v-1.793h-1.149c-1.005 0-1.735.147-2.209.423Z" fill="#34313c"/></svg>
