<svg  viewBox="0 0 24 24" width="1em" height="1em" fill="none" xmlns="http://www.w3.org/2000/svg"><path fill-rule="evenodd" clip-rule="evenodd" d="M20.592 14.087c-.19-.175-.506-.281-.987-.281-.48 0-.816.125-1.039.333-.226.212-.388.547-.432 1.046l-.026.287H16.17l.028-.342c.08-.963.429-1.739 1.08-2.306.61-.567 1.393-.824 2.314-.824.938 0 1.716.227 2.328.725l.006.005c.595.506.901 1.204.901 2.06 0 .549-.138 1.032-.43 1.428a2.198 2.198 0 0 1-.58.541c.26.151.483.335.663.552.354.408.52.928.52 1.52 0 .915-.316 1.683-.938 2.276l-.007.007c-.658.589-1.512.886-2.512.886-.955 0-1.76-.255-2.372-.781-.695-.597-1.067-1.454-1.146-2.529L16 18.351h1.987l.012.303c.022.544.185.92.474 1.176l.008.006c.253.24.593.371 1.05.371.498 0 .875-.152 1.156-.417.238-.245.362-.53.362-.896 0-.462-.136-.748-.36-.924l-.01-.008c-.219-.186-.58-.305-1.124-.305h-.95V15.99h.938c.502 0 .826-.117 1.02-.29.192-.169.313-.428.313-.809 0-.384-.111-.635-.284-.804Z" fill="#34313c"/><path d="M1 2v20h2.578v-8.964h8.844V22H15V2h-2.578v8.431H3.578V2H1Z" fill="#34313c"/></svg>
