<svg  viewBox="0 0 24 24" width="1em" height="1em" fill="none" xmlns="http://www.w3.org/2000/svg"><path fill-rule="evenodd" clip-rule="evenodd" d="M1 12a1 1 0 0 1 1-1h3a1 1 0 1 1 0 2H3.055a9.001 9.001 0 0 0 17.89 0H19a1 1 0 1 1 0-2h3a1 1 0 0 1 1 1c0 6.075-4.925 11-11 11S1 18.075 1 12Z" fill="#34313c"/><path fill-rule="evenodd" clip-rule="evenodd" d="M12 6a1 1 0 0 1 1 1v15a1 1 0 1 1-2 0V7a1 1 0 0 1 1-1Z" fill="#34313c"/><path fill-rule="evenodd" clip-rule="evenodd" d="M8.5 4.5a3.5 3.5 0 1 1 7 0 3.5 3.5 0 0 1-7 0ZM12 3a1.5 1.5 0 1 0 0 3 1.5 1.5 0 0 0 0-3Z" fill="#34313c"/></svg>
