<svg width="24" height="24" viewBox="0 0 24 24" fill="none" xmlns="http://www.w3.org/2000/svg">
<path fill-rule="evenodd" clip-rule="evenodd" d="M12 3.0625C8.75087 3.0625 6.5 5.38625 6.5 8.21875C6.5 9.57175 7.083 10.4531 7.853 11.3868L8.14725 11.7346C8.45388 12.0976 8.7935 12.4991 9.07262 12.9006C9.46312 13.4657 9.811 14.1326 9.9265 14.9494C9.95403 15.2147 9.87768 15.4804 9.71348 15.6906C9.54928 15.9008 9.31001 16.0392 9.04592 16.0768C8.78183 16.1143 8.51346 16.0481 8.29718 15.892C8.08089 15.7358 7.93352 15.502 7.886 15.2395C7.831 14.8518 7.66188 14.4874 7.37725 14.0749C7.14458 13.751 6.89586 13.4389 6.632 13.1399C6.5165 13.0024 6.39413 12.858 6.2635 12.6999C5.40138 11.6562 4.4375 10.3033 4.4375 8.21875C4.4375 4.17625 7.68663 1 12 1C16.3134 1 19.5625 4.17625 19.5625 8.21875C19.5625 10.3033 18.5986 11.6562 17.7365 12.6999C17.6059 12.858 17.4835 13.0024 17.368 13.1385C17.0834 13.4754 16.8414 13.7614 16.6241 14.0749C16.3381 14.4874 16.1704 14.8518 16.1154 15.2395C16.0962 15.3736 16.0509 15.5026 15.9819 15.6191C15.9129 15.7356 15.8216 15.8375 15.7133 15.9187C15.605 16 15.4817 16.0591 15.3505 16.0927C15.2193 16.1264 15.0828 16.1338 14.9487 16.1147C14.8146 16.0955 14.6856 16.0502 14.5691 15.9812C14.4525 15.9122 14.3507 15.8209 14.2695 15.7126C14.1882 15.6043 14.1291 15.481 14.0954 15.3498C14.0618 15.2186 14.0544 15.0821 14.0735 14.948C14.189 14.1326 14.5369 13.4657 14.9274 12.9006C15.2065 12.4991 15.5461 12.0976 15.8527 11.7346C15.9559 11.6136 16.0549 11.4967 16.1456 11.3868C16.917 10.4531 17.5 9.57175 17.5 8.21875C17.5 5.38625 15.2491 3.0625 12 3.0625ZM9.25 21.9688C9.25 21.6952 9.35865 21.4329 9.55205 21.2395C9.74544 21.0462 10.0077 20.9375 10.2812 20.9375H13.7188C13.9923 20.9375 14.2546 21.0462 14.448 21.2395C14.6413 21.4329 14.75 21.6952 14.75 21.9688C14.75 22.2423 14.6413 22.5046 14.448 22.698C14.2546 22.8913 13.9923 23 13.7188 23H10.2812C10.0077 23 9.74544 22.8913 9.55205 22.698C9.35865 22.5046 9.25 22.2423 9.25 21.9688ZM8.90625 17.5C8.63275 17.5 8.37044 17.6087 8.17705 17.802C7.98365 17.9954 7.875 18.2577 7.875 18.5312C7.875 18.8048 7.98365 19.0671 8.17705 19.2605C8.37044 19.4538 8.63275 19.5625 8.90625 19.5625H15.0938C15.3673 19.5625 15.6296 19.4538 15.823 19.2605C16.0163 19.0671 16.125 18.8048 16.125 18.5312C16.125 18.2577 16.0163 17.9954 15.823 17.802C15.6296 17.6087 15.3673 17.5 15.0938 17.5H8.90625Z" fill="#34313C"/>
</svg>
