<svg  viewBox="0 0 24 24" width="24" height="24" fill="none" xmlns="http://www.w3.org/2000/svg"><g clip-path="url(#a)" fill="#34313c"><path d="M12 16.5a1 1 0 0 1 1 1v.5a1 1 0 1 1-2 0v-.5a1 1 0 0 1 1-1ZM13 9.5a1 1 0 1 0-2 .001l.004 5a1 1 0 1 0 2-.002L13 9.5Z"/><path fill-rule="evenodd" clip-rule="evenodd" d="M12 1.5a1 1 0 0 1 .865.499l11 19A1 1 0 0 1 23 22.5H1A1 1 0 0 1 .135 21l11-19A1 1 0 0 1 12 1.5Zm9.266 19L12 4.496 2.734 20.5h18.532Z"/></g><defs><clipPath id="a"><path fill="#fff" d="M0 0h24v24H0z"/></clipPath></defs></svg>
