<svg  viewBox="0 0 24 24" xmlns="http://www.w3.org/2000/svg" fill="none"><path fill="#34313c" d="M12 7.5a4.5 4.5 0 1 0 0 9 4.5 4.5 0 0 0 0-9zM9.5 12a2.5 2.5 0 1 1 5 0 2.5 2.5 0 0 1-5 0z" clip-rule="evenodd" fill-rule="evenodd"/><path fill="#34313c" d="M10.217 1.907a1 1 0 0 0-1.158-.51 10.984 10.984 0 0 0-4.548 2.546 1 1 0 0 0-.216 1.174A2 2 0 0 1 2.5 8h-.028a1 1 0 0 0-.968.7 11.045 11.045 0 0 0-.28 5.515 1 1 0 0 0 1.077.795 2 2 0 0 1 1.729 3.279 1 1 0 0 0 .043 1.338 10.997 10.997 0 0 0 4.784 2.917 1 1 0 0 0 1.237-.654 2.001 2.001 0 0 1 3.812 0 1 1 0 0 0 1.237.654 10.997 10.997 0 0 0 4.784-2.917 1 1 0 0 0 .043-1.338 2 2 0 0 1 1.73-3.279 1 1 0 0 0 1.078-.795 11.046 11.046 0 0 0-.28-5.515 1 1 0 0 0-.97-.7H21.5a2 2 0 0 1-1.795-2.883 1 1 0 0 0-.216-1.174 10.984 10.984 0 0 0-4.548-2.545 1 1 0 0 0-1.158.51 2 2 0 0 1-3.566 0zM6.5 6c0-.352-.046-.694-.132-1.02a8.985 8.985 0 0 1 2.545-1.437A3.992 3.992 0 0 0 12 5a3.992 3.992 0 0 0 3.087-1.457c.93.34 1.787.828 2.545 1.436a4.002 4.002 0 0 0 3.13 4.953 9.028 9.028 0 0 1 .179 3.107 4 4 0 0 0-3.023 5.742 9 9 0 0 1-2.546 1.566A3.996 3.996 0 0 0 12 18.5a3.996 3.996 0 0 0-3.372 1.847 9 9 0 0 1-2.546-1.566A4 4 0 0 0 3.06 13.04a9.108 9.108 0 0 1 .18-3.107A4.001 4.001 0 0 0 6.5 6z" clip-rule="evenodd" fill-rule="evenodd"/></svg>
