<svg  viewBox="0 0 24 24" xmlns="http://www.w3.org/2000/svg" fill="none"><path fill="#34313c" d="M4 5a1 1 0 0 1 1-1h14a1 1 0 0 1 1 1v17a1 1 0 0 1-1 1H5a1 1 0 0 1-1-1V5zm2 1v15h12V6H6z" clip-rule="evenodd" fill-rule="evenodd"/><path fill="#34313c" d="M10 9a1 1 0 0 1 1 1v6.5a1 1 0 1 1-2 0V10a1 1 0 0 1 1-1zm4 0a1 1 0 0 1 1 1v6.5a1 1 0 1 1-2 0V10a1 1 0 0 1 1-1zM1 5a1 1 0 0 1 1-1h20a1 1 0 1 1 0 2H2a1 1 0 0 1-1-1z" clip-rule="evenodd" fill-rule="evenodd"/><path fill="#34313c" d="M8.768 1.52A1 1 0 0 1 9.645 1h4.744a1 1 0 0 1 .88.527l1.612 3A1 1 0 0 1 16 6H8a1 1 0 0 1-.877-1.48l1.645-3zM10.237 3l-.548 1h4.639l-.537-1h-3.554z" clip-rule="evenodd" fill-rule="evenodd"/></svg>
