<svg xmlns="http://www.w3.org/2000/svg" fill="none" viewBox="0 0 24 24"><path stroke-linejoin="round" stroke-width="2" stroke="#3E3E3E" d="M12 22a9.97 9.97 0 0 0 7.071-2.929A9.97 9.97 0 0 0 22 12a9.969 9.969 0 0 0-2.929-7.071A9.969 9.969 0 0 0 12 2a9.969 9.969 0 0 0-7.071 2.929A9.969 9.969 0 0 0 2 12a9.969 9.969 0 0 0 2.929 7.071A9.969 9.969 0 0 0 12 22z"/><path stroke-linejoin="round" stroke-linecap="round" stroke-width="2" stroke="#3E3E3E" d="M12 14.313v-2a3 3 0 1 0-3-3"/><path fill="#3E3E3E" d="M12 18.813a1.25 1.25 0 1 0 0-2.5 1.25 1.25 0 0 0 0 2.5z" clip-rule="evenodd" fill-rule="evenodd"/></svg>