<svg  viewBox="0 0 24 24" width="24" height="24" fill="none" xmlns="http://www.w3.org/2000/svg"><path fill-rule="evenodd" clip-rule="evenodd" d="M14.5 10.242A4.5 4.5 0 0 1 12 11a4.51 4.51 0 0 1-4.5-4.5 4.5 4.5 0 1 1 7 3.742Zm-1.111-5.82a2.5 2.5 0 1 0-2.778 4.156 2.5 2.5 0 0 0 2.778-4.157Z" fill="#34313c"/><path d="M6.19 10.5a1.06 1.06 0 0 1-.51-.14 4.5 4.5 0 0 1-.25-7.55 1 1 0 1 1 1.14 1.64 2.5 2.5 0 0 0 .14 4.19 1 1 0 0 1-.52 1.86ZM17.43 8.55a1 1 0 1 0 1.14 1.64 4.49 4.49 0 0 0 0-7.38 1 1 0 1 0-1.14 1.64 2.5 2.5 0 0 1 0 4.1Z" fill="#34313c"/><path fill-rule="evenodd" clip-rule="evenodd" d="M8.06 13.38a20.36 20.36 0 0 1 7.83 0 5 5 0 0 1 2.71 2.7c.375 1.27.504 2.601.38 3.92v1a1 1 0 0 1-1 1h-12a1 1 0 0 1-1-1v-1a10.4 10.4 0 0 1 .38-3.92 5 5 0 0 1 2.7-2.7Zm-.85 3.47A10 10 0 0 0 6.98 20h10a10 10 0 0 0-.23-3.15 3 3 0 0 0-1.62-1.62 21.69 21.69 0 0 0-6.3 0 3 3 0 0 0-1.62 1.62Z" fill="#34313c"/><path d="M22.45 15.73a5 5 0 0 0-2.18-2.19 1.004 1.004 0 1 0-.91 1.79 3 3 0 0 1 1.31 1.31c.33.64.33 1.68.33 3.76v.6a1 1 0 0 0 2 0v-.6c0-2.4 0-3.6-.55-4.67ZM4.49 13.484a1 1 0 0 1 .58.496 1 1 0 0 1-.43 1.35 3 3 0 0 0-1.32 1.31C3 17.28 3 18.32 3 20.4v.6a1 1 0 1 1-2 0v-.6c0-2.4 0-3.6.54-4.67a5 5 0 0 1 2.19-2.19 1 1 0 0 1 .76-.056Z" fill="#34313c"/></svg>
