<svg  viewBox="0 0 24 24" width="1em" height="1em" fill="none" xmlns="http://www.w3.org/2000/svg"><path fill-rule="evenodd" clip-rule="evenodd" d="M17.93 13.02a3.68 3.68 0 0 1-.787-2.27V4.5h1.286c.707 0 1.285-.563 1.285-1.25 0-.688-.578-1.25-1.285-1.25H5.57c-.707 0-1.285.563-1.285 1.25 0 .688.578 1.25 1.285 1.25h1.286v6.25c0 1.725-1.196 3.175-2.828 3.613C3.437 14.525 3 15 3 15.588v.162c0 .688.579 1.25 1.286 1.25H11v4h-1a1 1 0 1 0 0 2h4a1 1 0 1 0 0-2h-1v-4h6.714c.707 0 1.286-.563 1.286-1.25v-.162c0-.588-.437-1.063-1.029-1.225a3.86 3.86 0 0 1-2.04-1.343ZM8.857 4h6.286v6.75a5.68 5.68 0 0 0 1.212 3.503c.212.27.447.52.7.747H6.943a5.67 5.67 0 0 0 1.914-4.25V4Z" fill="#34313c"/></svg>
