<svg  viewBox="0 0 24 24" width="1em" height="1em" fill="none" xmlns="http://www.w3.org/2000/svg"><path fill-rule="evenodd" clip-rule="evenodd" d="M14 3a1 1 0 0 1 1-1h6a1 1 0 0 1 1 1v6a1 1 0 1 1-2 0V4h-5a1 1 0 0 1-1-1ZM3 14a1 1 0 0 1 1 1v5h5a1 1 0 1 1 0 2H3a1 1 0 0 1-1-1v-6a1 1 0 0 1 1-1Z" fill="#34313c"/><path d="m21 3-6.5 6.5" stroke="#34313c" stroke-width="2" stroke-linecap="round" stroke-linejoin="round"/><path fill-rule="evenodd" clip-rule="evenodd" d="M10.207 13.793a1 1 0 0 1 0 1.414l-6.5 6.5a1 1 0 0 1-1.414-1.414l6.5-6.5a1 1 0 0 1 1.414 0Z" fill="#34313c"/></svg>
