<svg  viewBox="0 0 24 24" width="24" height="24" fill="none" xmlns="http://www.w3.org/2000/svg"><g fill-rule="evenodd" clip-rule="evenodd" fill="#34313c"><path d="M13 3a1 1 0 0 1 1-1h7a1 1 0 0 1 1 1v7a1 1 0 1 1-2 0V4h-6a1 1 0 0 1-1-1ZM4.5 6a.5.5 0 0 0-.5.5v13a.5.5 0 0 0 .5.5h13a.5.5 0 0 0 .5-.5v-4.763a1 1 0 0 1 2 0V19.5a2.5 2.5 0 0 1-2.5 2.5h-13A2.5 2.5 0 0 1 2 19.5v-13A2.5 2.5 0 0 1 4.5 4H9a1 1 0 0 1 0 2H4.5Z"/><path d="M21.257 2.743a1 1 0 0 1 0 1.414l-7.65 7.65a1 1 0 0 1-1.414-1.414l7.65-7.65a1 1 0 0 1 1.414 0Z"/></g></svg>
