<svg width="1em" height="1em" viewBox="0 0 24 24" fill="none" xmlns="http://www.w3.org/2000/svg">
<path fill-rule="evenodd" clip-rule="evenodd" d="M1 5C1 4.44772 1.44772 4 2 4H15C15.5523 4 16 4.44772 16 5C16 5.55228 15.5523 6 15 6H2C1.44772 6 1 5.55228 1 5Z" fill="#34313C"/>
<path fill-rule="evenodd" clip-rule="evenodd" d="M6 10C6 9.44772 6.44772 9 7 9H22C22.5523 9 23 9.44772 23 10C23 10.5523 22.5523 11 22 11H7C6.44772 11 6 10.5523 6 10Z" fill="#34313C"/>
<path fill-rule="evenodd" clip-rule="evenodd" d="M6 15C6 14.4477 6.44772 14 7 14H22C22.5523 14 23 14.4477 23 15C23 15.5523 22.5523 16 22 16H7C6.44772 16 6 15.5523 6 15Z" fill="#34313C"/>
<path fill-rule="evenodd" clip-rule="evenodd" d="M1 20C1 19.4477 1.44772 19 2 19H22C22.5523 19 23 19.4477 23 20C23 20.5523 22.5523 21 22 21H2C1.44772 21 1 20.5523 1 20Z" fill="#DCDAE1"/>
</svg>
