<svg  viewBox="0 0 24 24" width="1em" height="1em" fill="none" xmlns="http://www.w3.org/2000/svg"><path fill-rule="evenodd" clip-rule="evenodd" d="M12 4a8 8 0 1 1-5.657 13.657A1 1 0 1 0 4.93 19.07 9.972 9.972 0 0 0 12 22c5.523 0 10-4.477 10-10S17.523 2 12 2a9.972 9.972 0 0 0-7.071 2.929 59.419 59.419 0 0 0-1.663 1.778 166.435 166.435 0 0 0-.933 1.039l-.08.09L3 8.5l.748.664.078-.088a146.935 146.935 0 0 1 .922-1.025 57.84 57.84 0 0 1 1.595-1.708A7.972 7.972 0 0 1 12 4ZM2.336 9.248a1 1 0 0 0 1.412-.084L3 8.5l-.747-.664a1 1 0 0 0 .083 1.412Z" fill="#34313c"/><path fill-rule="evenodd" clip-rule="evenodd" d="M3 3a1 1 0 0 0-1 1v4.5a1 1 0 0 0 1 1h4.5a1 1 0 0 0 0-2H4V4a1 1 0 0 0-1-1Z" fill="#34313c"/></svg>
